<?xml version="1.0" encoding="UTF-8" standalone="no"?>
<svg
   xmlns:dc="http://purl.org/dc/elements/1.1/"
   xmlns:cc="http://creativecommons.org/ns#"
   xmlns:rdf="http://www.w3.org/1999/02/22-rdf-syntax-ns#"
   xmlns:svg="http://www.w3.org/2000/svg"
   xmlns="http://www.w3.org/2000/svg"
   xmlns:sodipodi="http://sodipodi.sourceforge.net/DTD/sodipodi-0.dtd"
   xmlns:inkscape="http://www.inkscape.org/namespaces/inkscape"
   width="233.61333"
   height="262.0018"
   style="animation-delay: 0s; animation-direction: normal; animation-duration: 0s; animation-fill-mode: none; animation-iteration-count: 1; animation-name: none; animation-play-state: running; animation-timing-function: ease; background-attachment: scroll; background-blend-mode: normal; background-clip: border-box; background-color: rgba(0, 0, 0, 0); background-image: none; background-origin: padding-box; background-position: 0% 0%; background-repeat: repeat; background-size: auto; border-bottom-color: rgb(0, 0, 0); border-bottom-left-radius: 0px; border-bottom-right-radius: 0px; border-bottom-style: none; border-bottom-width: 0px; border-collapse: separate; border-image-outset: 0px; border-image-repeat: stretch; border-image-slice: 100%; border-image-source: none; border-image-width: 1; border-left-color: rgb(0, 0, 0); border-left-style: none; border-left-width: 0px; border-right-color: rgb(0, 0, 0); border-right-style: none; border-right-width: 0px; border-top-color: rgb(0, 0, 0); border-top-left-radius: 0px; border-top-right-radius: 0px; border-top-style: none; border-top-width: 0px; bottom: auto; box-shadow: none; box-sizing: content-box; break-after: auto; break-before: auto; break-inside: auto; caption-side: top; clear: none; clip: auto; color: rgb(0, 0, 0); content: normal; cursor: auto; direction: ltr; display: block; empty-cells: show; float: none; font-family: &quot;Times New Roman&quot;; font-kerning: auto; font-size: 16px; font-stretch: 100%; font-style: normal; font-variant: normal; font-variant-ligatures: normal; font-variant-caps: normal; font-variant-numeric: normal; font-variant-east-asian: normal; font-weight: 400; height: 262px; image-rendering: auto; isolation: auto; justify-items: normal; justify-self: auto; left: auto; letter-spacing: normal; line-height: normal; list-style-image: none; list-style-position: outside; list-style-type: disc; margin-bottom: 0px; margin-left: 0px; margin-right: 0px; margin-top: 0px; max-height: none; max-width: none; min-height: 0px; min-width: 0px; mix-blend-mode: normal; object-fit: fill; object-position: 50% 50%; offset-distance: 0px; offset-path: none; offset-rotate: auto 0deg; opacity: 1; orphans: 2; outline-color: rgb(0, 0, 0); outline-offset: 0px; outline-style: none; outline-width: 0px; overflow-anchor: auto; overflow-wrap: normal; overflow-x: visible; overflow-y: visible; padding-bottom: 0px; padding-left: 0px; padding-right: 0px; padding-top: 0px; pointer-events: auto; position: static; resize: none; right: auto; scroll-behavior: auto; speak: normal; table-layout: auto; tab-size: 8; text-align: start; text-align-last: auto; text-decoration: none solid rgb(0, 0, 0); text-decoration-line: none; text-decoration-style: solid; text-decoration-color: rgb(0, 0, 0); text-decoration-skip-ink: auto; text-underline-position: auto; text-indent: 0px; text-rendering: auto; text-shadow: none; text-size-adjust: auto; text-overflow: clip; text-transform: none; top: auto; touch-action: auto; transition-delay: 0s; transition-duration: 0s; transition-property: all; transition-timing-function: ease; unicode-bidi: normal; vertical-align: baseline; visibility: visible; white-space: normal; widows: 2; width: 233.609px; will-change: auto; word-break: normal; word-spacing: 0px; z-index: auto; zoom: 1; -webkit-appearance: none; backface-visibility: visible; -webkit-border-horizontal-spacing: 0px; -webkit-border-image: none; -webkit-border-vertical-spacing: 0px; -webkit-box-align: stretch; -webkit-box-decoration-break: slice; -webkit-box-direction: normal; -webkit-box-flex: 0; -webkit-box-ordinal-group: 1; -webkit-box-orient: horizontal; -webkit-box-pack: start; -webkit-box-reflect: none; column-count: auto; column-gap: normal; column-rule-color: rgb(0, 0, 0); column-rule-style: none; column-rule-width: 0px; column-span: none; column-width: auto; align-content: normal; align-items: normal; align-self: auto; flex-basis: auto; flex-grow: 0; flex-shrink: 1; flex-direction: row; flex-wrap: nowrap; justify-content: normal; -webkit-font-smoothing: auto; grid-auto-columns: auto; grid-auto-flow: row; grid-auto-rows: auto; grid-column-end: auto; grid-column-start: auto; grid-template-areas: none; grid-template-columns: none; grid-template-rows: none; grid-row-end: auto; grid-row-start: auto; row-gap: normal; -webkit-highlight: none; hyphens: manual; -webkit-hyphenate-character: auto; -webkit-line-break: auto; -webkit-line-clamp: none; -webkit-locale: auto; -webkit-margin-before-collapse: collapse; -webkit-margin-after-collapse: collapse; -webkit-mask-box-image: none; -webkit-mask-box-image-outset: 0px; -webkit-mask-box-image-repeat: stretch; -webkit-mask-box-image-slice: 0 fill; -webkit-mask-box-image-source: none; -webkit-mask-box-image-width: auto; -webkit-mask-clip: border-box; -webkit-mask-composite: source-over; -webkit-mask-image: none; -webkit-mask-origin: border-box; -webkit-mask-position: 0% 0%; -webkit-mask-repeat: repeat; -webkit-mask-size: auto; order: 0; perspective: none; perspective-origin: 116.797px 131px; -webkit-print-color-adjust: economy; -webkit-rtl-ordering: logical; shape-outside: none; shape-image-threshold: 0; shape-margin: 0px; -webkit-tap-highlight-color: rgba(0, 0, 0, 0.18); -webkit-text-combine: none; -webkit-text-decorations-in-effect: none; -webkit-text-emphasis-color: rgb(0, 0, 0); -webkit-text-emphasis-position: over right; -webkit-text-emphasis-style: none; -webkit-text-fill-color: rgb(0, 0, 0); -webkit-text-orientation: vertical-right; -webkit-text-security: none; -webkit-text-stroke-color: rgb(0, 0, 0); -webkit-text-stroke-width: 0px; transform: none; transform-origin: 116.797px 131px; transform-style: flat; -webkit-user-drag: auto; -webkit-user-modify: read-only; user-select: auto; -webkit-writing-mode: horizontal-tb; -webkit-app-region: none; buffered-rendering: auto; clip-path: none; clip-rule: nonzero; mask: none; filter: none; flood-color: rgb(0, 0, 0); flood-opacity: 1; lighting-color: rgb(255, 255, 255); stop-color: rgb(0, 0, 0); stop-opacity: 1; color-interpolation: sRGB; color-interpolation-filters: linearRGB; color-rendering: auto; fill: rgb(0, 0, 0); fill-opacity: 1; fill-rule: nonzero; marker-end: none; marker-mid: none; marker-start: none; mask-type: luminance; shape-rendering: auto; stroke: none; stroke-dasharray: none; stroke-dashoffset: 0px; stroke-linecap: butt; stroke-linejoin: miter; stroke-miterlimit: 4; stroke-opacity: 1; stroke-width: 1px; alignment-baseline: auto; baseline-shift: 0px; dominant-baseline: auto; text-anchor: start; writing-mode: horizontal-tb; vector-effect: none; paint-order: fill stroke markers; d: none; cx: 0px; cy: 0px; x: 0px; y: 0px; r: 0px; rx: auto; ry: auto; caret-color: rgb(0, 0, 0); line-break: auto;"
   version="1.1"
   mask="none"
   clip-path="none"
   id="svg70"
   sodipodi:docname="California_Governor_Election_Results_by_County,_2018.svg"
   inkscape:version="0.92.3 (2405546, 2018-03-11)">
  <metadata
     id="metadata76" />
  <defs
     id="defs74" />
  <sodipodi:namedview
     pagecolor="#ffffff"
     bordercolor="#666666"
     borderopacity="1"
     objecttolerance="10"
     gridtolerance="10"
     guidetolerance="10"
     inkscape:pageopacity="0"
     inkscape:pageshadow="2"
     inkscape:window-width="958"
     inkscape:window-height="974"
     id="namedview72"
     showgrid="false"
     inkscape:zoom="2.547726"
     inkscape:cx="125.82245"
     inkscape:cy="115.37589"
     inkscape:window-x="-10"
     inkscape:window-y="0"
     inkscape:window-maximized="0"
     inkscape:current-layer="layer1" />
  <style
     type="text/css"
     id="style2" />
  <svg
     id="svg6928"
     sodipodi:version="0.32"
     inkscape:version="0.46"
     version="1.0"
     sodipodi:docname="California Gubernatorial Election Results by County, 2010.svg"
     inkscape:output_extension="org.inkscape.output.svg.inkscape">
    <defs
       id="defs6930">
      <inkscape:perspective
         sodipodi:type="inkscape:persp3d"
         inkscape:vp_x="0 : 526.18109 : 1"
         inkscape:vp_y="0 : 1000 : 0"
         inkscape:vp_z="744.09448 : 526.18109 : 1"
         inkscape:persp3d-origin="372.04724 : 350.78739 : 1"
         id="perspective6936" />
      <inkscape:perspective
         id="perspective6945"
         inkscape:persp3d-origin="372.04724 : 350.78739 : 1"
         inkscape:vp_z="744.09448 : 526.18109 : 1"
         inkscape:vp_y="0 : 1000 : 0"
         inkscape:vp_x="0 : 526.18109 : 1"
         sodipodi:type="inkscape:persp3d" />
      <inkscape:perspective
         id="perspective7539"
         inkscape:persp3d-origin="372.04724 : 350.78739 : 1"
         inkscape:vp_z="744.09448 : 526.18109 : 1"
         inkscape:vp_y="0 : 1000 : 0"
         inkscape:vp_x="0 : 526.18109 : 1"
         sodipodi:type="inkscape:persp3d" />
    </defs>
    <sodipodi:namedview
       id="base"
       pagecolor="#ffffff"
       bordercolor="#666666"
       borderopacity="1.0"
       gridtolerance="10000"
       guidetolerance="10"
       objecttolerance="10"
       inkscape:pageopacity="0.0"
       inkscape:pageshadow="2"
       inkscape:zoom="1.6908282"
       inkscape:cx="105.03885"
       inkscape:cy="132.78496"
       inkscape:document-units="px"
       inkscape:current-layer="layer1"
       showgrid="false"
       showguides="true"
       inkscape:guide-bbox="true"
       inkscape:window-width="1024"
       inkscape:window-height="719"
       inkscape:window-x="-4"
       inkscape:window-y="-4" />
    <metadata
       id="metadata6933">
      <rdf:RDF>
        <cc:Work
           rdf:about="">
          <dc:format>image/svg+xml</dc:format>
          <dc:type
             rdf:resource="http://purl.org/dc/dcmitype/StillImage" />
        </cc:Work>
      </rdf:RDF>
    </metadata>
    <g
       inkscape:label="Layer 1"
       inkscape:groupmode="layer"
       id="layer1"
       transform="translate(-430.72546,-602.12372)">
      <path
         style="font-size:12px;fill-opacity:1;fill-rule:nonzero;stroke:#ffffff;stroke-width:0.72731787;stroke-miterlimit:4;stroke-dasharray:none;fill:#e27f7f"
         d="M 457.16614,624.49417 L 463.9311,624.77911 L 469.19416,624.81478 L 468.89747,625.86056 L 468.41507,627.02788 L 467.29651,627.44746 L 466.07494,629.31075 L 466.38811,635.58338 L 466.67991,636.06599 L 467.22256,637.48096 L 467.20064,637.78436 L 466.6571,638.91351 L 466.30117,639.33315 L 465.30308,639.31174 L 464.41017,638.61049 L 464.44448,637.34533 L 462.43001,637.2415 L 459.28921,637.17146 L 459.06308,635.20435 L 458.77905,633.89679 L 458.12238,631.35824 L 458.05772,631.14592 L 457.94506,630.88814 L 457.77837,630.61854 L 457.16342,626.78646 L 457.16614,624.49417"
         id="CA_Del_Norte"
         inkscape:label="Del Norte, CA" />
      <path
         style="font-size:12px;fill-opacity:1;fill-rule:nonzero;stroke:#ffffff;stroke-width:0.72731787;stroke-miterlimit:4;stroke-dasharray:none;fill:#d75d5d"
         d="M 469.19416,624.81478 L 474.18047,624.86464 L 474.22322,624.86254 L 475.50057,624.78812 L 477.39522,624.95056 L 478.1635,624.97167 L 478.61528,624.97817 L 484.51771,625.05269 L 486.83824,625.00638 L 488.96867,625.00935 L 489.52801,625.03773 L 490.50517,625.07232 L 505.11423,625.46106 L 504.94537,626.57602 L 504.93602,627.16412 L 504.92819,630.57817 L 504.97168,630.64178 L 505.06345,630.66793 L 505.06259,638.86659 L 505.03703,644.67112 L 495.29939,644.59099 L 490.23987,644.49304 L 486.57414,644.49455 L 486.36566,642.0821 L 484.03186,641.38631 L 480.85456,643.74194 L 479.0673,646.97383 L 479.50128,647.98496 L 479.39412,648.40545 L 479.09565,648.80775 L 478.75805,648.84773 L 477.24746,648.53113 L 474.32113,646.73884 L 472.56641,645.19996 L 471.58812,644.65728 L 470.60564,644.22494 L 469.54199,639.76794 L 469.10452,639.40173 L 466.30117,639.33315 L 466.6571,638.91351 L 467.20064,637.78436 L 467.22256,637.48096 L 466.67991,636.06599 L 466.38811,635.58338 L 466.07494,629.31075 L 467.29651,627.44746 L 468.41507,627.02788 L 468.89747,625.86056 L 469.19416,624.81478"
         id="CA_Siskiyou"
         inkscape:label="Siskiyou, CA" />
      <path
         style="font-size:12px;fill-opacity:1;fill-rule:nonzero;stroke:#ffffff;stroke-width:0.72731787;stroke-miterlimit:4;stroke-dasharray:none;fill:#6674de"
         d="M 608.53453,825.44272 L 620.55656,824.76133 L 630.38642,824.0785 L 632.92018,823.84489 L 636.8799,823.58539 L 635.10798,824.5649 L 635.84117,831.73378 L 635.86561,831.76862 L 636.54368,832.71409 L 637.58074,833.09031 L 637.92438,833.14283 L 639.64554,832.97536 L 639.71873,833.02346 L 639.78829,833.06499 L 640.70307,834.22543 L 640.92109,835.76353 L 640.90971,836.38608 L 640.91208,836.39485 L 640.40119,837.77131 L 638.21287,840.10749 L 636.1851,840.49304 L 636.07211,840.51403 L 621.6346,842.61737 L 621.34821,842.65865 L 619.70638,842.89705 L 613.60501,843.78364 L 611.00997,844.16743 L 609.09991,844.45162 L 608.94826,840.47984 L 609.04108,833.70068 L 608.89907,830.96151 L 608.53453,825.44272"
         id="CA_Imperial"
         inkscape:label="Imperial, CA" />
      <path
         style="font-size:12px;fill-opacity:1;fill-rule:nonzero;stroke:#ffffff;stroke-width:0.72731787;stroke-miterlimit:4;stroke-dasharray:none;fill:#e27f7f"
         d="M 639.55789,808.14195 L 638.50371,811.00525 L 638.22053,812.06623 L 638.20397,813.92916 L 638.29832,814.69275 L 638.48292,817.52025 L 638.43522,820.28221 L 636.8799,823.58539 L 632.92018,823.84489 L 630.38642,824.0785 L 620.55656,824.76133 L 608.53453,825.44272 L 604.34469,825.60975 L 598.17113,825.91321 L 593.91579,826.1167 L 586.02929,826.33124 L 586.01456,825.9266 L 583.56982,824.69955 L 580.74754,824.80553 L 580.70794,824.1195 L 582.49289,821.10288 L 581.25354,820.09379 L 580.09548,819.98171 L 579.15176,818.65771 L 577.25312,816.29705 L 577.56976,815.01052 L 579.34843,812.38349 L 582.12784,812.27209 L 582.8856,812.24709 L 583.14567,812.58383 L 585.80981,812.83484 L 591.53044,812.58358 L 593.91965,812.03675 L 598.73553,811.60713 L 612.82021,810.83772 L 622.64047,810.30811 L 623.82498,809.53183 L 626.24636,809.00649 L 639.55789,808.14195"
         id="CA_Riverside"
         inkscape:label="Riverside, CA" />
      <path
         style="font-size:12px;fill-opacity:1;fill-rule:nonzero;stroke:#ffffff;stroke-width:0.72731787;stroke-miterlimit:4;stroke-dasharray:none;fill:#7996e2"
         d="M 580.74754,824.80553 L 583.56982,824.69955 L 586.01456,825.9266 L 586.02929,826.33124 L 593.91579,826.1167 L 598.17113,825.91321 L 604.34469,825.60975 L 608.53453,825.44272 L 608.89907,830.96151 L 609.04108,833.70068 L 608.94826,840.47984 L 609.09991,844.45162 L 607.27063,844.71411 L 603.54566,845.25127 L 599.75763,845.81294 L 594.40997,846.59653 L 589.26867,847.32836 L 589.1557,847.34936 L 587.27783,843.80625 L 586.12031,838.11858 L 586.06929,837.92894 L 586.07808,837.92658 L 585.76377,836.7025 L 585.64499,836.22604 L 584.90219,834.34713 L 584.62265,833.68609 L 583.96864,832.70404 L 583.91025,832.61995 L 582.19797,830.32213 L 581.70402,829.68302 L 581.6176,829.58576 L 580.97287,828.82717 L 580.12738,828.11317 L 579.64695,827.81124 L 579.16988,827.64775 L 580.74754,824.80553"
         id="CA_San_Diego"
         inkscape:label="San Diego, CA" />
      <path
         style="font-size:12px;fill-opacity:1;fill-rule:nonzero;stroke:#ffffff;stroke-width:0.72731787;stroke-miterlimit:4;stroke-dasharray:none;fill:#7996e2"
         d="M 575.0725,814.59598 L 577.25312,816.29705 L 579.15176,818.65771 L 580.09548,819.98171 L 581.25354,820.09379 L 582.49289,821.10288 L 580.70794,824.1195 L 580.74754,824.80553 L 579.16988,827.64775 L 578.92104,827.19878 L 578.43255,826.64293 L 578.15888,826.40964 L 573.511,822.98483 L 569.79762,820.31783 L 568.89005,819.66009 L 569.1433,818.67682 L 569.81343,817.12948 L 571.3465,814.87733 L 572.20747,814.70405 L 572.43445,814.69383 L 575.0725,814.59598"
         id="CA_Orange"
         inkscape:label="Orange, CA" />
      <path
         style="font-size:12px;fill-opacity:1;fill-rule:nonzero;stroke:#ffffff;stroke-width:0.72731787;stroke-miterlimit:4;stroke-dasharray:none;fill:#584cde"
         d="M 564.73717,841.47689 L 563.31433,841.80135 L 562.12439,840.94091 L 561.95397,840.78339 L 561.14575,839.5152 L 560.08457,837.14576 L 560.62811,837.17839 L 564.44072,841.00495 L 564.7787,841.40734 L 564.73717,841.47689 M 559.63271,826.3198 L 559.53811,826.28311 L 559.47837,826.12406 L 559.48567,826.08822 L 559.57784,826.08789 L 560.63271,826.1524 L 561.95041,826.7318 L 563.01777,827.19968 L 563.83441,827.58251 L 565.16621,829.12407 L 565.28556,829.28778 L 565.43503,829.65429 L 565.40426,829.88288 L 565.18374,830.10603 L 565.16983,830.11732 L 565.01883,830.15795 L 562.45013,829.69482 L 562.26276,829.60025 L 559.63271,826.3198 M 576.59973,793.86788 L 576.80026,799.41386 L 577.05177,802.58112 L 577.32014,805.25803 L 577.45144,806.41086 L 576.94329,809.37203 L 576.36443,811.41262 L 576.13234,812.22259 L 574.98919,813.21558 L 574.67101,813.92257 L 574.68193,814.08911 L 574.86386,814.42238 L 575.0725,814.59598 L 572.43445,814.69383 L 572.20747,814.70405 L 571.3465,814.87733 L 569.81343,817.12948 L 569.1433,818.67682 L 568.89005,819.66009 L 567.53335,820.23037 L 566.04467,820.59703 L 565.29112,820.51168 L 564.90075,820.41148 L 563.34899,819.91388 L 563.05904,819.78101 L 562.70185,819.02037 L 562.79703,818.84223 L 563.13995,818.40916 L 563.34842,818.30222 L 563.39763,818.04419 L 563.36173,817.44189 L 562.94015,816.43496 L 562.71583,815.95115 L 562.5919,815.67944 L 562.33226,815.1204 L 561.95784,814.45665 L 561.51851,813.83863 L 561.48247,813.7956 L 561.43149,813.73211 L 561.41894,813.72044 L 561.11787,813.3853 L 561.06283,813.34174 L 560.85596,813.16767 L 560.7879,813.11068 L 560.72023,813.07615 L 560.32164,812.86141 L 559.8147,812.80387 L 557.90016,812.9104 L 556.42514,813.10391 L 555.69064,813.36934 L 552.55382,812.8802 L 552.62031,812.18256 L 554.21461,810.91379 L 555.50628,809.91286 L 557.83559,809.86419 L 558.46825,807.7997 L 558.36467,806.93882 L 553.38717,795.28375 L 553.13147,794.64833 L 576.59973,793.86788"
         id="CA_Los_Angeles"
         inkscape:label="Los Angeles, CA" />
      <path
         style="font-size:12px;fill-opacity:1;fill-rule:nonzero;stroke:#ffffff;stroke-width:0.72731787;stroke-miterlimit:4;stroke-dasharray:none;fill:#7996e2"
         d="M 542.6156,792.87958 L 543.76237,792.97775 L 545.78396,793.33199 L 546.18757,793.8523 L 546.43942,794.44544 L 551.57284,795.3219 L 553.38717,795.28375 L 558.36467,806.93882 L 558.46825,807.7997 L 557.83559,809.86419 L 555.50628,809.91286 L 554.21461,810.91379 L 552.62031,812.18256 L 552.55382,812.8802 L 549.56473,811.67345 L 545.55646,807.65852 L 543.041,805.75568 L 542.45673,805.31976 L 542.19884,805.27805 L 542.62429,804.7738 L 542.73939,804.59973 L 542.78846,803.3965 L 542.6156,792.87958"
         id="CA_Ventura"
         inkscape:label="Ventura, CA" />
      <path
         style="font-size:12px;fill-opacity:1;fill-rule:nonzero;stroke:#ffffff;stroke-width:0.72731787;stroke-miterlimit:4;stroke-dasharray:none;fill:#6674de"
         d="M 527.36776,814.33752 L 530.74759,813.71433 L 532.59202,814.66981 L 532.74505,815.43455 L 532.76927,815.58056 L 532.69687,815.62639 L 530.08142,816.66905 L 529.84114,816.74878 L 528.92376,816.20852 L 528.72478,816.00787 L 527.36776,814.33752 M 536.8888,812.88479 L 537.71816,813.18888 L 539.71871,813.30398 L 539.77153,813.24836 L 539.79664,813.22275 L 539.83792,813.18719 L 539.89952,813.12918 L 539.97922,813.04749 L 540.02927,813.00954 L 540.53642,812.90697 L 541.25645,813.18962 L 541.43343,813.34348 L 541.42876,813.35416 L 541.42599,813.37184 L 541.4122,813.39062 L 540.93096,814.03039 L 540.7954,814.21938 L 540.6737,814.27096 L 537.57875,815.16208 L 536.86151,815.18371 L 536.1349,815.10053 L 536.12788,815.10242 L 535.84946,815.04741 L 535.22516,814.93859 L 534.62998,814.70707 L 534.5537,814.58449 L 533.63655,812.62442 L 533.71998,812.43063 L 533.83957,812.43423 L 534.918,812.55831 L 536.8888,812.88479 M 519.55206,791.3782 L 522.45989,790.92532 L 523.57086,791.04442 L 524.76069,791.75049 L 525.93276,791.21482 L 526.94066,790.22999 L 530.31286,788.19287 L 530.76216,788.50506 L 532.06159,789.1986 L 535.95815,790.90871 L 540.82861,792.99134 L 541.69203,792.98121 L 542.03268,792.88956 L 542.6156,792.87958 L 542.78846,803.3965 L 542.73939,804.59973 L 542.62429,804.7738 L 542.19884,805.27805 L 540.55293,804.42354 L 539.43892,804.2582 L 538.38705,804.38681 L 538.11281,804.46625 L 538.07242,804.47712 L 536.9749,804.71593 L 534.50034,804.60973 L 533.50417,804.02855 L 531.90637,803.42284 L 531.31192,803.35494 L 529.78064,803.21336 L 528.53336,803.21757 L 527.10307,803.29735 L 525.49974,803.51787 L 523.57059,803.69612 L 520.36237,801.23402 L 520.02783,799.39588 L 519.58473,793.10926 L 519.55206,791.3782"
         id="CA_Santa_Barbara"
         inkscape:label="Santa Barbara, CA" />
      <path
         style="font-size:12px;fill-opacity:1;fill-rule:nonzero;stroke:#ffffff;stroke-width:0.72731787;stroke-miterlimit:4;stroke-dasharray:none;fill:#7996e2"
         d="M 506.30193,772.00131 L 527.6969,772.09506 L 528.07006,772.09633 L 528.11163,776.22578 L 530.83791,778.59724 L 534.11947,782.37461 L 535.49576,784.43145 L 537.6066,784.42462 L 540.38914,786.34033 L 541.97152,788.75032 L 542.03268,792.88956 L 541.69203,792.98121 L 540.82861,792.99134 L 535.95815,790.90871 L 532.06159,789.1986 L 530.76216,788.50506 L 530.31286,788.19287 L 526.94066,790.22999 L 525.93276,791.21482 L 524.76069,791.75049 L 523.57086,791.04442 L 522.45989,790.92532 L 519.55206,791.3782 L 519.7049,790.74959 L 519.71908,790.70435 L 519.83346,789.99572 L 519.89954,789.32454 L 519.90776,788.92125 L 519.88697,788.52201 L 519.88191,788.41229 L 519.87936,788.36777 L 519.7824,787.85345 L 519.77578,787.82887 L 519.62356,787.48007 L 519.48643,787.28535 L 519.27509,787.15769 L 518.57609,786.7432 L 518.4777,786.69248 L 518.29038,786.62614 L 515.45124,782.60355 L 510.91689,777.83012 L 508.09169,775.28002 L 507.69574,775.0401 L 507.45536,774.86753 L 506.89892,773.94019 L 506.30193,772.00131"
         id="CA_San_Luis_Obispo"
         inkscape:label="San Luis Obispo, CA" />
      <path
         style="font-size:12px;fill-opacity:1;fill-rule:nonzero;stroke:#ffffff;stroke-width:0.72731787;stroke-miterlimit:4;stroke-dasharray:none;fill:#e27f7f"
         d="M 540.46937,771.94232 L 549.62805,771.76019 L 559.99667,771.53309 L 568.2398,771.25836 L 569.36708,771.27704 L 576.44001,770.85208 L 576.20887,772.92528 L 576.20936,773.61996 L 576.68997,776.35088 L 577.27389,793.85407 L 576.59973,793.86788 L 553.13147,794.64833 L 553.38717,795.28375 L 551.57284,795.3219 L 546.43942,794.44544 L 546.18757,793.8523 L 545.78396,793.33199 L 543.76237,792.97775 L 542.6156,792.87958 L 542.03268,792.88956 L 541.97152,788.75032 L 540.38914,786.34033 L 537.6066,784.42462 L 535.49576,784.43145 L 534.11947,782.37461 L 530.83791,778.59724 L 528.11163,776.22578 L 528.07006,772.09633 L 540.46937,771.94232"
         id="CA_Kern"
         inkscape:label="Kern, CA" />
      <path
         style="font-size:12px;fill-opacity:1;fill-rule:nonzero;stroke:#ffffff;stroke-width:0.72731787;stroke-miterlimit:4;stroke-dasharray:none;fill:#7996e2"
         d="M 576.44001,770.85208 L 581.30271,770.72244 L 612.24839,769.31972 L 613.90928,768.86528 L 619.00777,773.34196 L 620.76187,774.87158 L 621.41284,775.43643 L 630.82779,783.67375 L 634.29517,786.69314 L 634.40376,789.36409 L 634.45718,789.68865 L 634.50511,789.80379 L 636.2007,792.13059 L 637.99159,793.76894 L 638.3,794.66321 L 640.79411,799.27197 L 642.32221,800.34647 L 643.62973,801.19599 L 644.91022,802.48398 L 645.11112,803.48251 L 645.07922,803.52498 L 643.07383,805.53328 L 641.65094,806.62036 L 639.55789,808.14195 L 626.24636,809.00649 L 623.82498,809.53183 L 622.64047,810.30811 L 612.82021,810.83772 L 598.73553,811.60713 L 593.91965,812.03675 L 591.53044,812.58358 L 585.80981,812.83484 L 583.14567,812.58383 L 582.8856,812.24709 L 582.12784,812.27209 L 579.34843,812.38349 L 577.56976,815.01052 L 577.25312,816.29705 L 575.0725,814.59598 L 574.86386,814.42238 L 574.68193,814.08911 L 574.67101,813.92257 L 574.98919,813.21558 L 576.13234,812.22259 L 576.36443,811.41262 L 576.94329,809.37203 L 577.45144,806.41086 L 577.32014,805.25803 L 577.05177,802.58112 L 576.80026,799.41386 L 576.59973,793.86788 L 577.27389,793.85407 L 576.68997,776.35088 L 576.20936,773.61996 L 576.20887,772.92528 L 576.44001,770.85208"
         id="CA_San_Bernardino"
         inkscape:label="San Bernardino, CA" />
      <path
         style="font-size:12px;fill-opacity:1;fill-rule:nonzero;stroke:#ffffff;stroke-width:0.72731787;stroke-miterlimit:4;stroke-dasharray:none;fill:#e27f7f"
         d="M 553.96352,732.1398 L 571.37149,731.60785 L 584.15077,742.82452 L 584.62572,743.23901 L 587.33944,745.59879 L 588.93401,747.01129 L 597.31528,754.34611 L 604.11474,760.31586 L 604.99116,761.08179 L 608.63544,764.27576 L 608.92214,764.52248 L 613.90928,768.86528 L 612.24839,769.31972 L 581.30271,770.72244 L 576.44001,770.85208 L 569.36708,771.27704 L 569.72275,769.1628 L 569.73764,768.02149 L 569.25611,766.54676 L 566.7681,759.31529 L 563.42911,752.17531 L 562.09348,748.91187 L 562.00794,746.54352 L 561.82932,745.28481 L 561.55136,744.44071 L 560.51121,741.74362 L 560.15505,741.33669 L 558.42956,740.2494 L 558.07165,740.31181 L 556.444,739.71412 L 556.37317,739.6748 L 556.13415,739.38135 L 554.0484,735.16359 L 553.7259,733.776 L 553.96352,732.1398"
         id="CA_Inyo"
         inkscape:label="Inyo, CA" />
      <path
         style="font-size:12px;fill-opacity:1;fill-rule:nonzero;stroke:#ffffff;stroke-width:0.72731787;stroke-miterlimit:4;stroke-dasharray:none;fill:#e27f7f"
         d="M 562.09348,748.91187 L 563.42911,752.17531 L 566.7681,759.31529 L 569.25611,766.54676 L 569.73764,768.02149 L 569.72275,769.1628 L 569.36708,771.27704 L 568.2398,771.25836 L 559.99667,771.53309 L 549.62805,771.76019 L 540.46937,771.94232 L 540.37677,764.11716 L 540.46006,760.92761 L 540.99569,760.6159 L 541.48326,760.60147 L 541.43377,757.48529 L 540.39481,755.42243 L 539.55831,755.43473 L 541.53092,753.36748 L 544.51442,751.29937 L 546.93976,751.29265 L 550.48677,751.26281 L 550.49389,749.26684 L 558.76457,749.00354 L 562.09348,748.91187"
         id="CA_Tulare"
         inkscape:label="Tulare, CA" />
      <path
         style="font-size:12px;fill-opacity:1;fill-rule:nonzero;stroke:#ffffff;stroke-width:0.72731787;stroke-miterlimit:4;stroke-dasharray:none;fill:#e27f7f"
         d="M 539.55831,755.43473 L 540.39481,755.42243 L 541.43377,757.48529 L 541.48326,760.60147 L 540.99569,760.6159 L 540.46006,760.92761 L 540.37677,764.11716 L 540.46937,771.94232 L 528.07006,772.09633 L 527.6969,772.09506 L 525.77205,769.32907 L 532.41375,762.78756 L 532.3362,757.60767 L 535.21353,757.54524 L 537.83165,757.12136 L 539.55831,755.43473"
         id="CA_Kings"
         inkscape:label="Kings, CA" />
      <path
         style="font-size:12px;fill-opacity:1;fill-rule:nonzero;stroke:#ffffff;stroke-width:0.72731787;stroke-miterlimit:4;stroke-dasharray:none;fill:#d75d5d"
         d="M 544.72231,725.80083 L 546.1316,725.80389 L 547.33719,725.86175 L 547.66015,726.08931 L 548.50008,727.03452 L 549.34175,729.33687 L 544.7312,734.22471 L 544.08652,734.94988 L 543.84254,735.36574 L 543.74123,735.84303 L 543.86236,736.89503 L 543.95143,737.28908 L 543.95295,737.44871 L 543.81722,738.39284 L 543.63213,738.74768 L 543.253,739.32607 L 542.79428,739.76961 L 540.17754,740.29668 L 539.45992,740.61781 L 537.06188,743.1893 L 536.42421,743.91259 L 536.28353,744.1105 L 535.41313,745.83035 L 535.24705,746.40978 L 534.91485,746.97368 L 534.85637,747.00825 L 527.1839,748.80901 L 526.04526,748.89508 L 524.52205,748.21658 L 523.54313,747.2937 L 523.24525,746.9144 L 523.08269,746.6531 L 522.90513,746.2452 L 521.36049,742.49192 L 522.57022,741.24943 L 525.91064,739.97593 L 528.68996,739.61224 L 530.44053,739.14122 L 535.74958,733.55328 L 537.79088,733.5049 L 538.98651,731.67118 L 538.99463,730.12685 L 543.97139,724.89947 L 544.72231,725.80083"
         id="CA_Madera"
         inkscape:label="Madera, CA" />
      <path
         style="font-size:12px;fill-opacity:1;fill-rule:nonzero;stroke:#ffffff;stroke-width:0.72731787;stroke-miterlimit:4;stroke-dasharray:none;fill:#e27f7f"
         d="M 553.96352,732.1398 L 553.7259,733.776 L 554.0484,735.16359 L 556.13415,739.38135 L 556.37317,739.6748 L 556.444,739.71412 L 558.07165,740.31181 L 558.42956,740.2494 L 560.15505,741.33669 L 560.51121,741.74362 L 561.55136,744.44071 L 561.82932,745.28481 L 562.00794,746.54352 L 562.09348,748.91187 L 558.76457,749.00354 L 550.49389,749.26684 L 550.48677,751.26281 L 546.93976,751.29265 L 544.51442,751.29937 L 541.53092,753.36748 L 539.55831,755.43473 L 537.83165,757.12136 L 535.21353,757.54524 L 532.3362,757.60767 L 532.41375,762.78756 L 525.77205,769.32907 L 521.00693,765.90944 L 519.4597,764.60284 L 519.03674,763.34584 L 518.88371,760.85254 L 519.52273,759.63745 L 520.27157,755.63237 L 514.36925,749.68675 L 521.36049,742.49192 L 522.90513,746.2452 L 523.08269,746.6531 L 523.24525,746.9144 L 523.54313,747.2937 L 524.52205,748.21658 L 526.04526,748.89508 L 527.1839,748.80901 L 534.85637,747.00825 L 534.91485,746.97368 L 535.24705,746.40978 L 535.41313,745.83035 L 536.28353,744.1105 L 536.42421,743.91259 L 537.06188,743.1893 L 539.45992,740.61781 L 540.17754,740.29668 L 542.79428,739.76961 L 543.253,739.32607 L 543.63213,738.74768 L 543.81722,738.39284 L 543.95295,737.44871 L 543.95143,737.28908 L 543.86236,736.89503 L 543.74123,735.84303 L 543.84254,735.36574 L 544.08652,734.94988 L 544.7312,734.22471 L 549.34175,729.33687 L 553.96352,732.1398"
         id="CA_Fresno"
         inkscape:label="Fresno, CA" />
      <path
         style="font-size:12px;fill-opacity:1;fill-rule:nonzero;stroke:#ffffff;stroke-width:0.72731787;stroke-miterlimit:4;stroke-dasharray:none;fill:#6674de"
         d="M 500.86238,746.0113 L 500.88958,746.49732 L 501.25976,747.14526 L 503.36812,749.1727 L 505.82115,751.70429 L 508.4094,755.3613 L 512.08515,759.52595 L 513.52425,760.5566 L 517.61228,762.46753 L 518.1444,762.5277 L 518.23908,762.4947 L 518.35126,762.37979 L 518.88371,760.85254 L 519.03674,763.34584 L 519.4597,764.60284 L 521.00693,765.90944 L 525.77205,769.32907 L 527.6969,772.09506 L 506.30193,772.00131 L 505.51943,771.33251 L 504.12091,769.85786 L 503.92669,769.01005 L 503.84086,768.60007 L 503.68329,767.8535 L 503.4049,767.23171 L 503.36358,767.14115 L 500.05813,763.21202 L 499.3695,762.5142 L 498.19569,761.74168 L 497.87968,761.58192 L 497.87266,761.58381 L 497.69046,761.60647 L 497.56282,761.57302 L 497.32994,761.40032 L 497.15318,761.18427 L 496.4321,760.27486 L 496.17392,759.94513 L 496.06221,759.59296 L 495.09158,753.67612 L 496.2366,752.886 L 496.27901,752.88966 L 496.5671,752.81966 L 496.76107,752.6658 L 497.11135,752.22509 L 497.30535,751.87537 L 497.43823,751.58542 L 497.63996,750.97756 L 497.79094,750.244 L 498.15492,748.12564 L 498.10032,747.85977 L 497.77691,747.06368 L 497.75302,747.00986 L 500.86238,746.0113"
         id="CA_Monterey"
         inkscape:label="Monterey, CA" />
      <path
         style="font-size:12px;fill-opacity:1;fill-rule:nonzero;stroke:#ffffff;stroke-width:0.72731787;stroke-miterlimit:4;stroke-dasharray:none;fill:#7996e2"
         d="M 500.86238,746.0113 L 502.02736,745.8692 L 503.36553,744.55825 L 505.07127,744.46647 L 508.84639,744.46564 L 508.58497,744.9427 L 508.5058,745.15229 L 508.4924,745.29147 L 508.6992,745.58417 L 510.21598,747.40737 L 514.09046,749.41341 L 514.36925,749.68675 L 520.27157,755.63237 L 519.52273,759.63745 L 518.88371,760.85254 L 518.35126,762.37979 L 518.23908,762.4947 L 518.1444,762.5277 L 517.61228,762.46753 L 513.52425,760.5566 L 512.08515,759.52595 L 508.4094,755.3613 L 505.82115,751.70429 L 503.36812,749.1727 L 501.25976,747.14526 L 500.88958,746.49732 L 500.86238,746.0113"
         id="CA_San_Benito"
         inkscape:label="San Benito, CA" />
      <path
         style="font-size:12px;fill-opacity:1;fill-rule:nonzero;stroke:#ffffff;stroke-width:0.72731787;stroke-miterlimit:4;stroke-dasharray:none;fill:#7996e2"
         d="M 524.14435,728.55461 L 526.17251,732.68431 L 526.25524,733.01982 L 526.25646,733.08727 L 526.1987,733.18754 L 528.07465,737.2904 L 528.71805,737.82717 L 530.44053,739.14122 L 528.68996,739.61224 L 525.91064,739.97593 L 522.57022,741.24943 L 521.36049,742.49192 L 514.36925,749.68675 L 514.09046,749.41341 L 510.21598,747.40737 L 508.6992,745.58417 L 508.4924,745.29147 L 508.5058,745.15229 L 508.58497,744.9427 L 508.84639,744.46564 L 508.5343,744.27846 L 508.31878,744.01634 L 508.2685,743.89242 L 508.28275,742.93769 L 508.67873,742.61084 L 508.89365,741.92598 L 508.81815,740.63765 L 508.64302,740.36466 L 513.51525,735.38569 L 513.34702,734.63447 L 513.18518,734.43889 L 513.03049,734.39577 L 515.39823,732.94337 L 524.14435,728.55461"
         id="CA_Merced"
         inkscape:label="Merced, CA" />
      <path
         style="font-size:12px;fill-opacity:1;fill-rule:nonzero;stroke:#ffffff;stroke-width:0.72731787;stroke-miterlimit:4;stroke-dasharray:none;fill:#584cde"
         d="M 491.51216,736.65692 L 491.5727,736.90989 L 491.64535,737.02592 L 492.38999,737.89697 L 493.81989,739.52324 L 494.445,740.04797 L 495.94283,740.78604 L 496.84782,741.12624 L 498.81004,742.33062 L 501.86295,745.25817 L 502.03573,745.42445 L 502.02736,745.8692 L 500.86238,746.0113 L 497.75302,747.00986 L 497.43479,746.331 L 496.80444,745.09403 L 496.47423,744.65753 L 496.21064,744.37068 L 495.99498,744.19899 L 495.55303,743.97709 L 495.3763,743.9851 L 494.54487,744.42912 L 493.74213,744.6018 L 493.3179,744.65569 L 493.01232,744.6607 L 492.84931,744.62172 L 492.78414,744.60348 L 492.49479,744.52881 L 492.27317,744.46793 L 491.37464,743.87177 L 490.42974,743.07531 L 489.58823,741.99119 L 488.81351,740.81943 L 488.51287,739.89106 L 488.41591,738.95684 L 489.81941,738.31559 L 491.4776,738.32699 L 491.51433,737.98759 L 491.51216,736.65692"
         id="CA_Santa_Cruz"
         inkscape:label="Santa Cruz, CA" />
      <path
         style="font-size:12px;fill-opacity:1;fill-rule:nonzero;stroke:#ffffff;stroke-width:0.72731787;stroke-miterlimit:4;stroke-dasharray:none;fill:#584cde"
         d="M 487.22524,726.62369 L 487.19599,726.64097 L 487.43144,729.0556 L 487.76641,729.36279 L 491.27891,731.5001 L 491.51086,731.57138 L 492.02982,731.61063 L 492.3315,731.43719 L 492.33415,731.41201 L 492.87819,732.13932 L 491.51216,736.65692 L 491.51433,737.98759 L 491.4776,738.32699 L 489.81941,738.31559 L 488.41591,738.95684 L 488.51287,739.89106 L 488.81351,740.81943 L 488.60939,740.62769 L 487.91347,739.96571 L 486.93782,738.92899 L 486.79881,738.72725 L 486.55006,737.64182 L 485.26346,731.69135 L 485.16479,729.1552 L 485.18963,726.59522 L 487.22524,726.62369"
         id="CA_San_Mateo"
         inkscape:label="San Mateo, CA" />
      <path
         style="font-size:12px;fill-opacity:1;fill-rule:nonzero;stroke:#ffffff;stroke-width:0.72731787;stroke-miterlimit:4;stroke-dasharray:none;fill:#3933e5"
         d="M 488.74528,722.20964 L 489.53265,722.01473 L 489.64211,722.04365 L 490.37443,722.64498 L 490.99867,723.61433 L 491.21286,724.12348 L 495.16272,726.47264 L 501.37743,724.6216 L 502.62094,724.1345 L 502.60004,726.89113 L 502.5794,730.69839 L 502.77857,730.93477 L 504.14019,732.14633 L 504.11967,732.13302 L 497.0487,732.02645 L 496.82788,732.05951 L 496.68166,732.24384 L 496.56346,732.34341 L 495.96841,732.58826 L 495.6415,732.63291 L 493.27143,732.47413 L 492.87819,732.13932 L 492.33415,731.41201 L 491.28082,727.43427 L 488.84213,723.82929 L 488.74528,722.20964"
         id="CA_Alameda"
         inkscape:label="Alameda, CA" />
      <path
         style="font-size:12px;fill-opacity:1;fill-rule:nonzero;stroke:#ffffff;stroke-width:0.72731787;stroke-miterlimit:4;stroke-dasharray:none;fill:#584cde"
         d="M 492.87819,732.13932 L 493.27143,732.47413 L 495.6415,732.63291 L 495.96841,732.58826 L 496.56346,732.34341 L 496.68166,732.24384 L 496.82788,732.05951 L 497.0487,732.02645 L 504.11967,732.13302 L 503.87248,732.32004 L 504.12162,733.52589 L 506.18762,739.1819 L 508.64302,740.36466 L 508.81815,740.63765 L 508.89365,741.92598 L 508.67873,742.61084 L 508.28275,742.93769 L 508.2685,743.89242 L 508.31878,744.01634 L 508.5343,744.27846 L 508.84639,744.46564 L 505.07127,744.46647 L 503.36553,744.55825 L 502.02736,745.8692 L 502.03573,745.42445 L 501.86295,745.25817 L 498.81004,742.33062 L 496.84782,741.12624 L 495.94283,740.78604 L 494.445,740.04797 L 493.81989,739.52324 L 492.38999,737.89697 L 491.64535,737.02592 L 491.5727,736.90989 L 491.51216,736.65692 L 492.87819,732.13932"
         id="CA_Santa_Clara"
         inkscape:label="Santa Clara, CA" />
      <path
         style="font-size:12px;fill-opacity:1;fill-rule:nonzero;stroke:#ffffff;stroke-width:0.72731787;stroke-miterlimit:4;stroke-dasharray:none;fill:#e27f7f"
         d="M 514.20883,718.08859 L 519.21992,723.87107 L 524.15077,728.54347 L 524.14435,728.55461 L 515.39823,732.94337 L 513.03049,734.39577 L 513.18518,734.43889 L 513.34702,734.63447 L 513.51525,735.38569 L 508.64302,740.36466 L 506.18762,739.1819 L 504.12162,733.52589 L 503.87248,732.32004 L 504.11967,732.13302 L 504.14019,732.14633 L 508.06072,728.13708 L 508.742,727.387 L 509.05369,727.13179 L 510.91444,726.06248 L 511.3999,726.1032 L 512.32461,726.04081 L 513.37113,725.88538 L 514.27537,725.36906 L 514.20908,722.59634 L 514.20883,718.08859"
         id="CA_Stanislaus"
         inkscape:label="Stanislaus, CA" />
      <path
         style="font-size:12px;fill-opacity:1;fill-rule:nonzero;stroke:#ffffff;stroke-width:0.72731787;stroke-miterlimit:4;stroke-dasharray:none;fill:#d75d5d"
         d="M 524.15077,728.54347 L 523.99821,727.63362 L 524.0897,727.37176 L 524.92534,726.34854 L 529.78037,723.88797 L 530.16824,723.97189 L 532.08948,725.17787 L 532.27604,725.37434 L 532.39853,725.4167 L 532.97164,725.52423 L 534.72936,725.52769 L 535.28935,725.36949 L 537.37508,724.45051 L 537.61059,724.2271 L 538.81031,722.59753 L 539.77721,722.08316 L 541.76842,722.83535 L 543.15728,723.77031 L 543.97139,724.89947 L 538.99463,730.12685 L 538.98651,731.67118 L 537.79088,733.5049 L 535.74958,733.55328 L 530.44053,739.14122 L 528.71805,737.82717 L 528.07465,737.2904 L 526.1987,733.18754 L 526.25646,733.08727 L 526.25524,733.01982 L 526.17251,732.68431 L 524.14435,728.55461 L 524.15077,728.54347"
         id="CA_Mariposa"
         inkscape:label="Mariposa, CA" />
      <path
         style="font-size:12px;fill-opacity:1;fill-rule:nonzero;stroke:#ffffff;stroke-width:0.72731787;stroke-miterlimit:4;stroke-dasharray:none;fill:#d75d5d"
         d="M 537.71364,712.02038 L 537.60996,712.1669 L 537.5981,712.8856 L 537.87302,715.04107 L 538.9108,716.00083 L 539.55357,716.30426 L 540.03672,716.46237 L 540.88985,716.66589 L 541.63825,716.95598 L 542.16534,717.17945 L 543.041,717.65561 L 543.81859,718.59311 L 545.8119,722.3763 L 545.73181,724.53501 L 544.98309,725.51037 L 544.72231,725.80083 L 543.97139,724.89947 L 543.15728,723.77031 L 541.76842,722.83535 L 539.77721,722.08316 L 538.81031,722.59753 L 537.61059,724.2271 L 537.37508,724.45051 L 535.28935,725.36949 L 534.72936,725.52769 L 532.97164,725.52423 L 532.39853,725.4167 L 532.27604,725.37434 L 532.08948,725.17787 L 530.16824,723.97189 L 529.78037,723.88797 L 524.92534,726.34854 L 524.0897,727.37176 L 523.99821,727.63362 L 524.15077,728.54347 L 519.21992,723.87107 L 521.76253,720.99706 L 522.72353,719.36205 L 524.29653,716.5305 L 525.85753,714.03922 L 527.88997,711.02569 L 528.26453,710.71025 L 528.64091,710.47151 L 530.7361,709.58767 L 533.26158,711.31082 L 533.48871,711.11225 L 534.72107,710.29675 L 535.66167,709.91561 L 536.39296,709.89021 L 536.49322,709.94795 L 536.59897,710.08897 L 537.71364,712.02038"
         id="CA_Tuolumne"
         inkscape:label="Tuolumne, CA" />
      <path
         style="font-size:12px;fill-opacity:1;fill-rule:nonzero;stroke:#ffffff;stroke-width:0.72731787;stroke-miterlimit:4;stroke-dasharray:none;fill:#7996e2"
         d="M 538.56296,702.87413 L 543.30184,707.022 L 546.48428,709.79419 L 560.06786,721.73968 L 571.37149,731.60785 L 553.96352,732.1398 L 549.34175,729.33687 L 548.50008,727.03452 L 547.66015,726.08931 L 547.33719,725.86175 L 546.1316,725.80389 L 544.72231,725.80083 L 544.98309,725.51037 L 545.73181,724.53501 L 545.8119,722.3763 L 543.81859,718.59311 L 543.041,717.65561 L 542.16534,717.17945 L 541.63825,716.95598 L 540.88985,716.66589 L 540.03672,716.46237 L 539.55357,716.30426 L 538.9108,716.00083 L 537.87302,715.04107 L 537.5981,712.8856 L 537.60996,712.1669 L 537.71364,712.02038 L 539.09197,710.01886 L 539.40711,707.908 L 537.98701,705.47131 L 537.94969,705.23468 L 538.07698,704.06312 L 538.56296,702.87413"
         id="CA_Mono"
         inkscape:label="Mono, CA" />
      <path
         style="font-size:12px;fill-opacity:1;fill-rule:nonzero;stroke:#ffffff;stroke-width:0.72731787;stroke-miterlimit:4;stroke-dasharray:none;fill:#6674de"
         d="M 532.71,697.74184 L 538.56296,702.87413 L 538.07698,704.06312 L 537.94969,705.23468 L 537.98701,705.47131 L 539.40711,707.908 L 539.09197,710.01886 L 537.71364,712.02038 L 536.59897,710.08897 L 536.49322,709.94795 L 536.39296,709.89021 L 535.66167,709.91561 L 534.72107,710.29675 L 533.48871,711.11225 L 533.26158,711.31082 L 530.7361,709.58767 L 529.76004,707.78658 L 529.71165,703.22588 L 531.73417,701.43516 L 532.08282,701.00242 L 533.16059,699.36047 L 533.212,699.20164 L 533.16179,698.53917 L 533.02004,698.11033 L 532.71,697.74184"
         id="CA_Alpine"
         inkscape:label="Alpine, CA" />
      <path
         style="font-size:12px;fill-opacity:1;fill-rule:nonzero;stroke:#ffffff;stroke-width:0.72731787;stroke-miterlimit:4;stroke-dasharray:none;fill:#d75d5d"
         d="M 530.7361,709.58767 L 528.64091,710.47151 L 528.26453,710.71025 L 527.88997,711.02569 L 525.85753,714.03922 L 524.29653,716.5305 L 522.72353,719.36205 L 521.76253,720.99706 L 519.21992,723.87107 L 514.20883,718.08859 L 512.94434,714.5857 L 513.09835,714.68924 L 513.35597,714.76492 L 514.81321,714.68728 L 518.6434,712.23884 L 521.43408,709.99289 L 522.14277,709.34465 L 522.92236,709.18386 L 529.76004,707.78658 L 530.7361,709.58767"
         id="CA_Calaveras"
         inkscape:label="Calaveras, CA" />
      <path
         style="font-size:12px;fill-opacity:1;fill-rule:nonzero;stroke:#ffffff;stroke-width:0.72731787;stroke-miterlimit:4;stroke-dasharray:none;fill:#d75d5d"
         d="M 529.71165,703.22588 L 529.76004,707.78658 L 522.92236,709.18386 L 522.14277,709.34465 L 521.43408,709.99289 L 518.6434,712.23884 L 514.81321,714.68728 L 513.35597,714.76492 L 513.09835,714.68924 L 512.94434,714.5857 L 512.38323,712.87819 L 512.3611,707.91124 L 514.05033,707.66008 L 519.6437,708.0136 L 520.48194,708.00082 L 521.77788,707.80654 L 525.28772,707.02974 L 526.22719,706.60939 L 529.71165,703.22588"
         id="CA_Amador"
         inkscape:label="Amador, CA" />
      <path
         style="font-size:12px;fill-opacity:1;fill-rule:nonzero;stroke:#ffffff;stroke-width:0.72731787;stroke-miterlimit:4;stroke-dasharray:none;fill:#7996e2"
         d="M 512.94434,714.5857 L 514.20883,718.08859 L 514.20908,722.59634 L 514.27537,725.36906 L 513.37113,725.88538 L 512.32461,726.04081 L 511.3999,726.1032 L 510.91444,726.06248 L 509.05369,727.13179 L 508.742,727.387 L 508.06072,728.13708 L 504.14019,732.14633 L 502.77857,730.93477 L 502.5794,730.69839 L 502.60004,726.89113 L 502.62094,724.1345 L 502.21196,717.65981 L 502.71139,716.45779 L 504.07622,713.92327 L 504.47832,713.81508 L 504.82231,713.86188 L 505.16657,714.29459 L 505.57631,714.51574 L 506.48681,714.4986 L 509.71927,714.02051 L 509.83441,713.97259 L 510.94006,713.22507 L 512.38323,712.87819 L 512.94434,714.5857"
         id="CA_San_Joaquin"
         inkscape:label="San Joaquin, CA" />
      <path
         style="font-size:12px;fill-opacity:1;fill-rule:nonzero;stroke:#ffffff;stroke-width:0.72731787;stroke-miterlimit:4;stroke-dasharray:none;fill:#6674de"
         d="M 489.63661,718.32815 L 491.41315,718.84248 L 492.35958,718.86085 L 496.33852,718.76376 L 496.59845,718.72207 L 496.82422,718.64438 L 496.95613,718.49778 L 497.05157,718.28569 L 497.68338,719.18522 L 497.89857,719.35516 L 498.39194,719.41823 L 498.60088,719.41098 L 499.29342,719.24159 L 500.01045,718.81329 L 500.35923,718.43699 L 500.40322,718.25758 L 500.36687,717.92654 L 500.41511,717.76293 L 500.52452,717.6657 L 500.72118,717.61279 L 501.77594,717.52293 L 502.13641,717.60294 L 502.21196,717.65981 L 502.62094,724.1345 L 501.37743,724.6216 L 495.16272,726.47264 L 491.21286,724.12348 L 490.99867,723.61433 L 490.37443,722.64498 L 489.64211,722.04365 L 489.53265,722.01473 L 488.74528,722.20964 L 487.93159,721.89381 L 486.88368,720.58844 L 488.99887,719.49207 L 489.32388,719.21634 L 489.70514,718.70892 L 489.71193,718.54515 L 489.63661,718.32815"
         id="CA_Contra_Costa"
         inkscape:label="Contra Costa, CA" />
      <path
         style="font-size:12px;fill-opacity:1;fill-rule:nonzero;stroke:#ffffff;stroke-width:0.72731787;stroke-miterlimit:4;stroke-dasharray:none;fill:#e27f7f"
         d="M 530.90131,694.58873 L 532.71,697.74184 L 533.02004,698.11033 L 533.16179,698.53917 L 533.212,699.20164 L 533.16059,699.36047 L 532.08282,701.00242 L 531.73417,701.43516 L 529.71165,703.22588 L 526.22719,706.60939 L 525.28772,707.02974 L 521.77788,707.80654 L 520.48194,708.00082 L 519.6437,708.0136 L 514.05033,707.66008 L 512.3611,707.91124 L 510.29976,703.08437 L 511.76545,699.92392 L 511.96531,698.74225 L 512.25441,698.33306 L 513.9782,697.30061 L 516.25647,696.27146 L 517.02762,696.10728 L 517.15977,696.12257 L 517.63584,696.25433 L 518.33356,696.67103 L 518.64927,697.06057 L 518.85797,697.26238 L 519.17809,697.47942 L 520.50157,698.23426 L 520.75026,698.3048 L 520.89248,698.26653 L 521.69581,697.87904 L 522.0649,697.57825 L 522.78832,696.54381 L 526.60165,695.6703 L 527.62213,695.48798 L 527.96244,695.30416 L 528.17991,695.13267 L 528.17834,694.84688 L 528.34767,694.62243 L 530.90131,694.58873"
         id="CA_El_Dorado"
         inkscape:label="El Dorado, CA" />
      <path
         style="font-size:12px;fill-opacity:1;fill-rule:nonzero;stroke:#ffffff;stroke-width:0.72731787;stroke-miterlimit:4;stroke-dasharray:none;fill:#7996e2"
         d="M 504.0655,702.53235 L 510.29976,703.08437 L 512.3611,707.91124 L 512.38323,712.87819 L 510.94006,713.22507 L 509.83441,713.97259 L 509.71927,714.02051 L 506.48681,714.4986 L 505.57631,714.51574 L 505.16657,714.29459 L 504.82231,713.86188 L 504.47832,713.81508 L 504.07622,713.92327 L 502.71139,716.45779 L 502.21196,717.65981 L 502.13641,717.60294 L 501.77594,717.52293 L 500.72118,717.61279 L 500.52452,717.6657 L 500.41511,717.76293 L 500.36687,717.92654 L 500.40322,718.25758 L 500.35923,718.43699 L 500.01045,718.81329 L 499.29342,719.24159 L 498.60088,719.41098 L 498.39194,719.41823 L 497.89857,719.35516 L 497.68338,719.18522 L 497.05157,718.28569 L 498.19719,718.44254 L 499.83617,717.82267 L 501.23746,715.30469 L 502.03172,712.48309 L 503.05242,711.67182 L 503.33953,711.37426 L 503.72261,709.36186 L 503.64851,706.02824 L 503.60977,705.78634 L 503.55733,705.68936 L 502.58565,704.70239 L 501.91496,702.48961 L 504.0655,702.53235"
         id="CA_Sacramento"
         inkscape:label="Sacramento, CA" />
      <path
         style="font-size:12px;fill-opacity:1;fill-rule:nonzero;stroke:#ffffff;stroke-width:0.72731787;stroke-miterlimit:4;stroke-dasharray:none;fill:#6674de"
         d="M 487.10236,716.04061 L 490.97532,716.10948 L 490.9973,715.88326 L 490.93127,715.79182 L 490.8657,715.80005 L 490.73497,715.69211 L 490.62215,715.52475 L 490.61665,715.31535 L 490.83469,712.31172 L 493.41366,712.3371 L 493.44213,712.12798 L 493.41331,711.92295 L 493.32748,711.51295 L 493.26067,711.32758 L 493.04322,710.83437 L 492.34006,709.76764 L 492.31732,709.65512 L 492.30876,709.49738 L 492.70327,707.77941 L 492.76508,707.65922 L 493.5999,707.57771 L 499.91258,707.16148 L 500.17645,707.41435 L 500.19535,707.48458 L 500.22302,708.3433 L 500.17473,712.45363 L 502.03172,712.48309 L 501.23746,715.30469 L 499.83617,717.82267 L 498.19719,718.44254 L 497.05157,718.28569 L 496.95613,718.49778 L 496.82422,718.64438 L 496.59845,718.72207 L 496.33852,718.76376 L 492.35958,718.86085 L 491.41315,718.84248 L 489.63661,718.32815 L 487.16986,716.16555 L 487.10236,716.04061"
         id="CA_Solano"
         inkscape:label="Solano, CA" />
      <path
         style="font-size:12px;fill-opacity:1;fill-rule:nonzero;stroke:#ffffff;stroke-width:0.72731787;stroke-miterlimit:4;stroke-dasharray:none;fill:#3933e5"
         d="M 487.22524,726.62369 L 485.18963,726.59522 L 485.18538,726.57941 L 485.11419,726.22386 L 484.98994,724.8733 L 485.16372,724.70039 L 485.93544,724.3214 L 486.62947,724.1855 L 486.97603,724.17888 L 487.14268,724.32233 L 487.37128,724.67508 L 487.63322,726.05447 L 487.61924,726.40847 L 487.22524,726.62369"
         id="CA_San_Francisco"
         inkscape:label="San Franciso, CA" />
      <path
         style="font-size:12px;fill-opacity:1;fill-rule:nonzero;stroke:#ffffff;stroke-width:0.72731787;stroke-miterlimit:4;stroke-dasharray:none;fill:#584cde"
         d="M 476.2485,712.51185 L 476.43247,712.34183 L 477.87424,711.98969 L 478.02638,711.9883 L 482.96889,715.43739 L 485.55096,717.11895 L 485.36201,718.93601 L 485.26515,721.19338 L 485.26323,721.3822 L 485.4332,721.53794 L 485.8242,721.82251 L 486.2483,722.22999 L 486.41768,722.45367 L 486.42957,722.5258 L 485.65932,723.82704 L 485.17762,723.89828 L 484.84376,723.82617 L 484.59433,723.68993 L 477.29351,718.78904 L 476.89224,713.60965 L 476.72489,713.20464 L 476.37104,712.68034 L 476.2485,712.51185"
         id="CA_Marin"
         inkscape:label="Marin, CA" />
      <path
         style="font-size:12px;fill-opacity:1;fill-rule:nonzero;stroke:#ffffff;stroke-width:0.72731787;stroke-miterlimit:4;stroke-dasharray:none;fill:#6674de"
         d="M 487.57158,699.29533 L 489.50716,699.89677 L 491.62165,704.29134 L 492.17858,705.5424 L 492.32883,706.00285 L 492.76508,707.65922 L 492.70327,707.77941 L 492.30876,709.49738 L 492.31732,709.65512 L 492.34006,709.76764 L 493.04322,710.83437 L 493.26067,711.32758 L 493.32748,711.51295 L 493.41331,711.92295 L 493.44213,712.12798 L 493.41366,712.3371 L 490.83469,712.31172 L 490.61665,715.31535 L 490.62215,715.52475 L 490.73497,715.69211 L 490.8657,715.80005 L 490.93127,715.79182 L 490.9973,715.88326 L 490.97532,716.10948 L 487.10236,716.04061 L 487.82467,715.98183 L 488.13216,714.9482 L 488.03224,714.41585 L 487.87374,713.88984 L 487.16724,712.11789 L 484.80203,708.15608 L 483.59318,706.43455 L 483.2492,704.93224 L 483.27848,703.87932 L 486.26707,703.03378 L 487.83304,700.77088 L 487.9489,700.41772 L 487.57158,699.29533"
         id="CA_Napa"
         inkscape:label="Napa, CA" />
      <path
         style="font-size:12px;fill-opacity:1;fill-rule:nonzero;stroke:#ffffff;stroke-width:0.72731787;stroke-miterlimit:4;stroke-dasharray:none;fill:#584cde"
         d="M 466.87316,701.1325 L 467.54309,700.90706 L 469.892,700.30141 L 475.13199,699.34155 L 479.83298,699.49266 L 483.27848,703.87932 L 483.2492,704.93224 L 483.59318,706.43455 L 484.80203,708.15608 L 487.16724,712.11789 L 487.87374,713.88984 L 488.03224,714.41585 L 488.13216,714.9482 L 487.82467,715.98183 L 487.10236,716.04061 L 487.16986,716.16555 L 485.55096,717.11895 L 482.96889,715.43739 L 478.02638,711.9883 L 477.87424,711.98969 L 476.43247,712.34183 L 476.2485,712.51185 L 474.05267,708.82269 L 468.50179,702.79758 L 466.87316,701.1325"
         id="CA_Sonoma"
         inkscape:label="Sonoma, CA" />
      <path
         style="font-size:12px;fill-opacity:1;fill-rule:nonzero;stroke:#ffffff;stroke-width:0.72731787;stroke-miterlimit:4;stroke-dasharray:none;fill:#6674de"
         d="M 488.58617,697.89445 L 497.7251,697.98877 L 501.91496,702.48961 L 502.58565,704.70239 L 503.55733,705.68936 L 503.60977,705.78634 L 503.64851,706.02824 L 503.72261,709.36186 L 503.33953,711.37426 L 503.05242,711.67182 L 502.03172,712.48309 L 500.17473,712.45363 L 500.22302,708.3433 L 500.19535,707.48458 L 500.17645,707.41435 L 499.91258,707.16148 L 493.5999,707.57771 L 492.76508,707.65922 L 492.32883,706.00285 L 492.17858,705.5424 L 491.62165,704.29134 L 489.50716,699.89677 L 487.57158,699.29533 L 488.58617,697.89445"
         id="CA_Yolo"
         inkscape:label="Yolo, CA" />
      <path
         style="font-size:12px;fill-opacity:1;fill-rule:nonzero;stroke:#ffffff;stroke-width:0.72731787;stroke-miterlimit:4;stroke-dasharray:none;fill:#e27f7f"
         d="M 505.35303,696.33743 L 507.80511,695.45737 L 508.83763,695.94968 L 509.04387,695.98834 L 511.63272,696.14851 L 512.17612,695.90063 L 512.97675,694.52342 L 513.06822,694.26154 L 513.10814,693.87799 L 513.21614,693.67757 L 513.87334,692.83794 L 514.58203,692.18971 L 515.66448,691.23 L 517.76074,689.4684 L 518.60095,689.02203 L 519.25008,688.81725 L 530.78884,688.71214 L 530.83872,692.27069 L 530.87176,693.52716 L 530.90131,694.58873 L 528.34767,694.62243 L 528.17834,694.84688 L 528.17991,695.13267 L 527.96244,695.30416 L 527.62213,695.48798 L 526.60165,695.6703 L 522.78832,696.54381 L 522.0649,697.57825 L 521.69581,697.87904 L 520.89248,698.26653 L 520.75026,698.3048 L 520.50157,698.23426 L 519.17809,697.47942 L 518.85797,697.26238 L 518.64927,697.06057 L 518.33356,696.67103 L 517.63584,696.25433 L 517.15977,696.12257 L 517.02762,696.10728 L 516.25647,696.27146 L 513.9782,697.30061 L 512.25441,698.33306 L 511.96531,698.74225 L 511.76545,699.92392 L 510.29976,703.08437 L 504.0655,702.53235 L 504.35733,698.00439 L 505.35758,697.99887 L 505.35303,696.33743"
         id="CA_Placer"
         inkscape:label="Placer, CA" />
      <path
         style="font-size:12px;fill-opacity:1;fill-rule:nonzero;stroke:#ffffff;stroke-width:0.72731787;stroke-miterlimit:4;stroke-dasharray:none;fill:#7996e2"
         d="M 530.79173,685.66473 L 530.78884,688.71214 L 519.25008,688.81725 L 518.60095,689.02203 L 517.76074,689.4684 L 515.66448,691.23 L 514.58203,692.18971 L 513.87334,692.83794 L 513.21614,693.67757 L 513.10814,693.87799 L 513.06822,694.26154 L 512.97675,694.52342 L 512.17612,695.90063 L 511.63272,696.14851 L 509.04387,695.98834 L 508.83763,695.94968 L 507.80511,695.45737 L 507.82238,690.81875 L 508.0846,689.96677 L 509.34026,688.48218 L 510.58252,687.33261 L 511.49802,686.97707 L 511.92764,686.92927 L 512.46314,687.02997 L 512.626,686.69052 L 512.99367,686.48239 L 515.90482,685.94388 L 517.98721,684.78855 L 518.02498,684.70496 L 518.21972,684.42097 L 518.74178,683.96791 L 519.00179,683.85654 L 520.36014,683.92225 L 520.83611,684.27057 L 521.24977,685.30412 L 521.73741,685.63988 L 521.99443,685.7063 L 530.79173,685.66473"
         id="CA_Nevada"
         inkscape:label="Nevada, CA" />
      <path
         style="font-size:12px;fill-opacity:1;fill-rule:nonzero;stroke:#ffffff;stroke-width:0.72731787;stroke-miterlimit:4;stroke-dasharray:none;fill:#d75d5d"
         d="M 512.7002,681.16477 L 514.0448,679.6958 L 514.04718,678.81582 L 514.41116,678.37707 L 515.17087,677.91846 L 519.06154,679.57178 L 522.78603,679.50173 L 528.15356,679.4848 L 530.76115,679.11271 L 530.79173,685.66473 L 521.99443,685.7063 L 521.73741,685.63988 L 521.24977,685.30412 L 520.83611,684.27057 L 520.36014,683.92225 L 519.00179,683.85654 L 518.74178,683.96791 L 518.21972,684.42097 L 518.02498,684.70496 L 517.98721,684.78855 L 515.90482,685.94388 L 512.99367,686.48239 L 512.626,686.69052 L 512.46314,687.02997 L 512.7002,681.16477"
         id="CA_Sierra"
         inkscape:label="Sierra, CA" />
      <path
         style="font-size:12px;fill-opacity:1;fill-rule:nonzero;stroke:#ffffff;stroke-width:0.72731787;stroke-miterlimit:4;stroke-dasharray:none;fill:#d75d5d"
         d="M 511.49356,682.15977 L 512.7002,681.16477 L 512.46314,687.02997 L 511.92764,686.92927 L 511.49802,686.97707 L 510.58252,687.33261 L 509.34026,688.48218 L 508.0846,689.96677 L 507.82238,690.81875 L 507.80511,695.45737 L 505.35303,696.33743 L 504.54621,696.30598 L 504.16801,696.41903 L 503.02722,696.90298 L 502.69511,697.34823 L 502.52144,697.67551 L 501.86285,695.32578 L 501.38442,690.41947 L 501.39508,690.05318 L 501.52431,689.33678 L 501.61792,689.2438 L 503.85059,688.773 L 505.5654,688.17602 L 506.15968,687.64142 L 511.49356,682.15977"
         id="CA_Yuba"
         inkscape:label="Yuba, CA" />
      <path
         style="font-size:12px;fill-opacity:1;fill-rule:nonzero;stroke:#ffffff;stroke-width:0.72731787;stroke-miterlimit:4;stroke-dasharray:none;fill:#d75d5d"
         d="M 501.61792,689.2438 L 501.52431,689.33678 L 501.39508,690.05318 L 501.38442,690.41947 L 501.86285,695.32578 L 502.52144,697.67551 L 502.69511,697.34823 L 503.02722,696.90298 L 504.16801,696.41903 L 504.54621,696.30598 L 505.35303,696.33743 L 505.35758,697.99887 L 504.35733,698.00439 L 504.0655,702.53235 L 501.91496,702.48961 L 497.7251,697.98877 L 498.03528,696.48932 L 496.71055,693.95919 L 495.92072,693.05323 L 495.79366,691.9162 L 496.49778,689.01152 L 501.61792,689.2438"
         id="CA_Sutter"
         inkscape:label="Sutter, CA" />
      <path
         style="font-size:12px;fill-opacity:1;fill-rule:nonzero;stroke:#ffffff;stroke-width:0.72731787;stroke-miterlimit:4;stroke-dasharray:none;fill:#d75d5d"
         d="M 496.84963,687.12803 L 496.49778,689.01152 L 495.79366,691.9162 L 495.92072,693.05323 L 496.71055,693.95919 L 498.03528,696.48932 L 497.7251,697.98877 L 488.58617,697.89445 L 487.47853,697.12294 L 487.35085,696.96335 L 486.13064,694.82875 L 485.76631,693.22271 L 483.31846,690.80833 L 482.54525,690.36299 L 481.20341,689.19695 L 480.87788,688.55395 L 481.06774,687.87395 L 481.56119,686.92963 L 496.84963,687.12803"
         id="CA_Colusa"
         inkscape:label="Colusa, CA" />
      <path
         style="font-size:12px;fill-opacity:1;fill-rule:nonzero;stroke:#ffffff;stroke-width:0.72731787;stroke-miterlimit:4;stroke-dasharray:none;fill:#7996e2"
         d="M 481.56119,686.92963 L 481.06774,687.87395 L 480.87788,688.55395 L 481.20341,689.19695 L 482.54525,690.36299 L 483.31846,690.80833 L 485.76631,693.22271 L 486.13064,694.82875 L 487.35085,696.96335 L 487.47853,697.12294 L 488.58617,697.89445 L 487.57158,699.29533 L 487.9489,700.41772 L 487.83304,700.77088 L 486.26707,703.03378 L 483.27848,703.87932 L 479.83298,699.49266 L 477.95335,698.24537 L 477.32986,697.66372 L 475.66973,695.37068 L 475.02738,694.15201 L 475.01451,693.95023 L 475.0224,693.60163 L 475.16525,692.58594 L 475.35722,691.75286 L 476.04684,691.32063 L 476.56144,690.30095 L 476.45732,689.31216 L 475.52487,686.22455 L 475.5449,685.54318 L 475.58799,685.1644 L 475.79015,683.96331 L 476.47691,683.61847 L 478.07343,683.70859 L 478.91355,683.42982 L 479.00721,682.57423 L 479.02117,682.22024 L 481.71379,682.26213 L 481.73847,684.65626 L 481.70953,685.33249 L 481.56119,686.92963"
         id="CA_Lake"
         inkscape:label="Lake, CA" />
      <path
         style="font-size:12px;fill-opacity:1;fill-rule:nonzero;stroke:#ffffff;stroke-width:0.72731787;stroke-miterlimit:4;stroke-dasharray:none;fill:#e27f7f"
         d="M 494.14125,677.31406 L 493.81385,676.98601 L 493.74027,676.29969 L 494.22753,675.30431 L 498.49716,675.30787 L 498.99777,675.20895 L 499.45164,674.78933 L 499.47676,674.34384 L 499.53873,674.0353 L 499.72442,673.68972 L 500.30997,672.96163 L 502.86145,670.23964 L 503.77141,670.24146 L 504.7995,669.74454 L 504.97794,669.56095 L 505.09344,669.03841 L 505.6621,669.04546 L 506.15842,670.0643 L 506.32676,670.59896 L 506.32388,670.93113 L 506.05306,671.4013 L 505.74201,675.86477 L 509.45385,679.72973 L 511.49356,682.15977 L 506.15968,687.64142 L 505.5654,688.17602 L 503.85059,688.773 L 501.61792,689.2438 L 496.49778,689.01152 L 496.84963,687.12803 L 497.48151,683.61199 L 497.48025,683.5163 L 495.56746,679.17856 L 494.14125,677.31406"
         id="CA_Butte"
         inkscape:label="Butte, CA" />
      <path
         style="font-size:12px;fill-opacity:1;fill-rule:nonzero;stroke:#ffffff;stroke-width:0.72731787;stroke-miterlimit:4;stroke-dasharray:none;fill:#d72f30"
         d="M 478.1909,677.04896 L 494.14125,677.31406 L 495.56746,679.17856 L 497.48025,683.5163 L 497.48151,683.61199 L 496.84963,687.12803 L 481.56119,686.92963 L 481.70953,685.33249 L 481.73847,684.65626 L 481.71379,682.26213 L 479.02117,682.22024 L 478.1909,677.04896"
         id="CA_Glenn"
         inkscape:label="Glenn, CA" />
      <path
         style="font-size:12px;fill-opacity:1;fill-rule:nonzero;stroke:#ffffff;stroke-width:0.72731787;stroke-miterlimit:4;stroke-dasharray:none;fill:#d75d5d"
         d="M 504.0461,662.08776 L 507.05725,662.10983 L 511.77907,662.09342 L 511.77507,666.58536 L 512.13215,667.09372 L 514.14385,668.104 L 514.81381,668.10261 L 515.14676,667.92641 L 515.14853,667.35917 L 516.49536,665.52053 L 517.05375,665.17446 L 517.73249,665.17072 L 521.23268,666.56947 L 526.29168,670.0456 L 526.95622,670.55596 L 528.78994,673.99797 L 528.9598,674.69227 L 528.96496,675.37627 L 528.79233,678.10783 L 528.15356,679.4848 L 522.78603,679.50173 L 519.06154,679.57178 L 515.17087,677.91846 L 514.41116,678.37707 L 514.04718,678.81582 L 514.0448,679.6958 L 512.7002,681.16477 L 511.49356,682.15977 L 509.45385,679.72973 L 505.74201,675.86477 L 506.05306,671.4013 L 506.32388,670.93113 L 506.32676,670.59896 L 506.15842,670.0643 L 505.6621,669.04546 L 505.09344,669.03841 L 506.31445,667.614 L 506.36066,667.53378 L 506.4337,667.30135 L 506.53565,665.60187 L 506.04439,664.59484 L 505.8876,664.6069 L 504.55366,664.35197 L 504.48282,664.31266 L 504.36007,664.10843 L 504.32646,663.95554 L 504.0391,662.41163 L 504.0461,662.08776"
         id="CA_Plumas"
         inkscape:label="Plumas, CA" />
      <path
         style="font-size:12px;fill-opacity:1;fill-rule:nonzero;stroke:#ffffff;stroke-width:0.72731787;stroke-miterlimit:4;stroke-dasharray:none;fill:#d72f30"
         d="M 504.0461,662.08776 L 504.0391,662.41163 L 504.32646,663.95554 L 504.36007,664.10843 L 504.48282,664.31266 L 504.55366,664.35197 L 505.8876,664.6069 L 506.04439,664.59484 L 506.53565,665.60187 L 506.4337,667.30135 L 506.36066,667.53378 L 506.31445,667.614 L 505.09344,669.03841 L 504.97794,669.56095 L 504.7995,669.74454 L 503.77141,670.24146 L 502.86145,670.23964 L 500.30997,672.96163 L 499.72442,673.68972 L 499.53873,674.0353 L 499.47676,674.34384 L 499.45164,674.78933 L 498.99777,675.20895 L 498.49716,675.30787 L 494.22753,675.30431 L 493.74027,676.29969 L 493.81385,676.98601 L 494.14125,677.31406 L 478.1909,677.04896 L 478.08867,676.95595 L 477.81466,675.93755 L 478.04755,674.75265 L 478.56091,674.23228 L 478.63251,673.77052 L 478.48946,673.02194 L 478.34525,672.80089 L 478.17696,672.39236 L 477.71676,669.19841 L 477.73276,667.97018 L 477.79929,667.86754 L 477.74138,666.79854 L 477.6926,666.56123 L 477.55411,666.38948 L 476.1574,665.4604 L 477.56942,664.89972 L 479.92866,664.20655 L 481.83288,663.71867 L 485.96019,663.18623 L 487.23081,663.62578 L 489.00981,663.70823 L 489.63082,663.70684 L 491.85431,663.26488 L 493.4686,662.77026 L 494.95426,662.45526 L 497.77272,662.11117 L 500.30673,661.94152 L 504.0461,662.08776"
         id="CA_Tehama"
         inkscape:label="Tehama, CA" />
      <path
         style="font-size:12px;fill-opacity:1;fill-rule:nonzero;stroke:#ffffff;stroke-width:0.72731787;stroke-miterlimit:4;stroke-dasharray:none;fill:#6674de"
         d="M 458.90825,671.74725 L 467.46524,671.98121 L 467.44524,672.56467 L 478.34525,672.80089 L 478.48946,673.02194 L 478.63251,673.77052 L 478.56091,674.23228 L 478.04755,674.75265 L 477.81466,675.93755 L 478.08867,676.95595 L 478.1909,677.04896 L 479.02117,682.22024 L 479.00721,682.57423 L 478.91355,683.42982 L 478.07343,683.70859 L 476.47691,683.61847 L 475.79015,683.96331 L 475.58799,685.1644 L 475.5449,685.54318 L 475.52487,686.22455 L 476.45732,689.31216 L 476.56144,690.30095 L 476.04684,691.32063 L 475.35722,691.75286 L 475.16525,692.58594 L 475.0224,693.60163 L 475.01451,693.95023 L 475.02738,694.15201 L 475.66973,695.37068 L 477.32986,697.66372 L 477.95335,698.24537 L 479.83298,699.49266 L 475.13199,699.34155 L 469.892,700.30141 L 467.54309,700.90706 L 466.87316,701.1325 L 465.67618,699.903 L 463.76247,697.6123 L 462.04617,687.38453 L 461.99618,686.98184 L 461.98758,686.79585 L 462.09542,685.89503 L 462.25076,684.96071 L 462.49085,684.27849 L 462.62422,683.89238 L 462.84166,683.49682 L 462.91165,683.31606 L 462.95124,683.21125 L 462.96231,683.18945 L 463.19344,682.47387 L 463.18253,682.30733 L 462.91041,679.93835 L 462.81319,679.36008 L 461.85704,675.83446 L 461.82565,675.78077 L 460.52066,673.96086 L 459.8089,672.98115 L 458.90825,671.74725"
         id="CA_Mendocino"
         inkscape:label="Mendocino, CA" />
      <path
         style="font-size:12px;fill-opacity:1;fill-rule:nonzero;stroke:#ffffff;stroke-width:0.72731787;stroke-miterlimit:4;stroke-dasharray:none;fill:#6674de"
         d="M 466.30117,639.33315 L 469.10452,639.40173 L 469.54199,639.76794 L 470.60564,644.22494 L 470.40097,644.56998 L 470.21579,645.04348 L 469.97129,646.22022 L 470.13811,646.96617 L 470.26429,647.09227 L 470.47448,648.21633 L 469.57373,649.81631 L 469.15581,650.44657 L 467.72388,652.40978 L 467.91429,655.16792 L 467.46524,671.98121 L 458.90825,671.74725 L 458.34675,671.17903 L 453.25708,665.66437 L 453.07695,665.40779 L 452.40049,661.19309 L 452.4288,661.07438 L 453.31065,658.61332 L 453.97229,657.03438 L 454.24315,656.49451 L 454.74039,655.56424 L 455.50563,654.27939 L 456.37506,652.65396 L 456.85796,651.76143 L 457.20437,651.00542 L 457.61688,649.85126 L 458.00359,648.36323 L 458.14021,647.44336 L 457.91637,646.9613 L 458.68383,641.33186 L 459.28921,637.17146 L 462.43001,637.2415 L 464.44448,637.34533 L 464.41017,638.61049 L 465.30308,639.31174 L 466.30117,639.33315"
         id="CA_Humboldt"
         inkscape:label="Humboldt, CA" />
      <path
         style="font-size:12px;fill-opacity:1;fill-rule:nonzero;stroke:#ffffff;stroke-width:0.72731787;stroke-miterlimit:4;stroke-dasharray:none;fill:#e27f7f"
         d="M 470.60564,644.22494 L 471.58812,644.65728 L 472.56641,645.19996 L 474.32113,646.73884 L 477.24746,648.53113 L 478.75805,648.84773 L 479.09565,648.80775 L 479.39412,648.40545 L 479.50128,647.98496 L 479.0673,646.97383 L 480.85456,643.74194 L 484.03186,641.38631 L 486.36566,642.0821 L 486.57414,644.49455 L 486.97154,644.64184 L 487.328,644.86792 L 487.43304,645.06937 L 487.42816,646.03099 L 487.3639,646.26106 L 487.2673,646.53183 L 485.81459,648.73977 L 485.25093,649.13622 L 485.14457,649.18177 L 482.08846,655.92788 L 480.16386,660.38487 L 477.79448,662.36307 L 476.1859,664.58657 L 476.1574,665.4604 L 477.55411,666.38948 L 477.6926,666.56123 L 477.74138,666.79854 L 477.79929,667.86754 L 477.73276,667.97018 L 477.71676,669.19841 L 478.17696,672.39236 L 478.34525,672.80089 L 467.44524,672.56467 L 467.46524,671.98121 L 467.91429,655.16792 L 467.72388,652.40978 L 469.15581,650.44657 L 469.57373,649.81631 L 470.47448,648.21633 L 470.26429,647.09227 L 470.13811,646.96617 L 469.97129,646.22022 L 470.21579,645.04348 L 470.40097,644.56998 L 470.60564,644.22494"
         id="CA_Trinity"
         inkscape:label="Trinity, CA" />
      <path
         style="font-size:12px;fill-opacity:1;fill-rule:nonzero;stroke:#ffffff;stroke-width:0.72731787;stroke-miterlimit:4;stroke-dasharray:none;fill:#d72f30"
         d="M 505.03703,644.67112 L 507.04597,644.66344 L 507.03644,650.87038 L 507.20941,651.63917 L 507.1541,659.85246 L 507.05725,662.10983 L 504.0461,662.08776 L 500.30673,661.94152 L 497.77272,662.11117 L 494.95426,662.45526 L 493.4686,662.77026 L 491.85431,663.26488 L 489.63082,663.70684 L 489.00981,663.70823 L 487.23081,663.62578 L 485.96019,663.18623 L 481.83288,663.71867 L 479.92866,664.20655 L 477.56942,664.89972 L 476.1574,665.4604 L 476.1859,664.58657 L 477.79448,662.36307 L 480.16386,660.38487 L 482.08846,655.92788 L 485.14457,649.18177 L 485.25093,649.13622 L 485.81459,648.73977 L 487.2673,646.53183 L 487.3639,646.26106 L 487.42816,646.03099 L 487.43304,645.06937 L 487.328,644.86792 L 486.97154,644.64184 L 486.57414,644.49455 L 490.23987,644.49304 L 495.29939,644.59099 L 505.03703,644.67112"
         id="CA_Shasta"
         inkscape:label="Shasta, CA" />
      <path
         style="font-size:12px;fill-opacity:1;fill-rule:nonzero;stroke:#ffffff;stroke-width:0.72731787;stroke-miterlimit:4;stroke-dasharray:none;fill:#d72f30"
         d="M 530.43195,644.58489 L 530.51764,652.09746 L 530.66278,660.74074 L 530.70466,664.96238 L 530.72282,666.32452 L 530.72017,666.3497 L 530.74561,670.8601 L 530.76157,677.72861 L 530.76115,679.11271 L 528.15356,679.4848 L 528.79233,678.10783 L 528.96496,675.37627 L 528.9598,674.69227 L 528.78994,673.99797 L 526.95622,670.55596 L 526.29168,670.0456 L 521.23268,666.56947 L 517.73249,665.17072 L 517.05375,665.17446 L 516.49536,665.52053 L 515.14853,667.35917 L 515.14676,667.92641 L 514.81381,668.10261 L 514.14385,668.104 L 512.13215,667.09372 L 511.77507,666.58536 L 511.77907,662.09342 L 507.05725,662.10983 L 507.1541,659.85246 L 507.20941,651.63917 L 507.03644,650.87038 L 507.04597,644.66344 L 530.43195,644.58489"
         id="CA_Lassen"
         inkscape:label="Lassen, CA" />
      <path
         style="font-size:12px;fill-opacity:1;fill-rule:nonzero;stroke:#ffffff;stroke-width:0.72731787;stroke-miterlimit:4;stroke-dasharray:none;fill:#d72f30"
         d="M 505.11423,625.46106 L 514.96774,625.55894 L 518.19282,625.55736 L 518.21802,625.55999 L 524.57657,625.53816 L 525.26186,625.53077 L 530.24988,625.45402 L 530.43195,644.58489 L 507.04597,644.66344 L 505.03703,644.67112 L 505.06259,638.86659 L 505.06345,630.66793 L 504.97168,630.64178 L 504.92819,630.57817 L 504.93602,627.16412 L 504.94537,626.57602 L 505.11423,625.46106"
         id="CA_Modoc"
         inkscape:label="Modoc, CA" />
    </g>
  </svg>
</svg>
