<?xml version="1.0" standalone="yes"?>
<!DOCTYPE svg PUBLIC "-//W3C//DTD SVG 1.1//EN" "http://www.w3.org/Graphics/SVG/1.1/DTD/svg11.dtd">
<svg xmlns="http://www.w3.org/2000/svg" xmlns:xlink="http://www.w3.org/1999/xlink" version="1.1" width="3378.6" height="5346.2" viewBox="-17394,-23315 33786,53462">
<clipPath id="state_clip_path">
<g stroke="lightgrey" strokeWidth="100" id="state_outline">
<path id="1993" d="M -14301,-23192 l -5,-9 -25,-49 10,-65 180,4 938,33 844,5 1369,27 137,3 422,9 1420,28 90,2 3483,76 49,2 119,4 2977,95 436,0 486,-1 590,4 2736,15 918,-16 71,0 4072,12 158,0 2212,19 214,1365 104,658 373,1972 23,120 52,281 133,707 227,1201 264,1444 134,731 23,150 18,80 234,1314 100,559 127,726 130,740 117,661 352,2043 21,121 313,1766 58,329 46,276 309,1837 269,1465 45,235 32,161 51,271 7,53 97,581 56,343 24,143 109,645 55,324 24,106 3,9 20,91 19,50 32,26 51,10 36,0 20,-15 31,-5 26,10 20,20 31,46 10,35 -6,20 -25,30 -35,18 -25,21 -16,22 -23,30 -3,30 6,41 17,29 6,30 2,37 -11,35 -3,35 12,35 16,25 37,42 61,30 70,28 31,24 27,34 5,45 10,10 18,15 32,19 42,22 31,15 26,15 6,25 -15,26 -25,16 -38,19 -32,14 -35,26 -25,21 -16,30 -5,30 10,31 16,35 15,30 7,25 12,35 87,7 73,23 46,36 20,36 10,45 -10,51 -20,40 -18,18 -9,26 1,35 5,47 9,38 17,60 24,90 23,70 34,51 78,82 55,64 21,39 12,55 3,58 -66,41 -46,50 -16,40 -5,28 11,20 21,15 19,8 22,5 24,15 28,4 33,-4 26,10 14,16 1,14 -15,22 -20,31 -11,33 10,35 10,18 31,28 21,25 15,31 4,55 -1,15 -3,31 8,55 17,71 34,58 53,73 41,31 33,23 27,40 32,53 41,40 39,39 48,49 51,54 35,49 26,24 26,9 25,29 5,20 3,21 11,15 27,14 31,29 11,30 24,32 26,26 25,30 31,51 24,48 6,23 11,37 10,79 5,50 5,51 5,65 2,68 -2,48 0,96 10,66 16,46 25,45 41,35 36,31 47,26 40,14 33,24 27,34 21,33 16,41 -3,41 -18,34 -25,36 -40,29 -29,27 -13,25 -16,40 -5,40 21,51 25,35 36,21 16,18 1,15 -15,11 -36,1 -43,5 -38,3 -20,21 -9,26 1,35 10,16 21,3 36,-6 36,3 30,15 12,24 -2,17 -18,4 -35,12 -24,4 -25,25 -15,24 -6,37 0,35 -11,34 -30,32 -29,21 -27,25 -18,17 -39,47 -35,52 -15,60 5,51 10,60 30,36 52,38 83,37 119,46 114,51 82,40 58,22 49,19 40,23 47,32 46,41 61,78 66,63 87,61 56,40 46,26 33,22 23,23 -1,12 -9,13 -11,3 -15,-10 -21,1 -15,6 -28,39 -8,24 -4,13 -26,20 -25,16 -31,10 -22,-1 -31,-4 -49,0 -26,20 -15,29 1,20 16,10 14,1 20,-5 36,5 10,11 0,15 -5,25 -26,35 -20,28 -10,23 -6,22 -5,18 -1,34 -9,30 -9,21 -37,11 -82,15 -209,0 -71,16 -48,25 -29,30 -15,30 -9,38 14,28 15,20 29,5 21,5 31,4 21,2 15,11 0,14 -5,20 -24,18 -30,16 -35,17 -74,25 -97,30 -82,36 -45,11 -40,21 -22,18 -17,24 -19,36 -25,37 -31,34 -28,28 -19,21 -20,31 -33,52 -69,86 -44,60 -39,37 -55,44 -35,25 -16,36 15,70 46,173 50,149 2,9 10,44 -1,25 -15,25 -30,36 -23,33 -4,51 2,51 2,50 6,25 -2,18 -6,48 -17,97 3,61 2,55 -3,61 1,35 7,46 11,35 6,25 1,25 -9,31 -14,31 -30,46 -21,30 -25,46 -24,68 -3,38 -1,8 -3,48 9,99 21,34 7,30 -12,29 -27,23 -34,32 -46,22 -31,24 -13,28 2,46 8,39 3,13 5,16 7,22 -1,43 -6,25 -25,29 -19,26 -25,31 -22,21 -26,20 -26,25 -20,24 -9,25 -19,26 -25,22 -24,19 -20,21 -21,13 -10,17 7,18 9,12 20,15 8,17 2,29 -5,32 -5,44 -8,12 -20,11 -31,6 -45,2 -39,4 -43,4 -20,11 -9,20 6,31 16,24 16,25 6,30 2,41 -9,35 -16,47 -21,46 -15,31 -10,24 0,41 5,30 5,26 -5,35 -9,16 -17,29 -5,26 -5,50 10,41 18,26 13,19 10,36 10,70 10,97 -1,80 -14,76 -15,66 -21,46 -15,35 -5,35 5,12 5,14 15,15 36,20 26,20 17,30 22,44 11,43 2,43 -3,36 11,24 6,31 15,38 10,40 15,46 21,71 -5,45 -16,46 -7,21 -10,31 -13,54 -11,50 0,46 11,45 6,38 22,60 38,54 61,86 82,96 92,98 43,54 33,20 19,9 21,19 11,18 -4,28 -19,31 -20,31 -9,25 6,31 16,19 26,15 21,14 8,8 36,41 15,20 21,14 15,5 25,1 27,7 11,20 11,30 6,40 1,25 -10,35 0,30 8,21 13,30 5,36 10,60 -5,71 13,65 6,36 6,35 -9,31 7,35 17,50 15,47 34,57 33,69 35,56 15,34 -4,41 -11,36 -12,26 -13,35 -10,25 -9,37 8,29 6,25 -4,26 -3,9 -8,27 -26,44 -26,46 -24,60 -24,57 -13,45 -16,25 -14,17 -21,29 -11,35 -15,56 -10,45 0,85 8,66 7,71 8,80 13,76 4,42 -5,51 -10,9 -26,6 -20,5 -15,31 -10,25 -8,21 -3,60 -13,42 1,51 2,40 12,46 -2,54 -15,61 -21,55 -25,55 -21,51 -17,46 -18,40 -21,31 -10,35 5,41 20,26 21,29 20,41 9,35 1,51 -8,56 -8,45 16,31 27,44 -3,61 -12,71 -9,41 -9,35 -9,37 -12,71 -19,65 -25,30 -36,31 -43,20 -34,10 -35,20 -20,29 -11,37 -2,40 6,35 12,35 9,52 10,38 16,48 20,66 46,101 46,106 2,50 -7,57 1,44 -7,22 -22,35 -24,31 -15,30 -10,45 -1,43 1,54 7,26 21,30 23,14 19,20 17,30 10,31 2,44 -2,38 -10,34 11,35 17,35 21,14 27,3 51,5 46,5 35,22 21,34 30,40 40,49 37,48 25,50 20,56 21,51 29,54 22,32 26,22 25,34 39,35 26,14 21,14 21,35 30,53 26,46 20,51 13,44 -4,41 -4,45 7,36 2,20 4,9 23,46 43,69 23,44 30,41 17,24 19,42 10,40 5,46 5,45 0,64 8,61 28,68 28,77 12,60 3,81 -1639,33 -1938,35 -1048,51 -26,1 -12,1 -65,1 -2935,50 -2192,17 -804,3 -643,2 -1933,8 -436,1 -1045,-5 -1376,-8 -128,0 -672,-49 -230,0 -560,-2 -393,-2 -2550,-17 -477,-1 -2977,-16 -596,-5 -138,-2 17,35 17,36 13,60 23,112 23,80 7,66 -4,56 -13,71 -29,57 -37,60 -50,84 -49,93 -24,51 -18,56 -10,56 -10,30 -16,36 -15,25 -30,25 -16,21 -4,28 1,35 6,36 -9,30 -25,26 -25,16 -20,26 -4,31 -9,41 -14,27 -9,17 -15,28 -9,24 15,20 35,21 6,5 16,14 3,7 16,29 6,35 6,46 4,39 16,22 15,10 26,15 17,28 7,8 17,19 10,11 30,15 26,10 25,15 10,26 9,26 3,7 9,27 21,45 41,31 40,25 57,20 35,25 21,36 29,32 9,10 28,29 61,65 25,31 23,28 19,12 20,10 14,22 20,30 7,19 21,15 20,10 15,25 3,25 3,30 0,11 3,8 15,37 18,26 40,46 18,39 0,8 4,28 -1,8 -1,43 9,40 4,7 20,34 6,5 34,35 7,5 55,40 7,4 43,22 24,10 31,23 18,32 4,7 16,23 31,31 6,5 14,10 7,1 47,15 9,1 32,8 50,11 17,5 26,15 20,36 0,15 -5,15 0,15 21,10 5,16 4,12 8,10 25,10 16,-7 13,10 10,20 11,15 25,5 20,0 21,10 20,0 26,10 30,-5 21,5 24,18 26,24 21,19 26,24 6,4 45,27 30,0 26,16 30,20 26,25 15,5 21,25 30,21 26,5 41,20 20,20 10,20 10,31 16,40 10,31 10,20 5,29 13,13 18,19 17,18 6,25 1,36 -4,25 11,30 0,21 -9,20 1,32 1,29 6,45 11,30 -4,31 -15,31 -9,41 -4,35 2,41 -5,20 -24,36 -15,16 -20,6 -21,16 -19,15 -2,9 5,15 10,20 -5,31 -10,20 -10,46 0,35 -5,31 -5,20 -20,30 -11,29 -5,25 -9,21 -25,16 -15,20 -10,11 11,25 6,20 -15,26 -15,10 -24,0 -30,6 -15,20 0,20 -5,26 -4,22 -12,8 -20,15 -23,19 -15,26 -10,30 -9,26 -39,52 -5,20 1,20 1,16 -28,4 5,16 21,15 -10,10 -21,10 -20,5 0,15 10,21 -5,20 -9,32 4,24 10,20 16,15 5,20 -10,26 5,20 15,15 26,10 20,21 -4,25 11,15 15,8 21,11 6,25 0,20 6,26 16,14 16,15 -20,11 -21,-5 -15,6 -5,20 -35,42 -10,50 10,46 25,46 31,55 36,41 31,30 25,25 20,21 21,25 25,15 46,10 26,5 20,15 36,31 25,10 16,5 20,5 10,10 5,15 0,10 -20,21 -10,25 -5,35 -5,36 -10,30 -10,31 -21,10 -15,0 -25,15 -21,26 -30,15 -76,0 -41,-5 -46,16 -31,10 -25,40 -30,51 -26,46 -30,20 -46,26 -25,45 -10,41 -5,30 0,66 10,26 -20,25 -31,26 -20,40 -30,61 -10,25 -21,51 -20,15 -35,31 -41,25 -41,46 -30,41 -31,35 -20,16 -15,-5 -10,-11 -11,-25 -5,-15 0,-20 -5,-26 -5,-25 -5,-51 -1,-40 0,-31 -10,-30 -10,-31 -21,-5 -20,11 -20,20 0,46 16,96 -6,41 11,45 5,25 -15,26 -21,15 -20,5 -10,-5 -10,-10 0,-25 5,-36 0,-35 -6,-41 -10,-30 -10,-31 -26,-30 -20,-10 -26,5 -20,31 5,35 10,30 6,31 -10,30 -21,16 -25,10 -31,20 0,31 21,20 30,-5 36,-16 26,5 5,26 0,10 -20,51 -16,71 -15,35 -10,20 -20,11 -26,-5 -10,-10 -20,-11 -31,-30 -25,0 -31,10 -15,26 10,20 5,36 -10,10 -20,5 -15,0 -6,10 6,25 20,16 -5,20 -15,10 -21,5 -25,-10 -20,-10 -16,-20 -5,-41 0,-35 -16,-31 -35,-20 -31,10 -15,41 10,30 6,31 -10,15 -16,-5 -20,-15 -26,-15 -30,0 -26,15 -10,41 0,40 -20,15 -20,0 -21,-15 -10,-20 -36,-96 -5,-51 15,-76 15,-31 10,-25 15,-25 21,-21 0,-45 10,-21 20,-25 15,-20 -5,-26 -20,-25 -16,5 -30,5 -26,0 -20,16 -15,30 -5,41 0,35 -20,31 -21,0 -10,-5 -10,-21 -10,-15 -5,-10 -16,-20 -10,-20 0,-77 -10,-25 -16,-25 -5,-31 -5,-30 -15,-20 -26,5 -20,30 -5,31 -10,10 -10,-5 -21,-5 -25,-5 -21,25 6,41 30,15 41,0 30,10 16,25 -5,26 -15,15 -26,5 -20,0 -31,5 -15,10 -5,21 15,20 31,5 30,10 26,5 5,20 -5,16 -15,10 0,25 10,36 15,25 21,20 36,20 15,10 10,16 -10,30 -15,25 -20,36 -31,31 -20,10 -36,10 -35,25 -21,31 0,40 16,16 30,0 21,-11 45,0 51,20 72,26 56,10 40,-6 56,-20 26,-20 20,-26 36,-20 25,-10 26,0 20,10 20,15 21,25 20,10 26,0 30,-15 36,-15 50,-31 16,-15 45,-21 26,-25 25,-15 31,-6 46,11 30,20 0,30 -5,25 -35,26 -41,10 -41,5 -35,11 -46,30 -25,20 -31,26 -25,-10 -21,-15 -30,-10 -56,5 -41,5 -30,15 -16,21 0,25 26,15 20,20 -15,16 -20,5 -21,0 -25,-5 -26,15 -20,20 -10,36 10,10 26,0 30,-5 26,-15 25,-11 20,0 11,16 -5,25 -16,20 -117,31 -152,46 -127,36 -82,25 -106,41 -97,26 -86,15 -56,21 -56,15 -67,-5 -71,-5 -86,21 -92,10 -81,16 -82,15 -51,0 -213,31 -168,36 -112,26 -92,15 -91,21 -71,5 -138,6 -61,5 -20,5 -82,10 -81,11 -81,0 -97,-15 -82,-10 -56,5 -66,6 -20,0 -122,-5 -133,-10 -107,-5 -96,-4 -122,-5 -112,-5 -128,6 -122,5 -71,0 -56,11 -87,10 -86,16 -107,30 -91,21 -66,15 -41,11 -31,0 -20,-15 -5,-26 0,-20 10,-10 15,-21 25,-30 10,-31 21,-10 35,-15 36,-5 41,0 76,-6 56,-5 61,-15 56,-1 107,0 41,-15 15,-5 20,-16 21,10 5,16 0,20 10,5 15,5 21,-10 35,-21 15,-15 0,-15 -20,-15 -31,-10 -20,-10 -15,-21 5,-15 15,-15 25,-10 31,0 20,5 20,-11 -5,-10 -10,-15 -5,-15 10,-20 25,-21 31,-10 30,-10 46,-5 36,-1 46,15 35,26 36,25 26,25 10,21 10,25 5,25 16,10 25,0 26,15 35,21 72,25 137,9 158,-5 36,-5 25,-5 41,-6 40,-5 21,-10 15,-15 25,-21 36,-15 46,-10 40,-5 31,-6 25,-15 16,-15 20,-15 30,-6 61,5 72,5 30,5 82,5 96,-15 72,-21 40,-20 41,-21 20,-20 15,-20 16,-26 15,-25 30,-41 21,-25 20,-26 10,-30 15,-21 10,-5 15,-10 21,-15 0,-56 10,-15 20,-10 20,5 11,10 20,35 10,46 6,30 0,51 -10,31 -10,35 -5,30 10,26 15,10 21,5 25,-5 20,-5 26,-21 40,-30 26,-31 5,-25 0,-31 -16,-25 -20,-20 -21,-15 -30,-10 -10,-10 -21,-31 -10,-15 -5,-25 -10,-26 -1,-30 6,-10 5,-26 -21,-25 -81,0 -26,5 -25,11 -26,20 -10,20 0,21 6,20 -16,5 -15,-5 -20,-20 -21,-41 -46,-71 -20,-40 -21,-25 -51,-46 -46,-30 -56,-31 -46,-30 -51,-45 -61,-46 -61,-40 -57,-56 -46,-71 -35,-45 -36,-51 -31,-45 -20,-36 -21,-35 -5,-15 -10,-31 -5,-30 5,-26 20,-15 20,-10 10,-15 0,-26 -5,-35 5,-26 15,-25 31,-25 30,-6 26,5 40,16 11,-6 10,-15 5,-5 0,-20 -5,-26 -16,-15 -20,-15 -21,-20 -10,-30 -5,-46 -5,-25 -5,-26 5,-30 -11,-10 -25,-5 -5,-16 -16,-15 -25,0 -10,5 -15,21 -11,15 -5,30 -15,26 -25,25 -20,31 -26,25 -20,46 0,35 26,46 15,35 21,26 0,35 -10,5 -11,10 -15,6 -15,0 -20,-5 -26,-5 -81,-15 -51,-26 -46,-25 -51,-35 -67,-51 -66,-60 -56,-56 -36,-40 -41,-21 -36,-20 -25,-30 -16,-71 -5,-86 -11,-91 -20,-87 -16,-76 -10,-50 -16,-56 -10,-41 0,-40 -5,-61 -21,-40 -30,-41 -36,-15 -31,-20 -30,-15 0,-26 15,-20 25,-36 31,-30 10,-41 -1,-35 16,-36 30,-50 20,-41 31,-46 20,-30 30,-46 21,-41 20,-66 25,-45 20,-41 20,-61 5,-55 5,-56 -10,-46 -5,-51 -16,-60 -25,-51 -26,-35 -15,-41 -16,-35 -10,-36 0,-35 10,-51 15,-76 10,-66 0,-56 -6,-40 -5,-46 -20,-40 -26,-15 -15,-21 0,-35 15,-26 20,-20 0,-35 -15,-16 -21,11 -20,0 -31,-31 0,-35 10,-41 0,-15 -30,-10 -21,-15 -5,-20 -15,-21 -21,-15 -25,-30 15,-25 30,-6 21,-15 5,-25 0,-26 -16,-15 -25,-5 -36,0 -30,11 -36,5 -20,0 -11,-10 -112,-30 -61,-10 -82,-15 -122,-20 -112,-30 -36,-10 -41,-24 -137,-92 -21,0 -25,-10 -21,-5 -15,5 -20,-5 -26,15 -4,117 5,40 15,26 5,20 -25,25 -56,66 -41,-5 -45,21 -41,40 -5,21 10,20 5,20 -5,20 -25,11 -15,15 -26,41 1,40 0,71 10,86 6,107 10,86 -10,66 -25,61 -30,61 -36,50 -50,66 -56,56 -31,21 -25,35 -20,10 -16,-5 0,-20 -5,-15 -10,-10 -31,-15 -10,-21 -20,-15 -26,0 -25,-15 -26,-40 -26,-61 -15,-35 -26,-31 -10,-35 5,-36 15,-30 15,-31 16,-15 20,-15 25,-20 15,-21 5,-10 -5,-20 -30,-10 -36,-5 -41,15 -35,36 -20,40 -5,36 5,40 0,16 -5,20 -15,10 -10,0 -16,-30 -10,-10 -31,10 -15,20 0,31 11,15 0,35 -16,26 -40,56 10,15 31,-5 35,-26 31,-15 35,-5 26,10 25,35 11,51 15,45 21,26 20,15 21,15 20,0 36,15 30,10 26,20 30,30 36,61 11,36 5,71 0,66 -20,106 -20,41 -20,15 -21,15 -5,15 0,11 -20,25 -20,30 -36,51 -35,56 -10,41 -5,45 0,61 6,66 31,127 20,61 0,45 -25,41 -15,25 -21,15 -25,-5 -20,1 -21,10 0,15 11,10 15,0 20,10 11,10 -16,15 -15,21 0,15 -5,25 10,36 6,45 10,56 5,51 11,61 5,45 -15,82 -15,50 0,81 -20,132 -10,87 1,35 0,61 -5,56 -10,55 -25,72 -25,55 -36,72 -56,81 -25,46 -20,30 -15,51 -15,46 -25,66 -11,35 -4,36 -21,25 -20,5 -21,-10 -10,-25 -10,-36 -16,-40 -5,-31 5,-35 15,-26 21,-5 20,-10 25,-25 16,-21 20,-25 10,-10 10,-16 5,-25 0,-30 -10,-26 -21,-10 -35,5 -15,41 0,31 -10,25 -15,20 -16,10 -25,1 -16,-16 5,-25 16,-25 5,-21 -21,-30 -30,-5 -10,25 -11,21 -25,5 -25,0 -11,20 16,26 10,20 20,15 16,25 -5,31 -15,15 -82,20 -76,11 -51,5 -61,21 -46,25 -30,15 -36,1 -20,-31 5,-35 15,-26 20,0 15,-10 11,-25 -1,-21 -15,-20 -20,-15 -21,-15 -15,-20 -10,-26 10,-20 10,-5 36,0 10,-5 15,-16 10,-40 10,-31 0,-35 5,-41 10,-25 10,-26 15,-10 10,-10 0,-15 -30,-20 -36,-10 -30,15 -16,10 -25,10 -31,5 -35,16 -46,10 -15,0 -41,-30 -26,-30 -35,-31 -21,-15 -36,-10 -35,-5 -46,-5 -31,-25 -35,-25 -31,-10 -41,-10 -30,-21 -46,-25 -16,0 -20,5 -20,16 -41,0 -56,-20 -61,-10 -46,-15 -10,-15 15,-11 20,-5 10,-10 0,-10 -15,-20 -20,-31 -21,-20 -25,-15 -26,-5 -10,20 5,21 5,30 -10,15 -20,16 -20,15 -31,46 -15,35 -5,31 -10,30 -15,15 -26,11 -30,5 -26,0 0,-31 10,-20 21,-25 10,-26 0,-30 -21,-41 -20,-50 -26,-46 -26,-25 -35,-20 -36,-15 -41,-21 -20,-25 -31,0 -30,21 -10,0 -26,-5 -31,-20 -10,-11 -41,1 -35,15 -10,35 0,26 -5,35 -5,21 -20,30 -21,20 -15,6 -20,0 -5,-26 15,-35 0,-10 -5,-21 -11,-15 -15,0 -15,5 -10,5 -16,-10 -15,-10 -20,5 5,21 15,15 0,15 -10,15 -25,-5 -16,5 6,21 25,15 15,15 1,10 -11,10 -15,5 -25,-5 -21,-15 -25,-25 -21,-10 -15,0 -25,10 -21,10 -36,-3 -4,-235 -11,-714 -7,-432 -8,-497 0,-35 -5,-365 -14,-1226 -8,-358 -30,-1299 -47,-1608 0,-28 -39,-1266 -12,-390 -53,-1610 -60,-1564 -3,-96 -42,-1643 -26,-1176 -11,-485 -24,-840 -12,-822 -2,-93 89,-719 209,-1638 156,-1263 47,-388 62,-518 131,-1108 194,-1633 28,-236 169,-1399 185,-1613 105,-863 86,-708 11,-92 195,-1681 144,-1207 20,-181 19,-151 11,-96 191,-1690 107,-911 85,-731 188,-1596 7,-59 202,-1650 225,-1627 17,-144 41,-338 136,-1151 161,-1420 22,-192 159,-1407 27,-247 135,-1038 74,-570 21,-131 48,-359 158,-1169 34,-322 30,-262 20,-156 45,-420 10,-94 -89,-25 -96,-49 -80,-43 -80,-68 -76,-86 -72,-75 -66,-111 -47,-121 -36,-96 -46,-90 -52,-71 -71,-97 z" />
<path id="2132" d="M -13336,24725 l 25,36 26,35 21,40 0,36 -36,51 -46,10 -25,-15 -5,-66 -6,-30 -5,-26 5,-40 10,-36 26,-15 z" />
<path id="2141" d="M -16497,27848 l 15,-5 21,0 20,10 20,5 21,10 25,5 16,10 15,15 0,16 -15,10 -21,5 -20,-5 -26,-5 -30,-5 -36,-10 -20,-15 0,-21 z" />
<path id="2143" d="M -16827,28001 l -16,0 -20,-10 -21,-10 0,-20 11,-20 20,-5 15,15 16,20 10,15 z" />
<path id="2144" d="M -16873,28062 l -15,6 -16,-5 -15,-16 -10,-10 -5,-15 5,-15 10,-5 15,5 21,10 15,15 5,10 z" />
<path id="2145" d="M -15997,28105 l -15,20 -16,5 -20,1 -10,-5 -5,-21 20,-30 10,-10 20,-6 11,0 5,11 10,15 z" />
<path id="2146" d="M -15634,28641 l -30,-10 -16,-25 -5,-25 0,-31 5,-20 10,-20 10,-11 5,-10 -5,-10 -5,-15 0,-10 5,-15 0,-16 -10,-20 -15,0 -16,-25 0,-20 5,-21 5,-15 5,-20 5,-41 0,-56 -5,-30 5,-20 5,-21 15,-10 20,10 11,20 10,31 10,30 0,36 -5,40 1,31 0,30 10,31 5,35 11,41 10,35 0,41 -5,40 -10,31 -15,25 z" />
<path id="2147" d="M -16806,28240 l -20,20 -16,10 -10,5 -10,-5 0,-30 10,-15 15,-16 15,-15 16,-10 10,-5 15,10 5,15 -5,15 z" />
<path id="2149" d="M -16969,28261 l 15,-1 21,0 30,-5 5,-5 11,0 5,10 -5,15 -16,26 -15,5 -15,10 -20,10 -10,6 z" />
<path id="2150" d="M -15731,28469 l 15,5 16,21 -10,30 -5,10 -11,5 -10,-5 -10,-10 -5,-15 0,-25 z" />
<path id="2152" d="M -15338,28645 l 15,0 25,5 16,16 5,25 -25,30 -51,-4 -21,-21 5,-20 10,-20 z" />
<path id="2153" d="M -15231,28706 l -5,-20 5,-21 15,-10 10,0 15,10 16,15 -5,26 0,20 -15,10 -21,0 -10,-5 z" />
<path id="2155" d="M -8246,29015 l 46,-10 25,-15 31,-15 45,-6 26,0 41,-5 25,-5 26,-10 10,-5 15,5 5,15 5,20 -10,10 -25,16 -36,5 -25,10 -26,5 -66,11 -25,5 -21,5 -25,10 -31,15 -51,21 -55,10 -41,0 -36,10 -41,11 -60,20 -62,20 -30,21 -31,0 -10,-15 10,-26 21,-15 30,-10 20,-5 26,-11 30,-10 21,-5 35,-10 16,-5 20,-15 0,-21 10,-20 15,-10 21,-5 15,0 25,5 31,10 25,0 z" />
<path id="2156" d="M -14472,28982 l 11,26 -11,10 -40,0 -21,-25 10,-21 31,-5 z" />
<path id="2157" d="M -8654,29214 l 7,40 -41,11 -92,16 -66,10 -10,-15 0,-16 10,-20 20,-15 21,-5 40,5 41,5 36,-16 z" />
<path id="2158" d="M -14170,29260 l 51,41 51,40 15,20 0,16 -10,10 -20,0 -31,-10 -41,-41 -30,-20 -21,-15 -25,-10 -10,-5 -16,-5 -10,-10 -15,-10 -16,0 -5,10 -15,10 -10,10 -10,-5 -16,-15 -10,-20 0,-25 15,-26 15,-20 26,-5 25,5 31,20 46,30 z" />
<path id="2159" d="M -14118,29600 l -97,0 -41,-10 -40,-15 -56,-20 -67,-15 -66,-20 -76,-5 -66,11 -77,5 -97,-5 -71,0 -102,1 -132,15 -102,11 -96,15 -97,16 -102,26 -111,36 -82,10 -96,11 -163,41 -102,15 -76,1 -36,-5 -36,-21 -20,-25 0,-25 15,-10 25,5 46,20 51,-1 51,0 87,-15 61,-16 71,-10 61,-10 61,-16 56,-10 61,-11 86,-20 82,-16 86,-20 82,-11 71,-10 71,-15 92,-11 86,-15 107,-16 107,5 46,0 66,-1 51,-10 30,0 16,15 25,10 20,-5 26,10 25,0 15,-10 0,-15 -15,-16 -5,-25 30,-20 21,10 10,5 15,-10 21,-11 40,0 36,5 25,20 31,36 36,20 25,5 26,-5 20,-20 25,5 21,-1 5,-15 20,-10 26,5 30,30 36,41 5,35 -25,36 -41,20 -45,16 -61,15 z" />
<path id="2163" d="M -14153,29854 l 10,20 -5,15 -10,5 -20,6 -15,-11 -21,-15 -31,-30 -30,-40 -16,-21 -10,-20 -5,-20 5,-16 5,-5 15,-10 16,5 10,10 5,21 5,15 21,15 10,10 0,15 5,10 10,11 15,10 21,10 z" />
<path id="2166" d="M -13750,30147 l -25,-5 -10,-10 -11,-15 5,-21 16,-5 20,0 5,-5 5,-15 10,-26 20,-15 26,5 20,20 6,31 -5,30 -21,26 -20,5 z" />
</g>
</clipPath>
<g stroke="black" fill="none" stroke-linejoin="round" stroke-width="54" clip-path="url(#state_clip_path)">
<use xlink:href="#state_outline" fill="black" stroke-width="236" />
<path id="Autauga" d="M 2068,2319 l 12,2253 12,1020 -67,21 -96,76 -108,15 -66,0 -97,-55 -26,10 -25,35 10,56 -15,65 -5,106 -36,61 -51,51 -36,50 -35,10 -82,-10 -41,16 -10,45 31,116 -21,46 -46,30 -81,10 -245,46 -57,-20 -15,-25 -21,-137 -30,-111 -41,-40 -108,0 -112,-66 -46,-15 -56,26 -26,30 -35,91 -21,15 -30,-5 -164,-106 -31,-45 31,-197 -10,-61 -41,-65 -41,-10 -102,40 -108,-5 -56,36 -35,55 0,51 5,76 -20,86 -123,136 -117,96 -46,0 -240,-80 -77,-157 10,-81 0,-96 10,-75 -5,-41 -26,-25 -46,10 -92,112 -86,50 -103,5 -163,-65 -61,30 -10,248 15,15 72,313 -107,182 -61,76 -82,61 -40,20 -67,5 -41,-20 -30,-25 -21,-40 -10,-36 5,-156 20,-61 77,-76 10,-71 -5,-55 -52,-132 -77,-90 -66,-61 -41,-81 -61,-75 -31,-71 -5,-106 10,-31 20,-15 61,-25 62,-25 20,-16 10,-20 -15,-20 -26,-20 -102,-35 -46,-41 -31,-25 -61,-10 -36,5 -61,5 5,-50 46,-71 -5,-40 -21,-41 -31,-35 -30,-10 0,-25 -31,-91 -62,-96 -35,-36 35,-50 -31,-106 -66,-86 10,-61 -36,-90 -31,-76 -56,-51 15,-50 -35,-41 9,-156 41,-76 -10,-167 -21,-151 -31,-202 -51,-126 15,-177 -72,-146 30,-31 -56,-76 5,-30 36,-61 843,45 1068,-17 -11,-485 2126,-23 20,0 z" />
<g id="Baldwin">
<path id="5016" d="M -9360,18494 l -8,841 0,75 1,244 -5,131 -8,694 -3,760 154,4 17,36 13,60 23,112 23,80 7,66 -4,56 -13,71 -29,57 -37,60 -50,84 -49,93 -24,51 -18,56 -10,56 -10,30 -16,36 -15,25 -30,25 -16,21 -4,28 1,35 6,36 -9,30 -25,26 -25,16 -20,26 -4,31 -9,41 -14,27 -9,17 -15,28 -9,24 15,20 35,21 6,5 16,14 3,7 16,29 6,35 6,46 4,39 16,22 15,10 26,15 17,28 7,8 17,19 10,11 30,15 26,10 25,15 10,26 9,26 3,7 9,27 21,45 41,31 40,25 57,20 35,25 21,36 29,32 9,10 28,29 61,65 25,31 23,28 19,12 20,10 14,22 20,30 7,19 21,15 20,10 15,25 3,25 3,30 0,11 3,8 15,37 18,26 40,46 18,39 0,8 4,28 -1,8 -1,43 9,40 4,7 20,34 6,5 34,35 7,5 55,40 7,4 43,22 24,10 31,23 18,32 4,7 16,23 31,31 6,5 14,10 7,1 47,15 9,1 32,8 50,11 17,5 26,15 20,36 0,15 -5,15 0,15 21,10 5,16 4,12 8,10 25,10 16,-7 13,10 10,20 11,15 25,5 20,0 21,10 20,0 26,10 30,-5 21,5 24,18 26,24 21,19 26,24 6,4 45,27 30,0 26,16 30,20 26,25 15,5 21,25 30,21 26,5 41,20 20,20 10,20 10,31 16,40 10,31 10,20 5,29 13,13 18,19 17,18 6,25 1,36 -4,25 11,30 0,21 -9,20 1,32 1,29 6,45 11,30 -4,31 -15,31 -9,41 -4,35 2,41 -5,20 -24,36 -15,16 -20,6 -21,16 -19,15 -2,9 5,15 10,20 -5,31 -10,20 -10,46 0,35 -5,31 -5,20 -20,30 -11,29 -5,25 -9,21 -25,16 -15,20 -10,11 11,25 6,20 -15,26 -15,10 -24,0 -30,6 -15,20 0,20 -5,26 -4,22 -12,8 -20,15 -23,19 -15,26 -10,30 -9,26 -39,52 -5,20 1,20 1,16 -28,4 5,16 21,15 -10,10 -21,10 -20,5 0,15 10,21 -5,20 -9,32 4,24 10,20 16,15 5,20 -10,26 5,20 15,15 26,10 20,21 -4,25 11,15 15,8 21,11 6,25 0,20 6,26 16,14 16,15 -20,11 -21,-5 -15,6 -5,20 -35,42 -10,50 10,46 25,46 31,55 36,41 31,30 25,25 20,21 21,25 25,15 46,10 26,5 20,15 36,31 25,10 16,5 20,5 10,10 5,15 0,10 -20,21 -10,25 -5,35 -5,36 -10,30 -10,31 -21,10 -15,0 -25,15 -21,26 -30,15 -76,0 -41,-5 -46,16 -31,10 -25,40 -30,51 -26,46 -30,20 -46,26 -25,45 -10,41 -5,30 0,66 10,26 -20,25 -31,26 -20,40 -30,61 -10,25 -21,51 -20,15 -35,31 -41,25 -41,46 -30,41 -31,35 -20,16 -15,-5 -10,-11 -11,-25 -5,-15 0,-20 -5,-26 -5,-25 -5,-51 -1,-40 0,-31 -10,-30 -10,-31 -21,-5 -20,11 -20,20 0,46 16,96 -6,41 11,45 5,25 -15,26 -21,15 -20,5 -10,-5 -10,-10 0,-25 5,-36 0,-35 -6,-41 -10,-30 -10,-31 -26,-30 -20,-10 -26,5 -20,31 5,35 10,30 6,31 -10,30 -21,16 -25,10 -31,20 0,31 21,20 30,-5 36,-16 26,5 5,26 0,10 -20,51 -16,71 -15,35 -10,20 -20,11 -26,-5 -10,-10 -20,-11 -31,-30 -25,0 -31,10 -15,26 10,20 5,36 -10,10 -20,5 -15,0 -6,10 6,25 20,16 -5,20 -15,10 -21,5 -25,-10 -20,-10 -16,-20 -5,-41 0,-35 -16,-31 -35,-20 -31,10 -15,41 10,30 6,31 -10,15 -16,-5 -20,-15 -26,-15 -30,0 -26,15 -10,41 0,40 -20,15 -20,0 -21,-15 -10,-20 -36,-96 -5,-51 15,-76 15,-31 10,-25 15,-25 21,-21 0,-45 10,-21 20,-25 15,-20 -5,-26 -20,-25 -16,5 -30,5 -26,0 -20,16 -15,30 -5,41 0,35 -20,31 -21,0 -10,-5 -10,-21 -10,-15 -5,-10 -16,-20 -10,-20 0,-77 -10,-25 -16,-25 -5,-31 -5,-30 -15,-20 -26,5 -20,30 -5,31 -10,10 -10,-5 -21,-5 -25,-5 -21,25 6,41 30,15 41,0 30,10 16,25 -5,26 -15,15 -26,5 -20,0 -31,5 -15,10 -5,21 15,20 31,5 30,10 26,5 5,20 -5,16 -15,10 0,25 10,36 15,25 21,20 36,20 15,10 10,16 -10,30 -15,25 -20,36 -31,31 -20,10 -36,10 -35,25 -21,31 0,40 16,16 30,0 21,-11 45,0 51,20 72,26 56,10 40,-6 56,-20 26,-20 20,-26 36,-20 25,-10 26,0 20,10 20,15 21,25 20,10 26,0 30,-15 36,-15 50,-31 16,-15 45,-21 26,-25 25,-15 31,-6 46,11 30,20 0,30 -5,25 -35,26 -41,10 -41,5 -35,11 -46,30 -25,20 -31,26 -25,-10 -21,-15 -30,-10 -56,5 -41,5 -30,15 -16,21 0,25 26,15 20,20 -15,16 -20,5 -21,0 -25,-5 -26,15 -20,20 -10,36 10,10 26,0 30,-5 26,-15 25,-11 20,0 11,16 -5,25 -16,20 -117,31 -152,46 -127,36 -82,25 -106,41 -97,26 -86,15 -56,21 -56,15 -67,-5 -71,-5 -86,21 -92,10 -81,16 -82,15 -51,0 -213,31 -168,36 -112,26 -92,15 -91,21 -71,5 -138,6 -61,5 -20,5 -82,10 -81,11 -81,0 -97,-15 -82,-10 -56,5 -66,6 -20,0 -122,-5 -133,-10 -107,-5 -96,-4 -122,-5 -112,-5 -128,6 -122,5 -71,0 -56,11 -87,10 -86,16 -107,30 -91,21 -66,15 -41,11 -31,0 -20,-15 -5,-26 0,-20 10,-10 15,-21 25,-30 10,-31 21,-10 35,-15 36,-5 41,0 76,-6 56,-5 61,-15 56,-1 107,0 41,-15 15,-5 20,-16 21,10 5,16 0,20 10,5 15,5 21,-10 35,-21 15,-15 0,-15 -20,-15 -31,-10 -20,-10 -15,-21 5,-15 15,-15 25,-10 31,0 20,5 20,-11 -5,-10 -10,-15 -5,-15 10,-20 25,-21 31,-10 30,-10 46,-5 36,-1 46,15 35,26 36,25 26,25 10,21 10,25 5,25 16,10 25,0 26,15 35,21 72,25 137,9 158,-5 36,-5 25,-5 41,-6 40,-5 21,-10 15,-15 25,-21 36,-15 46,-10 40,-5 31,-6 25,-15 16,-15 20,-15 30,-6 61,5 72,5 30,5 82,5 96,-15 72,-21 40,-20 41,-21 20,-20 15,-20 16,-26 15,-25 30,-41 21,-25 20,-26 10,-30 15,-21 10,-5 15,-10 21,-15 0,-56 10,-15 20,-10 20,5 11,10 20,35 10,46 6,30 0,51 -10,31 -10,35 -5,30 10,26 15,10 21,5 25,-5 20,-5 26,-21 40,-30 26,-31 5,-25 0,-31 -16,-25 -20,-20 -21,-15 -30,-10 -10,-10 -21,-31 -10,-15 -5,-25 -10,-26 -1,-30 6,-10 5,-26 -21,-25 -81,0 -26,5 -25,11 -26,20 -10,20 0,21 6,20 -16,5 -15,-5 -20,-20 -21,-41 -46,-71 -20,-40 -21,-25 -51,-46 -46,-30 -56,-31 -46,-30 -51,-45 -61,-46 -61,-40 -57,-56 -46,-71 -35,-45 -36,-51 -31,-45 -20,-36 -21,-35 -5,-15 -10,-31 -5,-30 5,-26 20,-15 20,-10 10,-15 0,-26 -5,-35 5,-26 15,-25 31,-25 30,-6 26,5 40,16 11,-6 10,-15 5,-5 0,-20 -5,-26 -16,-15 -20,-15 -21,-20 -10,-30 -5,-46 -5,-25 -5,-26 5,-30 -11,-10 -25,-5 -5,-16 -16,-15 -25,0 -10,5 -15,21 -11,15 -5,30 -15,26 -25,25 -20,31 -26,25 -20,46 0,35 26,46 15,35 21,26 0,35 -10,5 -11,10 -15,6 -15,0 -20,-5 -26,-5 -81,-15 -51,-26 -46,-25 -51,-35 -67,-51 -66,-60 -56,-56 -36,-40 -41,-21 -36,-20 -25,-30 -16,-71 -5,-86 -11,-91 -20,-87 -16,-76 -10,-50 -16,-56 -10,-41 0,-40 -5,-61 -21,-40 -30,-41 -36,-15 -31,-20 -30,-15 0,-26 15,-20 25,-36 31,-30 10,-41 -1,-35 16,-36 30,-50 20,-41 31,-46 20,-30 30,-46 21,-41 20,-66 25,-45 20,-41 20,-61 5,-55 5,-56 -10,-46 -5,-51 -16,-60 -25,-51 -26,-35 -15,-41 -16,-35 -10,-36 0,-35 10,-51 15,-76 10,-66 0,-56 -6,-40 -5,-46 -20,-40 -26,-15 -15,-21 0,-35 15,-26 20,-20 0,-35 -15,-16 -21,11 -20,0 -31,-31 0,-35 10,-41 0,-15 -30,-10 -21,-15 -5,-20 -15,-21 -21,-15 -25,-30 15,-25 30,-6 21,-15 5,-25 0,-26 -16,-15 -25,-5 -36,0 -30,11 -36,5 -20,0 -11,-10 -112,-30 -61,-10 -82,-15 -122,-20 -112,-30 -36,-10 -41,-24 38,-77 33,-57 12,-62 -9,-87 -58,-68 -57,-138 4,-162 -109,-143 54,-124 -15,-122 78,-108 191,-73 35,-19 0,-59 9,-128 247,-127 136,-6 52,-40 0,-141 -132,-173 -223,-97 -46,-145 111,-200 184,-162 9,-117 8,-38 5,-41 20,-25 31,-21 25,-10 82,0 61,-31 56,-35 -6,-61 -15,-40 -36,-31 -46,-20 -31,-20 -25,-35 -26,-81 -36,-41 -46,-10 -81,-5 -31,-25 0,-35 30,-66 5,-61 31,-56 10,-56 -11,-81 -5,-25 -15,-20 -16,-25 5,-21 11,-20 20,-15 25,0 26,-5 15,-16 25,-71 -25,-25 -21,-35 -15,-26 -10,-35 10,-36 25,-20 92,-71 25,-56 10,-66 -5,-81 -26,-50 -46,-31 -133,-4 -10,-10 -51,-61 -56,-76 0,-45 10,-51 71,-76 86,-97 96,-132 21,-40 15,-76 10,-91 10,-36 20,-40 5,-41 -10,-20 -26,-10 -25,10 -56,31 -72,0 -66,-20 -26,-31 -36,-75 0,-36 26,-20 41,0 91,20 46,-16 56,10 36,0 25,-20 -15,-30 -36,-61 -10,-41 15,-60 5,-31 -5,-50 -16,-61 87,40 56,5 36,20 71,25 56,-10 16,-20 -6,-36 56,-40 26,-41 30,0 41,15 15,-30 41,-21 51,-30 30,15 1,40 30,0 51,25 31,-5 -16,-136 5,-31 15,-15 26,0 30,35 57,71 31,30 51,-5 30,-30 5,-26 -36,-45 -51,-40 -31,-46 -20,-71 0,-55 30,-41 41,-15 35,5 31,30 56,81 36,5 26,-31 -6,-30 -61,-66 -10,-25 20,-30 31,-36 10,-35 -16,-46 -30,-15 -16,0 -56,5 -25,-10 -1,-35 16,-31 30,-5 41,20 61,10 31,-10 35,-41 16,-70 25,-66 25,-26 41,-15 26,5 46,25 86,66 46,10 56,-21 56,-40 21,-36 -6,-40 -30,-36 -51,-55 -1,-31 -5,-25 -51,-71 -61,-60 -21,-96 5,-21 31,-15 30,0 41,30 26,31 5,45 5,36 41,60 26,10 15,31 41,5 102,35 25,-5 21,-31 86,-10 61,15 21,-15 71,-46 31,-10 56,15 51,15 56,-16 41,0 46,26 41,55 35,66 31,40 41,15 31,26 66,121 92,101 52,40 56,51 56,35 76,15 41,20 67,41 46,10 122,-11 z" />
<path id="5163" d="M -8246,29015 l 46,-10 25,-15 31,-15 45,-6 26,0 41,-5 25,-5 26,-10 10,-5 15,5 5,15 5,20 -10,10 -25,16 -36,5 -25,10 -26,5 -66,11 -25,5 -21,5 -25,10 -31,15 -51,21 -55,10 -41,0 -36,10 -41,11 -60,20 -62,20 -30,21 -31,0 -10,-15 10,-26 21,-15 30,-10 20,-5 26,-11 30,-10 21,-5 35,-10 16,-5 20,-15 0,-21 10,-20 15,-10 21,-5 15,0 25,5 31,10 25,0 z" />
<path id="5169" d="M -8654,29214 l 7,40 -41,11 -92,16 -66,10 -10,-15 0,-16 10,-20 20,-15 21,-5 40,5 41,5 36,-16 z" />
</g>
<path id="Barbour" d="M 14861,9357 l -6,48 -17,97 3,61 2,55 -3,61 1,35 7,46 11,35 6,25 1,25 -9,31 -14,31 -30,46 -21,30 -25,46 -24,68 -3,38 -1,8 -3,48 9,99 21,34 7,30 -12,29 -27,23 -34,32 -46,22 -31,24 -13,28 2,46 8,39 3,13 5,16 7,22 -1,43 -6,25 -25,29 -19,26 -25,31 -22,21 -26,20 -26,25 -20,24 -9,25 -19,26 -25,22 -24,19 -20,21 -21,13 -10,17 7,18 9,12 20,15 8,17 2,29 -5,32 -5,44 -8,12 -20,11 -31,6 -45,2 -39,4 -43,4 -20,11 -9,20 6,31 16,24 16,25 6,30 2,41 -9,35 -16,47 -21,46 -15,31 -10,24 0,41 5,30 5,26 -5,35 -9,16 -17,29 -5,26 -5,50 10,41 18,26 13,19 10,36 10,70 10,97 -1,80 -14,76 -15,66 -21,46 -15,35 -5,35 5,12 5,14 15,15 36,20 26,20 17,30 22,44 11,43 -45,-46 -82,-35 -51,-26 -82,-10 -66,71 -26,51 -178,136 -107,66 -77,15 -26,41 -30,333 -46,86 -1051,-20 -822,-5 0,977 -714,-5 -1898,46 -362,0 -179,5 138,-101 15,-31 10,-81 46,-60 67,-147 5,-51 -10,-45 5,-96 0,-167 -16,-81 21,-31 66,-50 25,-41 16,-40 -16,-46 16,-35 0,-51 5,-141 20,-56 36,-50 107,-86 117,-92 51,-65 16,-41 15,-86 25,-66 -5,-35 -15,-45 -41,-71 -41,-117 11,-40 15,-66 -15,-30 -11,-30 5,-142 0,-101 6,-137 25,-91 51,-121 46,-51 25,-30 16,-30 -10,-46 5,-30 30,-51 16,-35 10,-96 143,-238 71,-111 72,-46 35,-40 67,-132 56,-162 51,-60 25,-41 26,-91 41,-56 377,-20 77,-5 46,35 46,-50 163,-5 -5,-157 46,-5 347,0 -5,-91 77,0 10,86 194,-5 122,-5 -20,-410 15,-804 0,-166 128,-6 41,0 -5,-75 378,-16 250,0 796,-20 -5,91 51,30 67,46 91,76 12,22 -90,6 -2,59 120,-9 1,3 46,116 31,86 41,50 91,21 46,35 16,45 30,11 26,5 20,15 16,35 25,25 -15,61 5,36 56,50 20,30 649,-15 41,0 5,-76 76,-5 -5,76 82,0 296,-5 z" />
<path id="Bibb" d="M -4030,-3674 l 363,4 6,409 41,5 5,25 -5,176 -40,-4 5,287 200,0 0,40 255,5 21,5 0,35 46,5 -4,656 174,0 -10,222 164,0 0,161 128,-5 5,41 36,-1 0,41 163,0 0,85 205,0 -1,2368 -358,-15 -409,-4 -25,0 -215,5 -332,6 -1820,8 -92,1 -92,35 -337,1 -470,1 4,-490 -951,7 13,-1081 -11,-363 966,-17 10,-242 65,-728 280,-429 767,29 4,-646 362,-359 0,-61 102,-101 256,5 5,156 164,0 255,-278 z" />
<path id="Blount" d="M 1663,-14900 l 82,5 -10,106 359,534 749,901 35,56 77,35 21,60 51,46 21,35 -179,298 -92,277 5,106 1,570 -92,146 -36,116 -61,30 -21,66 -66,45 -56,96 -17,22 410,-4 -10,20 62,42 5,31 -36,50 -92,46 -46,55 -92,25 -10,96 51,101 -20,136 -92,101 -118,71 -184,172 -173,202 -189,156 -113,5 -159,6 -189,91 -159,-15 -153,40 -92,101 -517,1 -4,408 -645,-9 -5,-40 -1,-61 -1029,-729 -31,0 -1121,-29 -490,308 -154,1 -11,-333 -77,5 0,-151 -21,-52 6,-39 21,-18 62,-8 40,2 55,0 42,2 11,2 14,-6 57,5 40,-35 41,-101 15,-91 -15,-35 -36,-40 10,-116 15,-41 51,-60 21,-10 31,25 56,15 72,-31 87,-10 25,-25 20,-81 -5,-45 -5,-25 41,-16 61,0 57,10 56,41 15,-5 11,-41 5,-40 51,-46 107,-70 41,-21 26,5 51,56 41,40 41,-10 -16,-50 -20,-46 -5,-60 30,-10 82,40 57,-10 71,25 82,-56 -10,-25 -36,-20 15,-25 31,-26 61,-20 52,20 35,-5 6,-25 -41,-25 15,-21 61,-5 46,-40 0,-86 26,-35 -11,-71 26,-25 25,-20 62,-5 41,-15 41,-16 15,-30 -5,-55 20,-26 51,-50 67,-41 36,-55 -11,-50 21,-61 51,10 46,10 31,0 56,-61 -5,-50 -57,-76 0,-55 36,-51 51,-60 26,10 10,15 10,40 46,41 46,-16 -10,-40 -77,-146 -72,-60 -30,-41 15,-30 41,-15 25,-10 46,-76 31,15 -15,101 25,10 77,-40 46,-31 26,10 31,5 107,-91 0,-116 30,-30 31,-15 72,20 0,-55 10,-26 102,-65 41,-10 21,10 36,30 35,50 16,0 46,-45 46,-31 20,-20 -25,-5 -11,-20 11,-55 51,-61 56,-30 10,-56 -15,-35 15,-25 46,-10 5,-46 67,-60 20,-81 26,-30 56,-41 25,-45 52,-51 92,-50 5,-20 -52,-20 -46,-26 0,-45 62,-50 -31,-46 5,-30 36,-10 56,-61 -20,-15 -21,-10 36,-25 25,-30 26,-66 25,0 41,15 62,-45 10,-46 -5,-30 -11,-75 52,-101 56,-31 66,5 36,10 21,36 36,10 51,-61 46,-66 z" />
<path id="Bullock" d="M 6730,7099 l 189,-15 -5,-359 26,20 41,61 51,40 66,25 31,31 56,101 -25,212 -26,91 0,91 36,45 102,91 36,20 4003,-52 0,15 10,106 0,41 46,647 10,162 164,0 5,75 -41,0 -128,6 0,166 -15,804 20,410 -122,5 -194,5 -10,-86 -77,0 5,91 -347,0 -46,5 5,157 -163,5 -46,50 -46,-35 -77,5 -377,20 -41,56 -26,91 -25,41 -51,60 -56,162 -67,132 -35,40 -72,46 -71,111 -143,238 -10,96 -16,35 -30,51 -5,30 10,46 -16,30 -25,30 -56,-5 -883,11 -123,5 -173,-5 -5,-218 0,-359 5,-323 0,-61 -889,6 0,-162 -46,0 0,-76 -40,-5 -1,-51 0,-70 -10,-526 -168,5 0,-81 -368,6 5,-81 -41,0 0,40 -41,0 0,36 -46,5 11,161 -158,0 -6,-126 -41,5 0,41 -81,-5 0,-36 -41,-5 0,-237 -5,-177 -32,-1790 122,-5 0,-242 z" />
<path id="Butler" d="M 1756,10556 l 11,1259 5,46 36,5 0,35 41,5 -5,81 -36,-5 5,46 -40,0 0,637 41,0 5,162 -40,5 5,460 -30,364 0,324 -484,6 1,1123 6,319 -1928,2 -1301,-13 -10,-25 -26,-56 -19,-19 -96,-19 -82,-69 -49,-98 -8,-146 -43,-128 -70,-61 -88,-275 -89,-150 -65,-135 4,-639 10,-51 10,-207 -11,-440 -7,-860 -7,-1097 -5,-21 -1,-333 485,-6 1016,3 z" />
<path id="Calhoun" d="M 8270,-11705 l 1935,120 -5,161 -10,419 -6,166 -639,-4 0,166 -328,-5 6,323 414,0 61,5 1,484 -159,0 0,156 -164,5 0,157 -153,5 0,943 11,444 -82,-5 0,81 -41,-5 0,45 -36,0 0,121 -281,-5 -41,-5 0,172 -241,-5 -81,-5 5,106 0,55 -123,-5 -41,-5 0,202 -15,293 -481,-5 0,-66 5,-141 5,-116 -1576,6 -276,-4 0,-147 -251,-15 -5,-25 0,-30 15,-71 -20,-91 -21,-45 -20,-65 0,-116 5,-51 -31,-35 -41,-30 -72,-46 -40,-65 -21,-61 -10,-45 -5,-25 -420,-25 -107,-10 -389,-25 5,-51 -6,-186 16,-91 30,-35 41,-10 92,20 52,-21 25,-95 31,-41 82,-65 81,-61 133,-66 51,-65 87,-96 108,-56 61,-10 26,0 10,-76 -31,-80 -66,-96 -62,-86 -10,-35 -5,-45 5,-61 15,-50 20,-46 46,-45 26,-51 0,-35 -31,-45 -56,-46 -26,-40 0,-20 11,-20 148,5 0,-121 256,9 -6,-161 246,10 5,-167 77,10 0,-161 158,5 0,-237 159,10 0,-81 159,-5 5,161 317,0 -5,-403 169,-5 0,-81 327,0 0,-81 323,116 568,100 82,20 z" />
<path id="Chambers" d="M 9706,-2166 l 1007,-30 2359,-17 32,161 51,271 7,53 97,581 56,343 24,143 109,645 55,324 24,106 3,9 20,91 19,50 32,26 51,10 36,0 20,-15 31,-5 26,10 20,20 31,46 10,35 -6,20 -25,30 -35,18 -25,21 -16,22 -23,30 -3,30 6,41 17,29 6,30 2,37 -11,35 -3,35 12,35 16,25 37,42 61,30 70,28 31,24 27,34 5,45 10,10 18,15 32,19 42,22 31,15 26,15 6,25 -15,26 -25,16 -38,19 -32,14 -35,26 -25,21 -16,30 -5,30 10,31 16,35 15,30 7,25 12,35 -147,1 -485,10 -389,15 -347,5 5,157 -31,5 -787,10 -301,0 -5,-81 -82,11 0,-86 -158,0 0,161 -486,5 5,-80 -81,0 0,75 -624,26 -102,0 -5,-81 -82,5 5,76 -153,10 0,-126 -5,-66 -26,-2822 0,-61 z" />
<path id="Cherokee" d="M 10285,-17891 l 227,1201 264,1444 134,731 23,150 18,80 234,1314 100,559 127,726 -81,0 -5,40 -164,0 5,40 -645,6 0,166 -322,10 5,-161 -1935,-120 10,-237 -123,-257 -374,-816 -41,-137 -26,-115 0,-46 51,-91 5,-35 -46,-40 -56,-5 -102,35 -62,46 -112,121 -72,10 -15,-5 -6,-177 -21,-806 -5,-494 123,30 46,10 72,20 61,-10 15,0 5,-217 282,0 56,-20 850,-888 36,-40 -16,-36 36,-50 36,-35 0,-46 51,-45 138,-15 26,-66 20,5 16,30 41,0 10,-15 31,-45 36,-10 0,-25 -21,-56 26,-25 25,0 46,-56 -46,-60 -25,-20 5,-35 87,45 25,-15 31,-126 26,-21 10,-40 31,-15 41,-25 -16,-66 113,-40 -21,-50 67,-41 15,-40 26,-40 -5,-66 -41,-136 41,-10 15,-25 -31,-91 41,-10 56,40 -5,-121 -25,-10 -11,-20 -20,-35 56,-26 21,-40 82,-10 15,-20 -10,-111 36,-15 35,5 31,35 26,0 36,-70 51,-51 5,-30 20,-15 46,-26 41,0 -25,-40 5,-30 26,-35 z" />
<path id="Chilton" d="M -2313,-1482 l 5,-227 511,-11 0,30 1984,-8 -72,66 -10,61 21,30 127,10 46,91 52,40 102,40 46,56 67,55 56,81 97,20 87,-30 61,-21 62,-5 66,5 36,15 20,15 -20,91 -10,86 0,51 31,50 46,66 31,70 0,61 -26,106 -15,71 5,95 11,106 5,81 10,66 0,55 51,81 36,71 46,5 26,30 56,106 46,156 26,106 51,61 31,25 46,10 102,20 51,30 41,41 16,50 -16,36 -10,20 -51,45 -36,71 -20,76 0,45 11,111 10,61 41,15 71,-10 31,5 0,30 -10,25 10,46 77,60 61,71 77,15 36,10 25,30 26,81 61,86 36,50 56,76 133,61 67,35 5,15 -368,10 1,465 -680,-4 -20,0 -2126,23 11,485 -1068,17 -843,-45 -455,1 -61,0 -419,6 -12,-732 -7,-1192 332,-6 215,-5 25,0 409,4 358,15 1,-2368 z" />
<path id="Choctaw" d="M -12186,6645 l -5,26 -20,55 -5,81 25,66 -15,45 -35,26 -103,-10 -10,-30 56,-61 25,-71 0,-45 -25,-41 -46,-10 -72,56 -76,41 -56,0 -31,-20 -21,-66 -20,-25 -41,-10 -51,40 -25,71 -26,15 -25,11 -77,-5 -46,5 -15,25 0,31 10,70 -10,26 -30,0 -52,-41 -35,-5 -10,26 -5,70 -5,76 15,26 46,40 41,35 6,81 -5,66 -66,111 0,46 51,95 21,81 -56,182 31,81 16,35 5,81 -15,86 -61,218 -56,111 -35,31 -102,-15 -41,25 -15,46 -10,151 -15,71 -46,86 -20,46 -10,66 41,70 21,46 10,50 -25,61 -66,51 -67,45 -66,97 -25,5 -21,-5 -82,-66 -61,-40 -46,15 -81,46 -77,51 -81,76 -5,66 36,90 5,46 -35,172 -5,76 52,101 46,81 87,80 35,-15 10,-71 -5,-76 26,-15 35,10 42,111 66,71 51,40 16,25 -10,21 -46,40 -26,41 6,55 51,106 -10,26 -41,25 -25,20 -21,0 -20,-15 -72,-75 -41,-20 -36,0 -45,15 -36,20 -71,46 -61,61 -11,30 1,36 36,60 20,10 51,-10 41,0 41,35 72,121 30,36 26,-6 76,-60 87,-72 25,-5 31,5 51,61 36,45 -10,31 -31,20 -56,-10 -61,-10 -21,5 -40,26 -41,50 -36,16 -56,25 -86,10 -56,16 -77,25 -66,0 -46,11 -36,30 -20,122 -40,136 -51,142 -30,61 -133,81 -25,41 -10,121 -15,35 -36,31 -55,56 -31,50 -46,56 42,131 108,197 5,142 21,40 30,71 169,167 21,5 81,-41 11,-25 96,-77 51,-5 41,10 36,30 93,253 10,76 -9,217 36,142 -3532,-40 -11,-485 -24,-840 -12,-822 -2,-93 89,-719 209,-1638 156,-1263 47,-388 62,-518 1836,44 2334,3 z" />
<path id="Clarke" d="M -13620,10178 l 756,23 1516,1 668,18 904,-7 -2,1279 291,0 138,65 7,481 576,3 551,-21 1,177 -163,-10 8,1295 -479,1 -3,799 2,784 -16,6 -81,50 -97,87 -102,106 -45,41 -82,30 -51,21 -46,40 6,56 30,45 108,101 127,86 133,65 87,56 46,50 5,61 -15,101 -45,167 -46,147 -35,41 -82,66 -30,25 -36,51 -56,66 -25,20 -51,26 -46,5 -61,0 -56,-35 -72,-66 -61,-66 -31,-20 -56,-15 -56,0 -71,11 -72,30 -86,76 -87,81 -35,21 -133,25 -35,36 -16,46 -55,111 -31,46 -66,56 -10,40 5,46 21,106 -5,142 -5,50 -35,46 -61,30 -51,21 -56,5 -51,-20 -31,-51 10,-141 4,-61 -15,-41 -36,-35 -25,-10 -31,15 -25,36 0,136 -25,46 -51,56 -51,35 -46,46 -15,51 1,111 10,66 61,66 72,40 20,15 16,25 -21,31 -25,5 -102,-35 -41,-5 -15,-31 -26,-10 -41,-60 -5,-36 -5,-45 -26,-31 -41,-30 -30,0 -31,15 -5,21 21,96 61,60 51,71 5,25 1,31 51,55 30,36 6,40 -21,36 -56,40 -56,21 -46,-10 -86,-66 -46,-25 -26,-5 -41,15 -25,26 -25,66 -16,70 -35,41 -31,10 -61,-10 -41,-20 -30,5 -16,31 1,35 25,10 56,-5 16,0 30,15 16,46 -10,35 -31,36 -20,30 10,25 61,66 6,30 -26,31 -36,-5 -56,-81 -31,-30 -35,-5 -41,15 -30,41 0,55 20,71 31,46 51,40 36,45 -5,26 -30,30 -51,5 -31,-30 -57,-71 -30,-35 -26,0 -15,15 -5,31 16,136 -31,5 -51,-25 -30,0 -1,-40 -30,-15 -51,30 -41,21 -15,30 -41,-15 -30,0 -26,41 -56,40 6,36 -16,20 -56,10 -71,-25 -36,-20 -56,-5 -87,-40 -15,-61 -6,-30 5,-41 21,-25 51,-31 20,-20 5,-35 5,-61 66,-46 0,-35 -26,-26 -25,-40 -36,-66 -31,-45 -46,-25 -51,-10 -61,-20 -36,-41 -41,-71 -26,-5 -20,6 -66,25 -36,0 -20,-15 0,-30 20,-21 36,-20 50,-56 36,-20 31,-5 35,5 51,25 26,15 20,-5 10,-20 0,-31 -10,-40 -15,-41 5,-25 20,-20 30,-21 31,-20 10,-30 0,-51 -10,-30 -46,-26 -57,-30 -30,-40 -11,-41 5,-25 16,-30 30,-11 46,0 82,10 30,10 36,25 46,26 41,4 30,-30 10,-40 10,-76 20,-82 0,-80 21,-26 25,-5 20,5 21,15 20,25 0,21 -30,50 -20,31 0,20 20,25 36,5 20,-5 16,-25 10,-26 5,-50 10,-31 25,-35 31,-41 15,-40 10,-61 25,-41 36,-65 5,-26 -6,-30 -25,-56 55,-187 5,-56 -15,-35 -31,-10 -15,30 0,76 -51,61 -36,-76 -76,-15 -87,16 -25,30 41,111 -10,15 -31,-5 -41,-50 -35,-5 -113,51 -40,0 0,-35 71,-41 51,-66 -1,-51 16,-40 46,-5 137,9 61,-20 0,-35 -5,-26 -15,-30 -26,-15 -46,-10 -35,10 -36,20 -26,11 -20,-21 0,-35 15,-30 41,-41 91,-76 16,-26 -1,-20 -20,-20 -51,-35 -31,-41 -56,-20 -51,-25 -15,-35 10,-21 25,-10 77,-10 40,-10 31,-36 10,-30 0,-41 -5,-50 -26,-71 0,-30 56,-77 35,-70 25,-66 0,-66 -31,-25 -117,-66 -46,-40 -21,-86 -41,-66 -61,-60 -56,-31 -128,-14 -107,-15 -36,-20 -31,-36 -35,-40 -77,-20 -72,-20 -102,-66 -56,-25 -92,-50 -56,-35 -57,-91 -41,-66 36,-15 26,5 102,50 46,-10 15,-36 -57,-91 -41,-15 -239,-14 -82,-40 -87,-66 -77,-81 -10,-55 15,-36 25,-55 0,-41 -10,-40 -26,-46 -36,-50 -25,-61 -16,-131 -26,-71 0,-31 20,-20 41,-10 46,-20 20,-31 -15,-71 -5,-35 -21,-56 -51,-85 -6,-36 -10,-81 -5,-20 -36,-142 9,-217 -10,-76 -93,-253 -36,-30 -41,-10 -51,5 -96,77 -11,25 -81,41 -21,-5 -169,-167 -30,-71 -21,-40 -5,-142 -108,-197 -42,-131 46,-56 31,-50 55,-56 36,-31 15,-35 10,-121 25,-41 133,-81 30,-61 51,-142 40,-136 20,-122 36,-30 46,-11 66,0 77,-25 56,-16 86,-10 56,-25 36,-16 41,-50 40,-26 21,-5 61,10 56,10 31,-20 10,-31 -36,-45 -51,-61 -31,-5 -25,5 -87,72 -76,60 -26,6 -30,-36 -72,-121 -41,-35 -41,0 -51,10 -20,-10 -36,-60 -1,-36 11,-30 61,-61 71,-46 36,-20 45,-15 36,0 41,20 72,75 20,15 21,0 25,-20 41,-25 10,-26 -51,-106 -6,-55 26,-41 46,-40 10,-21 -16,-25 z" />
<path id="Clay" d="M 7265,-6484 l -5,76 -159,5 0,161 -169,6 1,80 976,-5 0,-162 159,0 -5,-171 721,14 414,10 -40,1907 82,0 0,36 -36,5 -5,40 41,-5 -5,121 -82,0 -10,883 41,0 0,66 -5,96 -36,0 -5,131 11,1040 -1381,36 -1621,-4 6,172 -328,0 0,-157 -1538,7 -1,-162 5,-282 5,-566 486,10 4,-434 15,-696 1140,14 144,5 30,-974 327,-1 0,-161 158,0 5,-651 164,0 0,-490 z" />
<path id="Cleburne" d="M 10200,-11424 l 322,-10 0,-166 645,-6 -5,-40 164,0 5,-40 81,0 130,740 117,661 352,2043 21,121 313,1766 -26,10 -62,-71 -71,-5 -108,-40 -92,-46 -30,-55 -31,5 -41,20 26,66 -11,10 -1069,-15 -455,10 -138,1 -302,0 -737,-5 -414,-10 -721,-14 5,171 -159,0 0,162 -976,5 -1,-80 169,-6 0,-161 159,-5 5,-76 506,-485 5,-161 481,5 15,-293 0,-202 41,5 123,5 0,-55 -5,-106 81,5 241,5 0,-172 41,5 281,5 0,-121 36,0 0,-45 41,5 0,-81 82,5 -11,-444 0,-943 153,-5 0,-157 164,-5 0,-156 159,0 -1,-484 -61,-5 -414,0 -6,-323 328,5 0,-166 639,4 6,-166 z" />
<path id="Coffee" d="M 8010,14369 l 10,1331 5,86 -5,71 0,673 5,293 1,107 5,207 0,112 -5,313 -5,836 5,648 -535,0 -734,10 -230,1 -612,15 -989,26 1,122 -87,0 5,-117 -648,16 0,-233 -17,-2520 -5,-248 -6,-749 362,-6 -5,-81 122,-5 -21,-885 1541,-27 1122,5 138,0 z" />
<path id="Colbert" d="M -7254,-20918 l -36,131 -25,126 77,51 51,35 6,60 -62,86 -20,71 36,80 -97,86 -15,76 15,80 36,66 11,50 -67,55 -36,41 -92,55 -35,81 10,101 21,25 5,55 5,106 5,86 -35,65 -87,31 -144,-45 -56,25 -5,45 26,56 -41,30 -10,51 -92,70 -87,86 -5,91 -36,60 -51,51 5,65 41,66 -5,50 -46,46 -46,45 21,61 -56,10 -11,40 -46,61 5,-91 -727,-24 -3150,-104 -1731,-96 74,-570 21,-131 48,-359 158,-1169 34,-322 30,-262 20,-156 45,-420 10,-94 175,20 189,-107 159,-25 92,30 169,100 149,60 205,90 195,171 134,217 31,90 0,15 37,197 77,181 287,261 129,96 123,110 113,151 87,76 185,80 118,25 87,5 231,-11 199,-106 164,-46 138,-177 76,-80 133,-56 226,-61 240,-111 159,-46 26,-5 220,-81 71,-51 41,-111 164,-65 123,-1 87,-50 118,10 41,-26 51,-5 87,25 41,81 87,35 77,30 41,35 323,65 149,50 z" />
<path id="Conecuh" d="M -2584,12899 l 11,440 -10,207 -10,51 -4,639 65,135 89,150 88,275 70,61 43,128 8,146 49,98 82,69 96,19 19,19 26,56 10,25 1301,13 6,982 250,-1 31,21 0,25 -26,25 -5,41 67,71 0,70 -5,76 36,46 -5,61 -21,40 -40,71 0,46 25,75 5,61 -25,51 -31,20 -45,15 -11,26 11,40 -16,25 -61,41 -46,36 -71,0 -31,35 26,41 0,25 -3,1524 0,96 -15,-15 -25,-21 -21,16 -20,30 -92,-15 -20,10 0,20 30,41 -35,5 -67,-5 -51,15 -25,-15 15,-56 -36,0 -30,-40 -36,0 -30,15 -62,-10 -30,26 -61,121 -26,-25 26,-61 -11,-56 16,-30 -21,-15 -56,-15 0,-36 20,-25 26,-30 -5,-16 -36,-15 0,-20 41,-51 25,-40 0,-41 -31,-45 -20,-31 10,-60 -36,-61 0,-25 5,-76 31,-31 46,-45 5,-31 -1035,-8 -699,1 -1224,-3 -2212,-6 -57,1 -504,1 -592,-4 25,-137 97,-106 86,-87 46,-76 127,-91 128,-81 122,-56 46,-71 71,-203 45,-91 72,-36 61,-55 86,-173 51,-55 71,-46 51,-81 86,-97 107,-76 77,-35 427,-482 102,-51 76,-5 51,-36 66,-96 56,-142 117,-202 137,-188 -15,-167 65,-233 61,-237 71,-71 67,-82 30,-60 40,-435 25,-71 82,-51 117,-46 92,-25 97,0 61,-46 56,-86 56,-56 51,-5 61,-20 46,-56 -46,-152 -6,-116 36,-66 91,-111 215,50 127,-6 97,-35 148,-81 153,-82 102,0 82,-55 137,-102 153,-36 61,-35 z" />
<path id="Coosa" d="M 1311,-2073 l 1109,4 1867,-27 1538,-7 0,157 27,1939 11,974 0,51 -35,-6 -21,51 21,30 20,36 15,0 1,121 0,192 5,333 -2923,28 0,-157 -164,-4 -5,156 -414,-4 -133,-61 -56,-76 -36,-50 -61,-86 -26,-81 -25,-30 -36,-10 -77,-15 -61,-71 -77,-60 -10,-46 10,-25 0,-30 -31,-5 -71,10 -41,-15 -10,-61 -11,-111 0,-45 20,-76 36,-71 51,-45 10,-20 16,-36 -16,-50 -41,-41 -51,-30 -102,-20 -46,-10 -31,-25 -51,-61 -26,-106 -46,-156 -56,-106 -26,-30 -46,-5 -36,-71 -51,-81 0,-55 -10,-66 -5,-81 -11,-106 -5,-95 15,-71 26,-106 0,-61 -31,-70 -46,-66 -31,-50 0,-51 10,-86 20,-91 10,-106 5,-101 -20,-75 -10,-56 10,-45 25,-36 62,-50 5,-51 5,-45 -16,-35 -20,-76 0,-36 5,-25 30,-40 36,-25 61,-31 41,-35 z" />
<path id="Covington" d="M -651,15430 l 1928,-2 938,-22 15,840 37,-20 77,-71 81,-81 10,-56 31,-15 36,-20 40,-66 26,-56 51,-15 66,20 36,-25 35,-21 51,-15 61,-81 41,-76 61,-20 26,-76 102,-81 75,-83 185,-1 28,810 163,-1 -17,161 648,9 17,2520 0,248 1,724 26,1013 0,15 11,324 30,0 0,96 -1933,8 -436,1 -1045,-5 -1376,-8 0,-51 -112,1 1,-2127 0,-106 3,-1524 0,-25 -26,-41 31,-35 71,0 46,-36 61,-41 16,-25 -11,-40 11,-26 45,-15 31,-20 25,-51 -5,-61 -25,-75 0,-46 40,-71 21,-40 5,-61 -36,-46 5,-76 0,-70 -67,-71 5,-41 26,-25 0,-25 -31,-21 -250,1 z" />
<path id="Crenshaw" d="M 4175,10523 l 10,46 26,40 20,36 16,96 10,75 51,76 15,71 -25,192 15,76 46,71 0,35 -20,25 -36,41 5,86 -10,45 -46,91 0,51 26,46 -10,40 -41,56 0,45 31,46 15,25 5,25 -15,41 -41,50 -30,66 -16,20 0,56 -15,35 -46,41 0,212 480,-10 16,288 -15,1098 -36,25 -40,5 -36,46 -10,50 15,36 -30,86 -56,50 -11,56 -40,30 -41,26 -10,45 0,96 326,-15 21,885 -122,5 5,81 -362,6 6,749 5,248 -648,-9 17,-161 -163,1 -28,-810 -185,1 -75,83 -102,81 -26,76 -61,20 -41,76 -61,81 -51,15 -35,21 -36,25 -66,-20 -51,15 -26,56 -40,66 -36,20 -31,15 -10,56 -81,81 -77,71 -37,20 -15,-840 -938,22 -6,-319 -1,-1123 484,-6 0,-324 30,-364 -5,-460 40,-5 -5,-162 -41,0 0,-637 40,0 -5,-46 36,5 5,-81 -41,-5 0,-35 -36,-5 -5,-46 -11,-1259 321,-5 87,15 -14,-795 104,-5 -5,-96 -100,1 -2,-71 853,-16 31,0 86,5 17,961 z" />
<path id="Cullman" d="M 475,-15397 l 962,24 6,146 158,0 0,121 6,40 71,5 -46,121 36,0 -5,40 -312,-10 -46,66 -51,61 -36,-10 -21,-36 -36,-10 -66,-5 -56,31 -52,101 11,75 5,30 -10,46 -62,45 -41,-15 -25,0 -26,66 -25,30 -36,25 21,10 20,15 -56,61 -36,10 -5,30 31,46 -62,50 0,45 46,26 52,20 -5,20 -92,50 -52,51 -25,45 -56,41 -26,30 -20,81 -67,60 -5,46 -46,10 -15,25 15,35 -10,56 -56,30 -51,61 -11,55 11,20 25,5 -20,20 -46,31 -46,45 -16,0 -35,-50 -36,-30 -21,-10 -41,10 -102,65 -10,26 0,55 -72,-20 -31,15 -30,30 0,116 -107,91 -31,-5 -26,-10 -46,31 -77,40 -25,-10 15,-101 -31,-15 -46,76 -25,10 -41,15 -15,30 30,41 72,60 77,146 10,40 -46,16 -46,-41 -10,-40 -10,-15 -26,-10 -51,60 -36,51 0,55 57,76 5,50 -56,61 -31,0 -46,-10 -51,-10 -21,61 11,50 -36,55 -67,41 -51,50 -20,26 5,55 -15,30 -41,16 -41,15 -62,5 -25,20 -26,25 11,71 -26,35 0,86 -46,40 -61,5 -15,21 41,25 -6,25 -35,5 -52,-20 -61,20 -31,26 -15,25 36,20 10,25 -82,56 -71,-25 -57,10 -82,-40 -30,10 5,60 20,46 16,50 -41,10 -41,-40 -51,-56 -26,-5 -41,21 -107,70 -51,46 -5,40 -11,41 -15,5 -56,-41 -57,-10 -61,0 -41,16 5,25 5,45 -20,81 -25,25 -87,10 -72,31 -56,-15 -31,-25 -21,10 -51,60 -15,41 -10,116 36,40 15,35 -15,91 -41,101 -40,35 -57,-5 -14,6 -11,-2 -42,-2 -55,0 -40,-2 -62,8 -21,18 -6,39 21,52 -56,-15 -216,-3 -32,-87 -13,-19 -19,-5 -26,6 -46,34 3,-249 -788,-23 -5,-21 -56,-40 -6,-30 36,-25 41,-15 51,-31 -10,-111 -36,-90 -77,-81 -52,-60 -15,-51 5,-50 -56,-61 25,-75 -72,-66 -82,-25 -76,0 -21,-15 -20,-25 4,-96 -71,-136 -47,-35 52,0 312,9 0,-100 -6,-96 5,-106 0,-197 4,-307 5,-106 -5,-61 0,-222 14,-806 4,-419 0,-161 4,-282 5,-212 4,-333 -5,-161 138,20 881,9 1705,47 62,0 578,15 57,-1 358,5 82,0 461,9 z" />
<path id="Dale" d="M 11550,14318 l 10,647 5,142 5,364 5,167 -5,1103 5,157 0,795 10,324 -653,-5 0,445 -56,-10 -51,-5 -56,10 -26,0 -40,-35 -61,-35 -72,-21 -51,5 -71,11 -102,-31 -153,-61 -61,-25 -72,-5 -66,-5 -66,-30 -87,-36 -87,-25 -86,-5 -67,10 -71,0 -36,-20 -40,10 -92,5 -46,5 -46,20 -71,61 -92,132 36,40 5,26 -5,20 -31,25 -15,31 -11,25 -40,15 -41,26 -15,20 -11,50 -5,71 -25,15 0,26 15,30 -15,20 -5,36 -5,35 -26,36 -36,15 -10,25 -25,21 -51,20 -26,35 -5,10 -734,-4 -5,-648 5,-836 5,-313 0,-112 -5,-207 -1,-107 -5,-293 0,-673 5,-71 -5,-86 -10,-1331 387,-5 179,-5 362,0 1898,-46 z" />
<path id="Dallas" d="M -3605,2070 l 12,732 419,-6 61,0 455,-1 -36,61 -5,30 56,76 -30,31 72,146 -15,177 51,126 31,202 21,151 10,167 -41,76 -9,156 35,41 -15,50 56,51 31,76 36,90 -10,61 66,86 31,106 -35,50 35,36 62,96 31,91 0,25 30,10 31,35 21,41 5,40 -46,71 -5,50 61,-5 36,-5 61,10 31,25 46,41 102,35 26,20 15,20 -10,20 -20,16 -62,25 -61,25 -20,15 -10,31 5,106 31,71 61,75 41,81 66,61 77,90 52,132 5,55 -10,71 -77,76 -296,122 1,212 122,10 107,35 -107,96 -66,31 -31,65 -91,51 -62,76 -5,56 41,55 52,106 107,116 87,96 92,45 82,-15 46,-20 0,141 -924,-3 0,298 13,1663 -2593,5 56,-132 -10,-71 -36,-35 -77,-20 -20,-15 -11,-35 0,-41 36,-61 0,-30 -36,-10 -51,5 -31,-15 -30,-50 -31,-10 -56,0 -31,-21 -46,-5 -51,-4 -66,-36 -21,-60 -20,-36 -11,-96 -51,-40 -72,-45 -56,20 -51,-5 92,-137 10,-76 -87,-35 -87,-25 -76,15 -52,-40 -5,-66 -36,-101 -46,-35 -56,10 -31,-55 -20,-15 -82,-116 -51,-20 -26,-41 -5,-30 25,-36 -10,-25 -25,-25 -51,20 -52,-30 -61,-25 -71,5 -57,-10 -56,56 -25,-5 5,-61 -10,-15 -41,-10 -46,-116 10,-51 -16,-25 -20,-5 -72,-25 -25,-30 -1,-71 -10,-25 -31,-26 -35,-15 -36,16 -66,15 -26,-20 -56,-61 -46,-20 -31,-35 -113,-111 0,-56 -36,-45 -46,-25 -56,-10 -61,55 -148,26 -6,-475 464,-6 6,-1945 1773,-14 148,-16 980,-1 26,-21 25,-30 16,-56 20,-20 46,-35 0,-41 10,-50 10,-36 20,-81 36,-30 10,-51 26,-35 15,-40 25,-5 31,-21 20,-65 26,-61 10,-71 -31,-35 -10,-35 10,-61 -21,-61 82,-71 31,-30 168,-111 102,-61 25,-36 0,-45 -10,-25 -72,-147 -10,-75 25,-177 82,-207 61,-112 -26,-141 5,-96 71,-212 56,-142 z" />
<path id="DeKalb" d="M 9600,-21629 l 104,658 373,1972 23,120 52,281 133,707 -82,-20 -26,35 -5,30 25,40 -41,0 -46,26 -20,15 -5,30 -51,51 -36,70 -26,0 -31,-35 -35,-5 -36,15 10,111 -15,20 -82,10 -21,40 -56,26 20,35 11,20 25,10 5,121 -56,-40 -41,10 31,91 -15,25 -41,10 41,136 5,66 -26,40 -15,40 -67,41 21,50 -113,40 16,66 -41,25 -31,15 -10,40 -26,21 -31,126 -25,15 -87,-45 -5,35 25,20 46,60 -46,56 -25,0 -26,25 21,56 0,25 -36,10 -31,45 -10,15 -41,0 -16,-30 -20,-5 -26,66 -138,15 -51,45 0,46 -36,35 -36,50 16,36 -36,40 -850,888 -56,20 -282,0 -5,217 -15,0 -61,10 -72,-20 -46,-10 -123,-30 5,494 -1566,11 -292,0 -220,-4 -220,0 -82,-5 -36,0 -5,-227 0,-50 -11,-268 -16,-826 0,-36 -16,-408 0,-111 -6,-589 486,-540 77,-5 103,10 51,5 46,-15 46,-46 36,-20 46,5 56,10 41,-10 103,-61 46,5 20,-40 56,-10 72,-61 72,-30 20,-30 26,-61 169,-196 138,-111 31,-21 82,-80 266,-202 148,-116 241,-192 133,-111 41,-25 46,-40 20,-15 246,-197 215,-328 241,-388 20,-35 102,-167 31,-40 225,-378 190,-15 123,-126 97,-212 107,-207 21,-50 0,-171 61,-182 210,-191 0,-41 15,-25 47,-10 z" />
<path id="Elmore" d="M 2363,1794 l 414,4 5,-156 164,4 0,157 2923,-28 325,0 -6,-160 161,1 6,162 10,0 684,-4 -5,116 -9,74 -99,107 24,127 -72,120 -71,44 -48,235 15,51 26,40 10,26 20,50 72,86 72,55 20,36 -5,45 -5,56 -36,177 -20,121 -10,86 10,111 36,177 0,96 10,96 26,101 0,75 -16,96 -10,197 11,71 -5,96 0,71 20,35 15,20 144,121 46,16 97,5 30,35 -35,10 -72,-5 -56,10 -51,31 0,50 -36,25 -10,46 15,35 -30,25 -6,21 31,20 -56,40 -72,11 -132,-36 -103,0 -61,-20 -61,-5 -67,61 -92,55 -86,21 -41,-10 -31,-86 -56,-31 -72,-10 -15,16 -10,15 41,35 15,35 -41,36 -41,20 -35,-35 -11,-81 -15,-20 -20,5 -21,35 -10,36 36,111 -10,45 -36,25 -112,11 -87,81 -41,15 -77,-30 -71,5 -51,35 -21,111 -30,15 -138,-20 -138,-40 -67,-76 -10,-15 -51,0 -51,25 -107,1 -56,25 -31,-5 -5,-46 0,-35 -16,-10 -51,50 -40,-10 -11,-20 0,-20 41,-61 5,-35 -41,5 -81,46 -97,45 -46,-5 -16,-35 -5,-56 -41,-10 -71,-50 -97,-5 -67,76 -41,0 -40,-36 -6,-30 21,-20 41,-20 56,-56 -31,-41 -31,-45 -25,0 -66,41 -36,-5 -21,-51 -71,-91 5,-76 -16,-20 -35,0 -41,56 -31,5 -30,-15 -11,-56 16,-35 30,-5 10,-31 -61,-85 -31,0 -40,30 -21,-15 0,-56 -5,-20 -82,-25 -31,-40 -76,-21 -51,6 -16,40 1,35 46,56 -6,30 -40,25 -46,-5 -41,-20 -21,0 -71,86 -51,31 -31,15 -61,-36 -51,-116 -31,-25 -36,5 -20,15 -5,31 10,20 46,76 10,65 -35,117 -16,55 -35,61 -72,45 -15,26 92,70 51,76 36,81 5,55 -10,51 -31,25 -35,-10 -41,-81 -87,-40 -133,-101 -72,-15 -61,30 -61,26 -62,5 -76,0 -77,15 -107,0 -5,51 15,55 0,31 -15,15 -71,25 -36,10 -12,-1020 -12,-2253 -1,-465 368,-10 -5,-15 z" />
<path id="Escambia" d="M -7561,18338 l 592,4 504,-1 57,-1 2212,6 1224,3 699,-1 1035,8 -5,31 -46,45 -31,31 -5,76 0,25 36,61 -10,60 20,31 31,45 0,41 -25,40 -41,51 0,20 36,15 5,16 -26,30 -20,25 0,36 56,15 21,15 -16,30 11,56 -26,61 26,25 61,-121 30,-26 62,10 30,-15 36,0 30,40 36,0 -15,56 25,15 51,-15 67,5 35,-5 -30,-41 0,-20 20,-10 92,15 20,-30 21,-16 25,21 15,15 0,10 -1,2127 112,-1 0,51 -128,0 -672,-49 -230,0 -560,-2 -393,-2 -2550,-17 -477,-1 -2977,-16 -596,-5 -138,-2 17,35 -154,-4 3,-760 8,-694 5,-131 -1,-244 0,-75 8,-841 61,35 51,-5 36,5 92,15 56,25 56,41 61,40 82,15 81,15 82,-20 61,-41 61,-46 61,-61 36,-25 56,-26 97,-10 71,-25 76,-36 31,-46 z" />
<path id="Etowah" d="M 7280,-14260 l 21,806 6,177 15,5 72,-10 112,-121 62,-46 102,-35 56,5 46,40 -5,35 -51,91 0,46 26,115 41,137 374,816 123,257 -10,237 -20,368 -82,-20 -568,-100 -323,-116 0,81 -327,0 0,81 -169,5 5,403 -317,0 -5,-161 -159,5 0,81 -159,-10 0,237 -158,-5 0,161 -77,-10 -5,167 -246,-10 6,161 -256,-9 0,121 -148,-5 51,-46 5,-45 -5,-41 -21,-50 -77,-65 -30,-5 -98,40 -30,0 -62,-10 -25,10 -26,10 -20,-5 -11,-30 0,-76 -15,-50 -46,-40 -26,-26 -10,-35 15,-146 -15,-25 -36,-10 -41,25 -26,-5 -20,-20 -26,-10 -15,5 -31,30 -20,5 -26,-5 -46,-15 0,-51 -5,-45 -31,-40 -15,-71 -21,-20 -56,-5 -46,-15 -36,-30 -15,-71 -16,-101 10,-45 0,-40 -15,-36 15,-70 -10,-36 -46,-55 -62,-50 -51,-31 -31,-15 -10,-45 -5,-45 -41,-31 -21,-40 -35,-10 -103,25 -92,21 -36,30 -35,5 -62,50 -97,86 -41,31 -20,-16 -16,-45 -71,-5 -31,-20 -36,-60 -16,-76 -25,-15 -26,10 -20,25 -36,30 -51,-5 -205,298 -30,10 -26,10 -46,111 -1,2 -20,56 0,1 -410,4 17,-22 56,-96 66,-45 21,-66 61,-30 36,-116 92,-146 -1,-570 -5,-106 92,-277 179,-298 951,-868 97,-71 41,-5 77,-5 71,-30 574,9 5,-30 0,-136 36,0 82,5 220,0 220,4 292,0 z" />
<path id="Fayette" d="M -9269,-11120 l -10,474 236,25 732,33 15,1947 972,43 -13,964 -1264,-58 -660,-44 -9,323 -323,6 -3,650 -133,1 -583,11 -901,-68 -982,-3 17,-1302 -15,-1639 0,-15 -8,-938 14,-494 885,13 533,39 51,0 517,29 z" />
<path id="Franklin" d="M -8227,-18255 l 1,161 -5,171 -5,237 6,86 -10,358 -9,282 -2,1527 -159,0 -727,-33 -82,0 -327,-20 -72,-5 -123,-4 -702,-24 -174,-10 -640,-13 -404,-15 -205,-4 -159,-5 -2148,-120 22,-192 159,-1407 27,-247 135,-1038 1731,96 3150,104 727,24 z" />
<path id="Geneva" d="M 8760,19050 l 1535,-41 642,-15 15,810 5,790 -15,637 -26,1 -12,1 -65,1 -2935,50 -2192,17 -804,3 -643,2 0,-96 -30,0 -11,-324 0,-15 -26,-1013 -1,-724 0,-15 648,-16 -5,117 87,0 -1,-122 989,-26 612,-15 230,-1 734,-10 535,0 z" />
<path id="Greene" d="M -11232,-2695 l -10,191 -10,202 -4,273 72,0 -18,848 751,8 394,-6 -5,30 -21,26 -15,10 -10,45 10,15 21,21 41,80 20,41 -35,65 -67,1 -61,5 -41,25 -30,35 -6,31 -20,20 -46,-5 -51,-25 -36,-10 -41,0 -5,15 5,25 16,41 0,65 31,21 66,30 21,15 -56,40 -36,11 -36,20 0,25 36,15 71,-25 41,-5 26,25 -10,30 -31,51 -20,35 -71,56 -26,-5 -36,0 -25,10 15,20 21,30 5,21 -36,10 -31,-31 -15,-25 -21,0 -25,46 0,40 -20,5 -57,-30 -35,-5 -5,41 41,50 51,91 46,35 5,10 -51,31 -5,50 -10,10 -36,-5 -20,-35 -21,-5 -20,20 -16,36 -10,20 -15,15 -36,-5 -31,-35 -25,-5 -15,15 -21,20 -25,0 -26,-35 -31,0 -20,35 10,56 -5,25 -35,-15 -36,-30 -26,10 -5,30 62,46 25,25 -5,25 -36,0 -30,-20 -41,-5 -10,15 -10,91 15,61 -10,20 -41,10 -31,-15 -51,20 0,41 31,40 62,25 35,25 16,21 -36,15 -61,0 -26,30 11,56 35,10 26,10 72,70 -20,61 15,35 26,25 0,21 -10,35 5,30 31,36 0,20 -41,15 -16,10 -15,41 0,60 -25,36 -56,25 -41,25 -20,41 -36,30 -71,56 -67,66 -46,0 -46,-15 -35,15 -41,61 -10,30 20,25 46,31 57,10 40,-6 51,-25 62,10 56,5 26,-31 -6,-45 21,-45 25,5 36,10 72,65 41,55 66,76 11,61 -5,70 -15,51 -21,25 -36,0 -46,-10 -45,16 -36,30 -46,76 -10,65 5,41 52,75 40,5 36,0 51,-40 21,-41 51,-25 61,5 25,10 21,35 -15,41 -15,70 0,71 15,46 62,65 25,45 6,36 -31,50 -41,56 -4,66 25,50 46,51 62,20 71,10 62,-11 91,-71 36,-30 31,15 36,35 5,51 -41,96 -56,91 -30,15 -41,-20 -62,-45 -56,-5 -66,10 -62,15 -66,1 -72,-10 -46,-10 -40,20 -10,35 30,86 72,111 72,55 87,41 66,0 92,-26 107,-56 36,10 46,61 47,96 30,75 26,56 -15,15 -92,20 -77,41 -35,30 -21,26 -15,55 -10,31 -30,15 -31,-15 -10,-25 -6,-21 5,-86 -15,-20 -41,-20 -62,-20 -30,20 -15,31 10,91 0,136 -15,5 -25,-20 -26,-25 -15,-10 -21,10 -5,25 16,101 10,96 -20,41 -31,50 -51,46 -35,55 -26,36 -15,30 -15,26 -46,-5 -15,-26 -6,-55 0,-51 46,-45 10,-31 -26,-40 -46,-45 -20,0 -46,-5 -67,-15 -25,-20 -21,10 -45,56 -26,35 -5,30 -5,46 -56,0 -72,-40 -66,-86 -11,-61 21,-81 5,-45 -16,-91 -26,-60 -107,-132 -62,-55 -26,-35 0,-41 21,-50 30,-15 41,-11 41,-40 35,-20 62,4 76,5 26,31 -5,45 -15,76 26,45 46,5 35,-55 51,-36 67,-25 0,-31 -42,-55 -61,-40 -26,-61 -30,-20 -92,-10 -92,-5 -118,61 -97,16 -30,-16 -57,-80 -92,-86 -77,-30 -30,10 -87,56 -46,0 -46,10 -127,87 -118,81 -173,61 -179,56 -71,15 -62,-25 -56,0 -112,56 -51,36 -51,0 -41,-41 -36,-106 -16,-30 -113,-106 -25,-65 -1,-121 21,-41 25,-10 82,-5 66,-6 41,-40 15,-51 15,-91 0,-55 -36,-81 0,-35 15,-31 36,-35 76,-56 41,-40 5,-26 -20,-35 -57,-45 -41,-10 -35,20 -72,71 -51,36 -71,20 -118,10 -82,-30 -76,-50 -72,-50 -16,-36 5,-40 41,-25 67,4 46,-15 86,-46 56,-60 31,-61 -5,-45 -36,-46 -93,-65 -71,-61 -16,-55 -21,-96 0,-101 -26,-71 -5,-50 20,-31 41,-35 61,-20 31,10 46,25 52,55 35,5 41,-35 46,-61 41,-51 10,-40 -11,-61 -20,-60 -26,-41 -51,-20 -97,36 -107,81 -36,10 -31,-35 -20,-55 -26,-56 -82,-65 -21,-36 -20,-96 -26,-45 -67,-65 -25,-10 -36,20 -31,35 -35,46 -26,15 -66,-5 -36,-40 -15,-5 -82,0 -67,-10 -36,-40 5,-41 36,-15 41,5 31,20 41,-5 25,-40 56,-61 15,-35 15,-61 -10,-51 -26,-15 -40,6 -21,-16 -31,-65 -36,-25 -51,-25 -31,-41 -15,-91 4,-90 -5,-71 -21,-101 -25,-40 -62,-31 -51,-15 -31,-30 -20,-50 20,-41 36,-45 30,-56 87,35 72,20 36,-15 40,-40 10,-41 -36,-60 -71,-51 -31,-35 -21,-45 10,-41 36,-20 41,0 26,35 61,35 46,-10 51,-35 31,-41 -26,-40 -36,-20 -31,-20 -25,-36 10,-70 -26,-66 0,-111 -6,-96 36,-91 61,-66 102,-30 66,-76 -36,-76 56,-50 77,20 61,-11 97,-35 82,75 67,-25 56,25 51,-26 62,10 20,-25 10,-45 36,-21 10,-55 66,0 36,35 46,75 67,20 41,31 61,-46 56,-10 10,-51 -46,-75 0,-66 66,50 26,-10 -21,-60 46,-36 67,-25 61,-31 46,-20 82,-10 87,-21 76,-50 61,10 72,-26 36,-55 81,-51 36,-91 30,-91 72,-46 86,-55 92,-46 77,-31 77,5 40,-60 123,-51 97,-56 97,-25 77,-31 81,-35 z" />
<path id="Hale" d="M -7368,-1003 l 11,363 -13,1081 -9,475 -475,6 -3,969 -20,167 -8,798 -481,1 -8,808 0,15 -2,1102 -1921,-6 9,-480 -787,-13 26,-36 35,-55 51,-46 31,-50 20,-41 -10,-96 -16,-101 5,-25 21,-10 15,10 26,25 25,20 15,-5 0,-136 -10,-91 15,-31 30,-20 62,20 41,20 15,20 -5,86 6,21 10,25 31,15 30,-15 10,-31 15,-55 21,-26 35,-30 77,-41 92,-20 15,-15 -26,-56 -30,-75 -47,-96 -46,-61 -36,-10 -107,56 -92,26 -66,0 -87,-41 -72,-55 -72,-111 -30,-86 10,-35 40,-20 46,10 72,10 66,-1 62,-15 66,-10 56,5 62,45 41,20 30,-15 56,-91 41,-96 -5,-51 -36,-35 -31,-15 -36,30 -91,71 -62,11 -71,-10 -62,-20 -46,-51 -25,-50 4,-66 41,-56 31,-50 -6,-36 -25,-45 -62,-65 -15,-46 0,-71 15,-70 15,-41 -21,-35 -25,-10 -61,-5 -51,25 -21,41 -51,40 -36,0 -40,-5 -52,-75 -5,-41 10,-65 46,-76 36,-30 45,-16 46,10 36,0 21,-25 15,-51 5,-70 -11,-61 -66,-76 -41,-55 -72,-65 -36,-10 -25,-5 -21,45 6,45 -26,31 -56,-5 -62,-10 -51,25 -40,6 -57,-10 -46,-31 -20,-25 10,-30 41,-61 35,-15 46,15 46,0 67,-66 71,-56 36,-30 20,-41 41,-25 56,-25 25,-36 0,-60 15,-41 16,-10 41,-15 0,-20 -31,-36 -5,-30 10,-35 0,-21 -26,-25 -15,-35 20,-61 -72,-70 -26,-10 -35,-10 -11,-56 26,-30 61,0 36,-15 -16,-21 -35,-25 -62,-25 -31,-40 0,-41 51,-20 31,15 41,-10 10,-20 -15,-61 10,-91 10,-15 41,5 30,20 36,0 5,-25 -25,-25 -62,-46 5,-30 26,-10 36,30 35,15 5,-25 -10,-56 20,-35 31,0 26,35 25,0 21,-20 15,-15 25,5 31,35 36,5 15,-15 10,-20 16,-36 20,-20 21,5 20,35 36,5 10,-10 5,-50 51,-31 -5,-10 -46,-35 -51,-91 -41,-50 5,-41 35,5 57,30 20,-5 0,-40 25,-46 21,0 15,25 31,31 36,-10 -5,-21 -21,-30 -15,-20 25,-10 36,0 26,5 71,-56 20,-35 31,-51 10,-30 -26,-25 -41,5 -71,25 -36,-15 0,-25 36,-20 36,-11 56,-40 -21,-15 -66,-30 -31,-21 0,-65 -16,-41 -5,-25 5,-15 41,0 36,10 51,25 46,5 20,-20 6,-31 30,-35 41,-25 61,-5 67,-1 35,-65 -20,-41 -41,-80 -21,-21 1774,47 327,-1 z" />
<path id="Henry" d="M 14239,12684 l 2,43 -3,36 11,24 6,31 15,38 10,40 15,46 21,71 -5,45 -16,46 -7,21 -10,31 -13,54 -11,50 0,46 11,45 6,38 22,60 38,54 61,86 82,96 92,98 43,54 33,20 19,9 21,19 11,18 -4,28 -19,31 -20,31 -9,25 6,31 16,19 26,15 21,14 8,8 36,41 15,20 21,14 15,5 25,1 27,7 11,20 11,30 6,40 1,25 -10,35 0,30 8,21 13,30 5,36 10,60 -5,71 13,65 6,36 6,35 -9,31 7,35 17,50 15,47 34,57 33,69 35,56 15,34 -4,41 -11,36 -12,26 -13,35 -10,25 -9,37 8,29 6,25 -4,26 -3,9 -8,27 -26,44 -26,46 -24,60 -24,57 -13,45 -16,25 -14,17 -21,29 -11,35 -15,56 -10,45 0,85 8,66 7,71 8,80 13,76 4,42 -5,51 -10,9 -26,6 -20,5 -15,31 -10,25 -8,21 -3,60 -13,42 1,51 2,40 12,46 -2,54 -15,61 -21,55 -25,55 -21,51 -17,46 -18,40 -21,31 -10,35 5,41 20,26 21,29 20,41 9,35 1,51 -8,56 -8,45 16,31 27,44 -3,61 -12,71 -9,41 -9,35 -840,26 -668,-21 -678,-20 -31,0 -433,-15 -459,0 0,-795 -5,-157 5,-1103 -5,-167 -5,-364 -5,-142 -10,-647 0,-977 822,5 1051,20 46,-86 30,-333 26,-41 77,-15 107,-66 178,-136 26,-51 66,-71 82,10 51,26 82,35 z" />
<path id="Houston" d="M 14684,17723 l -9,37 -12,71 -19,65 -25,30 -36,31 -43,20 -34,10 -35,20 -20,29 -11,37 -2,40 6,35 12,35 9,52 10,38 16,48 20,66 46,101 46,106 2,50 -7,57 1,44 -7,22 -22,35 -24,31 -15,30 -10,45 -1,43 1,54 7,26 21,30 23,14 19,20 17,30 10,31 2,44 -2,38 -10,34 11,35 17,35 21,14 27,3 51,5 46,5 35,22 21,34 30,40 40,49 37,48 25,50 20,56 21,51 29,54 22,32 26,22 25,34 39,35 26,14 21,14 21,35 30,53 26,46 20,51 13,44 -4,41 -4,45 7,36 2,20 4,9 23,46 43,69 23,44 30,41 17,24 19,42 10,40 5,46 5,45 0,64 8,61 28,68 28,77 12,60 3,81 -1639,33 -1938,35 -1048,51 15,-637 -5,-790 -15,-810 -642,15 -1535,41 5,-10 26,-35 51,-20 25,-21 10,-25 36,-15 26,-36 5,-35 5,-36 15,-20 -15,-30 0,-26 25,-15 5,-71 11,-50 15,-20 41,-26 40,-15 11,-25 15,-31 31,-25 5,-20 -5,-26 -36,-40 92,-132 71,-61 46,-20 46,-5 92,-5 40,-10 36,20 71,0 67,-10 86,5 87,25 87,36 66,30 66,5 72,5 61,25 153,61 102,31 71,-11 51,-5 72,21 61,35 40,35 26,0 56,-10 51,5 56,10 0,-445 653,5 -10,-324 459,0 433,15 31,0 678,20 668,21 z" />
<path id="Jackson" d="M 2944,-23025 l 4072,12 158,0 2212,19 214,1365 -121,90 -47,10 -15,25 0,41 -210,191 -61,182 0,171 -21,50 -107,207 -97,212 -123,126 -190,15 -225,378 -31,40 -102,167 -20,35 -241,388 -215,328 -246,197 -20,15 -46,40 -41,25 -133,111 -241,192 -148,116 -266,202 -82,80 -31,21 -138,111 -169,196 -26,61 -20,30 -72,30 -72,61 -56,10 -20,40 -46,-5 -103,61 -41,10 -56,-10 -46,-5 -36,20 -46,46 -46,15 -51,-5 -103,-10 -77,5 -51,10 -66,35 -52,36 -66,35 -36,0 -31,-35 -10,-45 10,-86 -10,-30 -67,-56 0,-30 -10,-60 -21,-91 0,-76 41,-65 -10,-41 -46,6 -56,-5 -16,-51 -26,-35 -56,45 -46,-50 -31,-40 -117,96 -41,0 15,-157 0,-20 -57,-70 5,-222 5,-358 -1537,-3 -102,0 -36,-30 -5,-56 51,-25 -308,-252 10,-760 -1,-378 118,-101 31,-91 41,-55 -52,-187 10,-85 56,-91 -15,-25 -41,-36 -15,-60 -26,-65 41,-116 77,-81 30,-50 -20,-41 -41,-45 5,-116 -98,-116 5,-85 -41,-86 26,-45 66,-81 -5,-91 220,-141 36,-71 -26,-85 -92,-106 -21,-65 36,-31 108,20 128,-80 36,-15 61,50 51,15 67,121 77,60 72,-50 0,-116 -36,-91 -77,-40 -36,-50 -82,-20 -62,-101 -61,-61 -93,-40 -51,-25 26,-50 5,-76 z" />
<path id="Jefferson" d="M -2962,-9972 l 154,-1 490,-308 1121,29 31,0 1029,729 1,61 5,40 645,9 322,0 5,166 1,162 81,5 1,156 81,-5 1,111 -5,126 5,489 -81,-5 0,247 -82,-4 0,161 -82,0 -4,651 82,0 0,80 240,10 6,81 -5,242 -241,-5 1,81 -164,-5 0,76 -82,5 0,81 -41,0 0,35 -41,5 1,36 -82,5 0,161 -77,-5 -5,81 -82,5 0,81 -189,0 -455,1 -5,166 -164,-5 1,81 -36,0 -5,41 -36,0 0,121 -164,-5 -5,161 -317,-14 1,201 -41,0 -5,41 -36,0 0,81 -159,-10 -4,247 -241,-10 0,46 -82,0 1,35 -159,-5 1,318 -486,-4 0,76 -82,-5 -5,81 -36,0 0,40 -36,0 -5,40 0,41 -81,-5 0,45 -82,5 0,41 -41,-5 -5,45 -36,-5 1,207 -82,0 -5,41 -118,-5 0,81 -199,-5 0,86 -41,0 -5,40 -36,0 -5,41 -41,-5 5,80 -66,0 -348,-9 -363,-4 0,-36 5,-288 -82,1 -5,-41 -118,0 5,-121 -225,1 -148,-5 -1,-172 -322,-4 0,-162 -164,1 -5,-247 -159,0 0,-167 -159,-4 -5,-81 -159,-5 0,-323 -159,-5 10,-166 -46,0 -6,-81 -122,0 5,-75 -164,-10 0,-166 -266,-20 -11,5 0,-156 -199,-10 4,-157 -66,0 25,-45 31,-61 46,-101 30,-30 62,0 66,35 72,-15 46,10 51,101 87,10 26,-56 -11,-45 -31,-111 36,-41 77,5 56,51 26,5 31,-6 30,-35 5,-65 -56,-71 -77,-71 0,-45 41,-76 66,10 52,141 25,26 36,5 46,-36 56,-91 20,-131 26,-25 51,5 107,35 62,-20 107,-122 92,-25 25,-30 16,-26 -16,-25 -82,-45 -61,-111 -11,-66 72,-126 0,-25 5,-81 163,0 0,-161 322,4 0,-161 210,-1 276,10 -1,-328 323,9 9,-322 159,4 -6,-484 82,0 0,-156 82,-5 -1,-323 159,0 -1,-162 323,10 5,-167 143,5 15,0 z" />
<path id="Lamar" d="M -14511,-12777 l 1793,87 225,9 -15,328 308,14 25,0 0,20 -4,177 -8,938 -14,494 8,938 0,15 15,1639 -17,1302 -977,-48 -318,-29 -1745,-77 85,-731 188,-1596 7,-59 202,-1650 225,-1627 z" />
<path id="Lauderdale" d="M -12359,-23273 l 1369,27 137,3 422,9 1420,28 90,2 3483,76 49,2 119,4 0,180 -10,177 0,151 -4,473 -15,338 0,20 -9,247 -10,222 0,231 -56,61 -327,242 -185,81 -5,76 98,95 10,51 41,25 -169,66 -66,5 -175,-106 -123,-125 -139,-222 -148,-110 -226,-25 -72,15 -102,21 -292,15 -82,-50 -149,-50 -323,-65 -41,-35 -77,-30 -87,-35 -41,-81 -87,-25 -51,5 -41,26 -118,-10 -87,50 -123,1 -164,65 -41,111 -71,51 -220,81 -26,5 -159,46 -240,111 -226,61 -133,56 -76,80 -138,177 -164,46 -199,106 -231,11 -87,-5 -118,-25 -185,-80 -87,-76 -113,-151 -123,-110 -129,-96 -287,-261 -77,-181 -37,-197 0,-15 -31,-90 -134,-217 -195,-171 -205,-90 -149,-60 -169,-100 -92,-30 -159,25 -189,107 -175,-20 -89,-25 -96,-49 -80,-43 -80,-68 -76,-86 -72,-75 -66,-111 -47,-121 -36,-96 -46,-90 -52,-71 -71,-97 -100,-207 -5,-9 -25,-49 10,-65 180,4 938,33 z" />
<path id="Lawrence" d="M -7254,-20918 l 292,-15 102,-21 72,-15 226,25 148,110 139,222 123,125 175,106 66,-5 169,-66 98,-35 184,-26 154,50 138,111 118,15 41,20 252,155 159,131 56,166 36,56 185,171 -5,221 0,56 -22,1789 -33,1436 -5,111 0,141 -4,373 5,161 -1034,-3 -123,0 -353,-4 -855,-18 -72,0 -67,-5 -245,-10 -236,-14 -46,0 -277,-10 -56,-5 -154,-5 -348,-9 2,-1527 9,-282 10,-358 -6,-86 5,-237 5,-171 -1,-161 46,-61 11,-40 56,-10 -21,-61 46,-45 46,-46 5,-50 -41,-66 -5,-65 51,-51 36,-60 5,-91 87,-86 92,-70 10,-51 41,-30 -26,-56 5,-45 56,-25 144,45 87,-31 35,-65 -5,-86 -5,-106 -5,-55 -21,-25 -10,-101 35,-81 92,-55 36,-41 67,-55 -11,-50 -36,-66 -15,-80 15,-76 97,-86 -36,-80 20,-71 62,-86 -6,-60 -51,-35 -77,-51 25,-126 z" />
<path id="Lee" d="M 14003,1791 l 87,7 73,23 46,36 20,36 10,45 -10,51 -20,40 -18,18 -9,26 1,35 5,47 9,38 17,60 24,90 23,70 34,51 78,82 55,64 21,39 12,55 3,58 -66,41 -46,50 -16,40 -5,28 11,20 21,15 19,8 22,5 24,15 28,4 33,-4 26,10 14,16 1,14 -15,22 -20,31 -11,33 10,35 10,18 31,28 21,25 15,31 4,55 -1,15 -3,31 8,55 17,71 34,58 53,73 41,31 33,23 27,40 32,53 41,40 39,39 48,49 51,54 35,49 26,24 26,9 25,29 5,20 3,21 11,15 27,14 31,29 11,30 24,32 26,26 25,30 31,51 24,48 6,23 -551,9 20,415 -618,25 -475,15 -25,0 -159,5 -122,5 -36,0 -256,5 -894,36 21,303 25,328 -250,5 -51,5 -679,16 -26,-576 0,-51 -10,-157 -10,-186 -67,0 -413,10 -46,-20 -1094,-525 -199,-91 -158,-76 -123,-61 -5,-80 0,-81 -169,5 -158,5 0,-328 -5,-51 -16,-687 5,-217 143,-5 16,0 -6,-162 654,-20 0,-157 159,-10 153,-10 -5,-76 82,-5 5,81 102,0 624,-26 0,-75 81,0 -5,80 486,-5 0,-161 158,0 0,86 82,-11 5,81 301,0 787,-10 31,-5 -5,-157 347,-5 389,-15 485,-10 z" />
<path id="Limestone" d="M -1857,-23027 l 486,-1 -44,4075 0,71 -5,35 0,171 -5,31 -5,85 0,202 -5,227 -15,0 -72,-15 -102,-25 -36,0 -67,-5 -138,-10 -56,-35 -93,-56 -56,-35 -159,-50 -61,-20 -221,-70 -164,-86 -231,-165 -189,-111 -21,-10 -154,-131 -51,-45 -41,-20 -62,-35 -92,-61 -61,-70 -88,-65 -56,-10 -97,30 -144,-111 -190,-115 -113,-136 -56,-45 -185,-171 -36,-56 -56,-166 -159,-131 -252,-155 -41,-20 -118,-15 -138,-111 -154,-50 -184,26 -98,35 -41,-25 -10,-51 -98,-95 5,-76 185,-81 327,-242 56,-61 0,-231 10,-222 9,-247 0,-20 15,-338 4,-473 0,-151 10,-177 0,-180 2977,95 z" />
<path id="Lowndes" d="M 1270,6336 l 11,51 76,5 67,5 -21,50 21,20 56,21 -25,80 -26,71 -41,46 -5,65 -41,56 31,61 10,75 21,81 36,86 71,40 72,-15 82,-5 66,86 77,60 102,21 66,60 6,56 51,35 87,0 0,66 -5,30 10,414 0,46 17,1122 0,263 5,212 2,71 100,-1 5,96 -104,5 14,795 -87,-15 -321,5 -2859,29 -1016,-3 -11,-814 20,-147 -92,5 -92,1 -286,0 -13,-1663 0,-298 924,3 0,-141 -46,20 -82,15 -92,-45 -87,-96 -107,-116 -52,-106 -41,-55 5,-56 62,-76 91,-51 31,-65 66,-31 107,-96 -107,-35 -122,-10 -1,-212 296,-122 -20,61 -5,156 10,36 21,40 30,25 41,20 67,-5 40,-20 82,-61 61,-76 107,-182 -72,-313 -15,-15 10,-248 61,-30 163,65 103,-5 86,-50 92,-112 46,-10 26,25 5,41 -10,75 0,96 -10,81 77,157 240,80 46,0 117,-96 123,-136 20,-86 -5,-76 0,-51 35,-55 56,-36 108,5 102,-40 41,10 41,65 10,61 -31,197 31,45 164,106 30,5 21,-15 35,-91 26,-30 56,-26 46,15 112,66 108,0 41,40 30,111 21,137 15,25 57,20 245,-46 z" />
<path id="Macon" d="M 8803,3515 l 0,157 158,-5 169,-5 0,81 5,80 123,61 158,76 199,91 1094,525 46,20 413,-10 67,0 10,186 10,157 0,51 26,576 5,368 15,1324 10,253 -4003,52 -36,-20 -102,-91 -36,-45 0,-91 26,-91 25,-212 -56,-101 -31,-31 -66,-25 -51,-40 -41,-61 -26,-20 5,359 -189,15 -5,-25 -25,-46 -46,-35 -61,-20 -57,-41 -71,-60 -61,-111 -36,-61 5,-40 15,-31 -56,-91 -31,-20 -5,-40 -20,-36 -41,-5 -82,5 -56,-20 -46,-25 -5,-76 -26,-25 5,-56 -15,-35 5,-51 -20,-20 -47,-45 -30,-81 -51,-45 -46,-86 -5,-25 30,-31 5,-50 -20,-36 10,-45 5,-25 -20,-21 -16,-30 -20,-5 -21,20 -10,-20 0,-61 -10,-60 41,-15 87,-81 112,-11 36,-25 10,-45 -36,-111 10,-36 21,-35 20,-5 15,20 11,81 35,35 41,-20 41,-36 -15,-35 -41,-35 10,-15 15,-16 72,10 56,31 31,86 41,10 86,-21 92,-55 67,-61 61,5 61,20 103,0 132,36 72,-11 56,-40 -31,-20 6,-21 30,-25 -15,-35 10,-46 36,-25 0,-50 51,-31 56,-10 72,5 35,-10 -30,-35 -97,-5 -46,-16 -144,-121 833,-20 -5,-208 -5,-378 -6,-122 -5,-171 0,-81 807,-16 0,-151 z" />
<path id="Madison" d="M 2873,-23025 l 71,0 16,51 -5,76 -26,50 51,25 93,40 61,61 62,101 82,20 36,50 77,40 36,91 0,116 -72,50 -77,-60 -67,-121 -51,-15 -61,-50 -36,15 -128,80 -108,-20 -36,31 21,65 92,106 26,85 -36,71 -220,141 5,91 -66,81 -26,45 41,86 -5,85 98,116 -5,116 41,45 20,41 -30,50 -77,81 -41,116 26,65 15,60 41,36 15,25 -56,91 -10,85 52,187 -41,55 -31,91 -118,101 1,378 -10,760 308,252 -51,25 5,56 36,30 26,20 71,0 46,25 57,15 20,25 -30,41 -5,65 46,5 20,20 -169,51 -46,-5 -41,30 -31,5 -10,31 5,30 11,15 30,15 52,10 76,10 36,-10 21,15 -56,161 15,66 0,35 -112,106 -41,121 -46,10 35,50 -51,11 5,35 -169,-126 -25,-15 -36,15 -41,35 -51,31 -108,-71 -31,0 -25,31 -36,-20 -21,15 21,55 0,50 15,56 -20,35 -31,51 -92,-5 -61,30 -128,166 -77,-50 -56,-5 -51,0 -47,-5 -148,91 -26,0 -35,-35 -103,-10 -67,-10 -71,-10 -82,-60 -41,-25 -98,-71 -66,-50 -21,-20 -15,-36 0,-75 -108,-257 -31,-25 0,-71 15,-50 -31,-116 -51,-101 -190,-141 -72,-15 -35,-5 -113,21 -97,40 -108,96 -71,86 -67,101 -61,40 -57,-5 -97,-35 -56,-20 -46,-55 -6,-76 0,-106 -41,-60 -26,-25 -30,-26 -36,-10 -62,-20 -56,-15 -51,5 -62,26 -112,91 -46,45 -31,25 -36,41 -61,65 -31,30 -10,11 -61,60 -67,15 -41,5 -61,16 -77,-5 -57,-5 5,-227 0,-202 5,-85 5,-31 0,-171 5,-35 0,-71 44,-4075 590,4 2736,15 z" />
<path id="Marengo" d="M -11075,4283 l 787,13 -9,480 1921,6 3,965 -21,172 8,803 173,-5 307,4 6,475 -66,-20 -133,-10 -108,-20 -30,0 -61,31 -92,121 3,1188 0,172 -959,-8 0,227 1,263 -5,137 0,20 2,758 -428,37 0,121 -904,7 -668,-18 -1516,-1 -756,-23 -66,-71 -42,-111 -35,-10 -26,15 5,76 -10,71 -35,15 -87,-80 -46,-81 -52,-101 5,-76 35,-172 -5,-46 -36,-90 5,-66 81,-76 77,-51 81,-46 46,-15 61,40 82,66 21,5 25,-5 66,-97 67,-45 66,-51 25,-61 -10,-50 -21,-46 -41,-70 10,-66 20,-46 46,-86 15,-71 10,-151 15,-46 41,-25 102,15 35,-31 56,-111 61,-218 15,-86 -5,-81 -16,-35 -31,-81 56,-182 -21,-81 -51,-95 0,-46 66,-111 5,-66 -6,-81 -41,-35 -46,-40 -15,-26 5,-76 5,-70 10,-26 35,5 52,41 30,0 10,-26 -10,-70 0,-31 15,-25 46,-5 77,5 25,-11 26,-15 25,-71 51,-40 41,10 20,25 21,66 31,20 56,0 76,-41 72,-56 46,10 25,41 0,45 -25,71 -56,61 10,30 103,10 35,-26 15,-45 -25,-66 5,-81 20,-55 5,-26 -10,-30 -46,-20 -57,-10 -15,-20 -62,-116 -36,-40 -56,-21 -56,-15 -10,-20 -21,-75 -31,-31 -15,-10 -87,26 -51,-10 -25,-10 -21,-20 -10,-11 -62,-75 -51,-30 -51,-46 -67,-95 -25,-16 -36,-10 -92,11 -46,-10 -41,-20 -15,-26 -16,-25 15,-81 15,-166 15,-203 66,-126 56,-56 61,-40 97,-36 56,-36 81,-60 77,-41 71,-10 97,-21 72,-51 86,-91 46,-71 46,-111 40,-56 72,-55 102,-92 56,-65 81,-86 41,-31 41,-5 122,15 87,15 87,35 26,0 71,5 97,10 41,-16 41,-40 0,-20 -16,-31 -35,-50 -62,-25 5,-46 5,-30 26,-35 45,-56 21,-10 25,20 67,15 46,5 20,0 46,45 26,40 -10,31 -46,45 0,51 6,55 15,26 46,5 15,-26 z" />
<path id="Marion" d="M -9219,-15466 l -4,272 0,252 1,247 0,146 1,51 -5,156 -5,197 -14,504 -10,171 0,66 -4,282 0,192 2,499 -5,343 -7,968 -932,-3 -517,-29 -51,0 -533,-39 -885,-13 8,-938 4,-177 0,-20 -25,0 -308,-14 15,-328 -225,-9 -1793,-87 41,-338 136,-1151 161,-1420 2148,120 159,5 205,4 404,15 640,13 174,10 702,24 123,4 72,5 z" />
<path id="Marshall" d="M 763,-18059 l 0,71 31,25 108,257 0,75 15,36 21,20 66,50 98,71 41,25 82,60 71,10 67,10 103,10 35,35 26,0 148,-91 47,5 51,0 56,5 77,50 128,-166 61,-30 92,5 31,-51 20,-35 -15,-56 0,-50 -21,-55 21,-15 36,20 25,-31 31,0 108,71 51,-31 41,-35 36,-15 25,15 169,126 -5,-35 51,-11 -35,-50 46,-10 41,-121 112,-106 0,-35 -15,-66 56,-161 -21,-15 -36,10 -76,-10 -52,-10 -30,-15 -11,-15 -5,-30 10,-31 31,-5 41,-30 46,5 169,-51 -20,-20 -46,-5 5,-65 30,-41 -20,-25 -57,-15 -46,-25 -71,0 -26,-20 102,0 1537,3 -5,358 -5,222 57,70 0,20 -15,157 41,0 117,-96 31,40 46,50 56,-45 26,35 16,51 56,5 46,-6 10,41 -41,65 0,76 21,91 10,60 0,30 67,56 10,30 -10,86 10,45 31,35 36,0 66,-35 52,-36 66,-35 51,-10 -486,540 6,589 0,111 16,408 0,36 16,826 11,268 0,50 5,227 0,136 -5,30 -574,-9 -71,30 -77,5 -41,5 -97,71 -951,868 -21,-35 -51,-46 -21,-60 -77,-35 -35,-56 -749,-901 -359,-534 10,-106 -82,-5 5,-40 -36,0 46,-121 -71,-5 -6,-40 0,-121 -158,0 -6,-146 -962,-24 4,-756 177,-1286 61,-373 20,-237 z" />
<g id="Mobile">
<path id="5028" d="M -12768,19359 l -26,20 0,36 36,75 26,31 66,20 72,0 56,-31 25,-10 26,10 10,20 -5,41 -20,40 -10,36 -10,91 -15,76 -21,40 -96,132 -86,97 -71,76 -10,51 0,45 56,76 51,61 10,10 133,4 46,31 26,50 5,81 -10,66 -25,56 -92,71 -25,20 -10,36 10,35 15,26 21,35 25,25 -25,71 -15,16 -26,5 -25,0 -20,15 -11,20 -5,21 16,25 15,20 5,25 11,81 -10,56 -31,56 -5,61 -30,66 0,35 31,25 81,5 46,10 36,41 26,81 25,35 31,20 46,20 36,31 15,40 6,61 -56,35 -61,31 -82,0 -25,10 -31,21 -20,25 -5,41 -8,38 -9,117 -184,162 -111,200 46,145 223,97 132,173 0,141 -52,40 -136,6 -247,127 -9,128 0,59 -35,19 -191,73 -78,108 15,122 -54,124 109,143 -4,162 57,138 58,68 9,87 -12,62 -33,57 -38,77 -137,-92 -21,0 -25,-10 -21,-5 -15,5 -20,-5 -26,15 -4,117 5,40 15,26 5,20 -25,25 -56,66 -41,-5 -45,21 -41,40 -5,21 10,20 5,20 -5,20 -25,11 -15,15 -26,41 1,40 0,71 10,86 6,107 10,86 -10,66 -25,61 -30,61 -36,50 -50,66 -56,56 -31,21 -25,35 -20,10 -16,-5 0,-20 -5,-15 -10,-10 -31,-15 -10,-21 -20,-15 -26,0 -25,-15 -26,-40 -26,-61 -15,-35 -26,-31 -10,-35 5,-36 15,-30 15,-31 16,-15 20,-15 25,-20 15,-21 5,-10 -5,-20 -30,-10 -36,-5 -41,15 -35,36 -20,40 -5,36 5,40 0,16 -5,20 -15,10 -10,0 -16,-30 -10,-10 -31,10 -15,20 0,31 11,15 0,35 -16,26 -40,56 10,15 31,-5 35,-26 31,-15 35,-5 26,10 25,35 11,51 15,45 21,26 20,15 21,15 20,0 36,15 30,10 26,20 30,30 36,61 11,36 5,71 0,66 -20,106 -20,41 -20,15 -21,15 -5,15 0,11 -20,25 -20,30 -36,51 -35,56 -10,41 -5,45 0,61 6,66 31,127 20,61 0,45 -25,41 -15,25 -21,15 -25,-5 -20,1 -21,10 0,15 11,10 15,0 20,10 11,10 -16,15 -15,21 0,15 -5,25 10,36 6,45 10,56 5,51 11,61 5,45 -15,82 -15,50 0,81 -20,132 -10,87 1,35 0,61 -5,56 -10,55 -25,72 -25,55 -36,72 -56,81 -25,46 -20,30 -15,51 -15,46 -25,66 -11,35 -4,36 -21,25 -20,5 -21,-10 -10,-25 -10,-36 -16,-40 -5,-31 5,-35 15,-26 21,-5 20,-10 25,-25 16,-21 20,-25 10,-10 10,-16 5,-25 0,-30 -10,-26 -21,-10 -35,5 -15,41 0,31 -10,25 -15,20 -16,10 -25,1 -16,-16 5,-25 16,-25 5,-21 -21,-30 -30,-5 -10,25 -11,21 -25,5 -25,0 -11,20 16,26 10,20 20,15 16,25 -5,31 -15,15 -82,20 -76,11 -51,5 -61,21 -46,25 -30,15 -36,1 -20,-31 5,-35 15,-26 20,0 15,-10 11,-25 -1,-21 -15,-20 -20,-15 -21,-15 -15,-20 -10,-26 10,-20 10,-5 36,0 10,-5 15,-16 10,-40 10,-31 0,-35 5,-41 10,-25 10,-26 15,-10 10,-10 0,-15 -30,-20 -36,-10 -30,15 -16,10 -25,10 -31,5 -35,16 -46,10 -15,0 -41,-30 -26,-30 -35,-31 -21,-15 -36,-10 -35,-5 -46,-5 -31,-25 -35,-25 -31,-10 -41,-10 -30,-21 -46,-25 -16,0 -20,5 -20,16 -41,0 -56,-20 -61,-10 -46,-15 -10,-15 15,-11 20,-5 10,-10 0,-10 -15,-20 -20,-31 -21,-20 -25,-15 -26,-5 -10,20 5,21 5,30 -10,15 -20,16 -20,15 -31,46 -15,35 -5,31 -10,30 -15,15 -26,11 -30,5 -26,0 0,-31 10,-20 21,-25 10,-26 0,-30 -21,-41 -20,-50 -26,-46 -26,-25 -35,-20 -36,-15 -41,-21 -20,-25 -31,0 -30,21 -10,0 -26,-5 -31,-20 -10,-11 -41,1 -35,15 -10,35 0,26 -5,35 -5,21 -20,30 -21,20 -15,6 -20,0 -5,-26 15,-35 0,-10 -5,-21 -11,-15 -15,0 -15,5 -10,5 -16,-10 -15,-10 -20,5 5,21 15,15 0,15 -10,15 -25,-5 -16,5 6,21 25,15 15,15 1,10 -11,10 -15,5 -25,-5 -21,-15 -25,-25 -21,-10 -15,0 -25,10 -21,10 -36,-3 -4,-235 -11,-714 -7,-432 -8,-497 0,-35 -5,-365 -14,-1226 -8,-358 -30,-1299 -47,-1608 0,-28 -39,-1266 962,12 9,-325 663,13 2268,24 320,-320 z" />
<path id="5100" d="M -13336,24725 l 25,36 26,35 21,40 0,36 -36,51 -46,10 -25,-15 -5,-66 -6,-30 -5,-26 5,-40 10,-36 26,-15 z" />
<path id="5143" d="M -16497,27848 l 15,-5 21,0 20,10 20,5 21,10 25,5 16,10 15,15 0,16 -15,10 -21,5 -20,-5 -26,-5 -30,-5 -36,-10 -20,-15 0,-21 z" />
<path id="5146" d="M -16827,28001 l -16,0 -20,-10 -21,-10 0,-20 11,-20 20,-5 15,15 16,20 10,15 z" />
<path id="5148" d="M -16873,28062 l -15,6 -16,-5 -15,-16 -10,-10 -5,-15 5,-15 10,-5 15,5 21,10 15,15 5,10 z" />
<path id="5149" d="M -15997,28105 l -15,20 -16,5 -20,1 -10,-5 -5,-21 20,-30 10,-10 20,-6 11,0 5,11 10,15 z" />
<path id="5150" d="M -15634,28641 l -30,-10 -16,-25 -5,-25 0,-31 5,-20 10,-20 10,-11 5,-10 -5,-10 -5,-15 0,-10 5,-15 0,-16 -10,-20 -15,0 -16,-25 0,-20 5,-21 5,-15 5,-20 5,-41 0,-56 -5,-30 5,-20 5,-21 15,-10 20,10 11,20 10,31 10,30 0,36 -5,40 1,31 0,30 10,31 5,35 11,41 10,35 0,41 -5,40 -10,31 -15,25 z" />
<path id="5151" d="M -16806,28240 l -20,20 -16,10 -10,5 -10,-5 0,-30 10,-15 15,-16 15,-15 16,-10 10,-5 15,10 5,15 -5,15 z" />
<path id="5153" d="M -16969,28261 l 15,-1 21,0 30,-5 5,-5 11,0 5,10 -5,15 -16,26 -15,5 -15,10 -20,10 -10,6 z" />
<path id="5156" d="M -15731,28469 l 15,5 16,21 -10,30 -5,10 -11,5 -10,-5 -10,-10 -5,-15 0,-25 z" />
<path id="5158" d="M -15338,28645 l 15,0 25,5 16,16 5,25 -25,30 -51,-4 -21,-21 5,-20 10,-20 z" />
<path id="5159" d="M -15231,28706 l -5,-20 5,-21 15,-10 10,0 15,10 16,15 -5,26 0,20 -15,10 -21,0 -10,-5 z" />
<path id="5165" d="M -14472,28982 l 11,26 -11,10 -40,0 -21,-25 10,-21 31,-5 z" />
<path id="5170" d="M -14170,29260 l 51,41 51,40 15,20 0,16 -10,10 -20,0 -31,-10 -41,-41 -30,-20 -21,-15 -25,-10 -10,-5 -16,-5 -10,-10 -15,-10 -16,0 -5,10 -15,10 -10,10 -10,-5 -16,-15 -10,-20 0,-25 15,-26 15,-20 26,-5 25,5 31,20 46,30 z" />
<path id="5172" d="M -14118,29600 l -97,0 -41,-10 -40,-15 -56,-20 -67,-15 -66,-20 -76,-5 -66,11 -77,5 -97,-5 -71,0 -102,1 -132,15 -102,11 -96,15 -97,16 -102,26 -111,36 -82,10 -96,11 -163,41 -102,15 -76,1 -36,-5 -36,-21 -20,-25 0,-25 15,-10 25,5 46,20 51,-1 51,0 87,-15 61,-16 71,-10 61,-10 61,-16 56,-10 61,-11 86,-20 82,-16 86,-20 82,-11 71,-10 71,-15 92,-11 86,-15 107,-16 107,5 46,0 66,-1 51,-10 30,0 16,15 25,10 20,-5 26,10 25,0 15,-10 0,-15 -15,-16 -5,-25 30,-20 21,10 10,5 15,-10 21,-11 40,0 36,5 25,20 31,36 36,20 25,5 26,-5 20,-20 25,5 21,-1 5,-15 20,-10 26,5 30,30 36,41 5,35 -25,36 -41,20 -45,16 -61,15 z" />
<path id="5181" d="M -14153,29854 l 10,20 -5,15 -10,5 -20,6 -15,-11 -21,-15 -31,-30 -30,-40 -16,-21 -10,-20 -5,-20 5,-16 5,-5 15,-10 16,5 10,10 5,21 5,15 21,15 10,10 0,15 5,10 10,11 15,10 21,10 z" />
<path id="5185" d="M -13750,30147 l -25,-5 -10,-10 -11,-15 5,-21 16,-5 20,0 5,-5 5,-15 10,-26 20,-15 26,5 20,20 6,31 -5,30 -21,26 -20,5 z" />
</g>
<path id="Monroe" d="M -2591,12039 l 7,860 -77,10 -61,35 -153,36 -137,102 -82,55 -102,0 -153,82 -148,81 -97,35 -127,6 -215,-50 -91,111 -36,66 6,116 46,152 -46,56 -61,20 -51,5 -56,56 -56,86 -61,46 -97,0 -92,25 -117,46 -82,51 -25,71 -40,435 -30,60 -67,82 -71,71 -61,237 -65,233 15,167 -137,188 -117,202 -56,142 -66,96 -51,36 -76,5 -102,51 -427,482 -77,35 -107,76 -86,97 -51,81 -71,46 -51,55 -86,173 -61,55 -72,36 -45,91 -71,203 -46,71 -122,56 -128,81 -127,91 -46,76 -86,87 -97,106 -25,137 -591,6 -31,46 -76,36 -71,25 -97,10 -56,26 -36,25 -61,61 -61,46 -61,41 -82,20 -81,-15 -82,-15 -61,-40 -56,-41 -56,-25 -92,-15 -36,-5 -51,5 -61,-35 -46,-5 -122,11 -46,-10 -67,-41 -41,-20 -76,-15 -56,-35 -56,-51 -52,-40 -92,-101 -66,-121 -31,-26 -41,-15 -31,-40 -35,-66 -41,-55 -46,-26 -41,0 -56,16 -51,-15 -56,-15 -31,10 -71,46 -21,15 -61,-15 -86,10 -16,-25 -20,-15 -72,-40 -61,-66 -10,-66 -1,-111 15,-51 46,-46 51,-35 51,-56 25,-46 0,-136 25,-36 31,-15 25,10 36,35 15,41 -4,61 -10,141 31,51 51,20 56,-5 51,-21 61,-30 35,-46 5,-50 5,-142 -21,-106 -5,-46 10,-40 66,-56 31,-46 55,-111 16,-46 35,-36 133,-25 35,-21 87,-81 86,-76 72,-30 71,-11 56,0 56,15 31,20 61,66 72,66 56,35 61,0 46,-5 51,-26 25,-20 56,-66 36,-51 30,-25 82,-66 35,-41 46,-147 45,-167 15,-101 -5,-61 -46,-50 -87,-56 -133,-65 -127,-86 -108,-101 -30,-45 -6,-56 46,-40 51,-21 82,-30 45,-41 102,-106 97,-87 81,-50 16,-6 -2,-784 3,-799 479,-1 -8,-1295 163,10 -1,-177 990,8 424,-11 71,-1 1098,3 133,35 898,-1 25,0 z" />
<path id="Montgomery" d="M 5749,5488 l 10,60 0,61 10,20 21,-20 20,5 16,30 20,21 -5,25 -10,45 20,36 -5,50 -30,31 5,25 46,86 51,45 30,81 47,45 20,20 -5,51 15,35 -5,56 26,25 5,76 46,25 56,20 82,-5 41,5 20,36 5,40 31,20 56,91 -15,31 -5,40 36,61 61,111 71,60 57,41 61,20 46,35 25,46 5,25 -633,26 0,242 -122,5 32,1790 5,177 0,237 16,693 0,96 5,136 -107,6 -1751,16 -1041,27 -17,-961 -86,-5 -31,0 -853,16 -5,-212 0,-263 -17,-1122 0,-46 -10,-414 5,-30 0,-66 -87,0 -51,-35 -6,-56 -66,-60 -102,-21 -77,-60 -66,-86 -82,5 -72,15 -71,-40 -36,-86 -21,-81 -10,-75 -31,-61 41,-56 5,-65 41,-46 26,-71 25,-80 -56,-21 -21,-20 21,-50 -67,-5 -76,-5 -11,-51 46,-30 21,-46 -31,-116 10,-45 41,-16 82,10 35,-10 36,-50 51,-51 36,-61 5,-106 15,-65 -10,-56 25,-35 26,-10 97,55 66,0 108,-15 96,-76 67,-21 36,-10 71,-25 15,-15 0,-31 -15,-55 5,-51 107,0 77,-15 76,0 62,-5 61,-26 61,-30 72,15 133,101 87,40 41,81 35,10 31,-25 10,-51 -5,-55 -36,-81 -51,-76 -92,-70 15,-26 72,-45 35,-61 16,-55 35,-117 -10,-65 -46,-76 -10,-20 5,-31 20,-15 36,-5 31,25 51,116 61,36 31,-15 51,-31 71,-86 21,0 41,20 46,5 40,-25 6,-30 -46,-56 -1,-35 16,-40 51,-6 76,21 31,40 82,25 5,20 0,56 21,15 40,-30 31,0 61,85 -10,31 -30,5 -16,35 11,56 30,15 31,-5 41,-56 35,0 16,20 -5,76 71,91 21,51 36,5 66,-41 25,0 31,45 31,41 -56,56 -41,20 -21,20 6,30 40,36 41,0 67,-76 97,5 71,50 41,10 5,56 16,35 46,5 97,-45 81,-46 41,-5 -5,35 -41,61 0,20 11,20 40,10 51,-50 16,10 0,35 5,46 31,5 56,-25 107,-1 51,-25 51,0 10,15 67,76 138,40 138,20 30,-15 21,-111 51,-35 71,-5 z" />
<path id="Morgan" d="M -4321,-19638 l 56,45 113,136 190,115 144,111 97,-30 56,10 88,65 61,70 92,61 62,35 41,20 51,45 154,131 21,10 189,111 231,165 164,86 221,70 61,20 159,50 56,35 93,56 56,35 138,10 67,5 36,0 102,25 72,15 15,0 57,5 77,5 61,-16 41,-5 67,-15 61,-60 10,-11 31,-30 61,-65 36,-41 31,-25 46,-45 112,-91 62,-26 51,-5 56,15 62,20 36,10 30,26 26,25 41,60 0,106 6,76 46,55 56,20 97,35 57,5 61,-40 67,-101 71,-86 108,-96 97,-40 113,-21 35,5 72,15 190,141 51,101 31,116 -15,50 -26,10 -20,237 -61,373 -177,1286 -4,756 -543,-10 -461,-9 -82,0 -358,-5 -57,1 -578,-15 -62,0 -1705,-47 -881,-9 -138,-20 4,-373 0,-141 5,-111 33,-1436 22,-1789 0,-56 z" />
<path id="Perry" d="M -7370,441 l 951,-7 -4,490 470,-1 337,-1 92,-35 92,-1 1820,-8 7,1192 -20,40 -56,142 -71,212 -5,96 26,141 -61,112 -82,207 -25,177 10,75 72,147 10,25 0,45 -25,36 -102,61 -168,111 -31,30 -82,71 21,61 -10,61 10,35 31,35 -10,71 -26,61 -20,65 -31,21 -25,5 -15,40 -26,35 -10,51 -36,30 -20,81 -10,36 -10,50 0,41 -46,35 -20,20 -16,56 -25,30 -26,21 -980,1 -148,16 -1773,14 -6,1945 -464,6 -307,-4 -173,5 -8,-803 21,-172 -3,-965 2,-1102 0,-15 8,-808 481,-1 8,-798 20,-167 3,-969 475,-6 z" />
<path id="Pickens" d="M -12195,-6816 l 982,3 8,1110 -25,1892 12,717 -14,399 -123,76 -81,35 -77,31 -97,25 -97,56 -123,51 -40,60 -77,-5 -77,31 -92,46 -86,55 -72,46 -30,91 -36,91 -81,51 -36,55 -72,26 -61,-10 -76,50 -87,21 -82,10 -46,20 -61,31 -67,25 -46,36 21,60 -26,10 -66,-50 0,66 46,75 -10,51 -56,10 -61,46 -41,-31 -67,-20 -46,-75 -36,-35 -66,0 -10,55 -36,21 -10,45 -20,25 -62,-10 -51,26 -56,-25 -67,25 -82,-75 -97,35 -61,11 -77,-20 -56,50 36,76 -66,76 -102,30 -61,66 -36,91 6,96 -1166,18 -56,1 -340,6 11,-92 195,-1681 144,-1207 20,-181 19,-151 11,-96 191,-1690 107,-911 1745,77 318,29 z" />
<path id="Pike" d="M 6012,9576 l 41,5 0,36 81,5 0,-41 41,-5 6,126 158,0 -11,-161 46,-5 0,-36 41,0 0,-40 41,0 -5,81 368,-6 0,81 168,-5 10,526 0,70 1,51 40,5 0,76 46,0 0,162 889,-6 0,61 -5,323 0,359 5,218 173,5 123,-5 883,-11 56,5 -46,51 -51,121 -25,91 -6,137 0,101 -5,142 11,30 15,30 -15,66 -11,40 41,117 41,71 15,45 5,35 -25,66 -15,86 -16,41 -51,65 -117,92 -107,86 -36,50 -20,56 -5,141 0,51 -16,35 16,46 -16,40 -25,41 -66,50 -21,31 16,81 0,167 -5,96 10,45 -5,51 -67,147 -46,60 -10,81 -15,31 -138,101 -387,5 -582,1 -138,0 -1122,-5 -1541,27 -326,15 0,-96 10,-45 41,-26 40,-30 11,-56 56,-50 30,-86 -15,-36 10,-50 36,-46 40,-5 36,-25 15,-1098 -16,-288 -480,10 0,-212 46,-41 15,-35 0,-56 16,-20 30,-66 41,-50 15,-41 -5,-25 -15,-25 -31,-46 0,-45 41,-56 10,-40 -26,-46 0,-51 46,-91 10,-45 -5,-86 36,-41 20,-25 0,-35 -46,-71 -15,-76 25,-192 -15,-71 -51,-76 -10,-75 -16,-96 -20,-36 -26,-40 -10,-46 1751,-16 107,-6 -5,-136 0,-96 z" />
<path id="Randolph" d="M 12345,-6355 l 58,329 46,276 309,1837 269,1465 45,235 -2359,17 -1007,30 -557,16 -11,-1040 5,-131 36,0 5,-96 0,-66 -41,0 10,-883 82,0 5,-121 -41,5 5,-40 36,-5 0,-36 -82,0 40,-1907 737,5 302,0 138,-1 455,-10 1069,15 11,-10 -26,-66 41,-20 31,-5 30,55 92,46 108,40 71,5 62,71 z" />
<path id="Russell" d="M 15331,4384 l 11,37 10,79 5,50 5,51 5,65 2,68 -2,48 0,96 10,66 16,46 25,45 41,35 36,31 47,26 40,14 33,24 27,34 21,33 16,41 -3,41 -18,34 -25,36 -40,29 -29,27 -13,25 -16,40 -5,40 21,51 25,35 36,21 16,18 1,15 -15,11 -36,1 -43,5 -38,3 -20,21 -9,26 1,35 10,16 21,3 36,-6 36,3 30,15 12,24 -2,17 -18,4 -35,12 -24,4 -25,25 -15,24 -6,37 0,35 -11,34 -30,32 -29,21 -27,25 -18,17 -39,47 -35,52 -15,60 5,51 10,60 30,36 52,38 83,37 119,46 114,51 82,40 58,22 49,19 40,23 47,32 46,41 61,78 66,63 87,61 56,40 46,26 33,22 23,23 -1,12 -9,13 -11,3 -15,-10 -21,1 -15,6 -28,39 -8,24 -4,13 -26,20 -25,16 -31,10 -22,-1 -31,-4 -49,0 -26,20 -15,29 1,20 16,10 14,1 20,-5 36,5 10,11 0,15 -5,25 -26,35 -20,28 -10,23 -6,22 -5,18 -1,34 -9,30 -9,21 -37,11 -82,15 -209,0 -71,16 -48,25 -29,30 -15,30 -9,38 14,28 15,20 29,5 21,5 31,4 21,2 15,11 0,14 -5,20 -24,18 -30,16 -35,17 -74,25 -97,30 -82,36 -45,11 -40,21 -22,18 -17,24 -19,36 -25,37 -31,34 -28,28 -19,21 -20,31 -33,52 -69,86 -44,60 -39,37 -55,44 -35,25 -16,36 15,70 46,173 50,149 2,9 10,44 -1,25 -15,25 -30,36 -23,33 -4,51 2,51 2,50 6,25 -2,18 -53,-1 -296,5 -82,0 5,-76 -76,5 -5,76 -41,0 -649,15 -20,-30 -56,-50 -5,-36 15,-61 -25,-25 -16,-35 -20,-15 -26,-5 -30,-11 -16,-45 -46,-35 -91,-21 -41,-50 -31,-86 -46,-116 -1,-3 -120,9 2,-59 90,-6 -12,-22 -91,-76 -67,-46 -51,-30 5,-91 -796,20 -250,0 -378,16 -164,0 -10,-162 -46,-647 0,-41 -10,-106 0,-15 -10,-253 -15,-1324 -5,-368 679,-16 51,-5 250,-5 -25,-328 -21,-303 894,-36 256,-5 36,0 122,-5 159,-5 25,0 475,-15 618,-25 -20,-415 z" />
<path id="Saint_Clair" d="M 2844,-11354 l 0,-1 20,-56 1,-2 46,-111 26,-10 30,-10 205,-298 51,5 36,-30 20,-25 26,-10 25,15 16,76 36,60 31,20 71,5 16,45 20,16 41,-31 97,-86 62,-50 35,-5 36,-30 92,-21 103,-25 35,10 21,40 41,31 5,45 10,45 31,15 51,31 62,50 46,55 10,36 -15,70 15,36 0,40 -10,45 16,101 15,71 36,30 46,15 56,5 21,20 15,71 31,40 5,45 0,51 46,15 26,5 20,-5 31,-30 15,-5 26,10 20,20 26,5 41,-25 36,10 15,25 -15,146 10,35 26,26 46,40 15,50 0,76 11,30 20,5 26,-10 25,-10 62,10 30,0 98,-40 30,5 77,65 21,50 5,41 -5,45 -51,46 -11,20 0,20 26,40 56,46 31,45 0,35 -26,51 -46,45 -20,46 -15,50 -5,61 5,45 10,35 62,86 66,96 31,80 -10,76 -26,0 -61,10 -108,56 -87,96 -51,65 -133,66 -81,61 -82,65 -31,41 -25,95 -52,21 -92,-20 -41,10 -30,35 -16,91 6,186 -5,51 0,15 -21,50 -46,26 -66,10 -46,-10 -46,-51 -16,-55 -26,-86 -40,-60 -31,-15 -36,-15 -67,5 -81,50 -46,66 0,60 10,31 72,45 138,75 41,41 82,151 20,177 -10,126 -30,60 -57,31 -112,0 -62,5 -20,30 -5,66 56,45 57,25 15,20 -5,36 -26,25 -71,0 -103,-15 -46,0 -41,10 -25,30 -5,31 5,35 51,101 10,35 1,76 10,30 31,35 97,61 25,25 16,50 0,51 -26,35 -87,51 -153,101 -56,81 -15,121 -5,80 -46,56 -82,30 -77,31 -61,0 -41,-46 -5,-65 10,-76 -16,-45 -46,-36 -51,6 -72,45 -30,45 -5,76 0,86 -20,45 -72,66 -31,81 -25,126 -26,66 -86,70 -52,51 -61,81 -20,60 -82,111 -61,91 -82,51 -61,25 -67,35 -71,96 -2,-1195 -961,6 4,-490 -169,6 -158,0 -6,-81 -240,-10 0,-80 -82,0 4,-651 82,0 0,-161 82,4 0,-247 81,5 -5,-489 5,-126 -1,-111 -81,5 -1,-156 -81,-5 -1,-162 -5,-166 -322,0 4,-408 517,-1 92,-101 153,-40 159,15 189,-91 159,-6 113,-5 189,-156 173,-202 184,-172 118,-71 92,-101 20,-136 -51,-101 10,-96 92,-25 46,-55 92,-46 36,-50 -5,-31 -62,-42 z" />
<path id="Shelby" d="M 1085,-6982 l 158,0 169,-6 -4,490 961,-6 2,1195 -31,66 21,40 179,101 77,106 56,106 -10,70 -46,31 -113,5 -46,30 -15,51 21,151 -21,106 36,76 21,45 25,66 0,35 -5,20 -30,31 -154,85 -173,122 -77,20 -72,-20 -153,-86 -41,10 0,51 77,146 10,71 -30,71 -26,60 -26,20 -46,10 -92,-25 -71,21 -26,20 -61,151 16,126 41,76 5,86 -46,61 -92,-10 -77,-51 -61,5 -51,51 -72,177 5,55 36,25 123,71 10,30 11,51 5,30 0,86 15,35 36,35 36,25 46,31 21,30 30,55 0,56 -20,45 -97,51 -72,25 -35,26 -31,90 -31,36 -41,35 -61,31 -36,25 -30,40 -5,25 0,36 20,76 16,35 -5,45 -5,51 -62,50 -25,36 -10,45 10,56 20,75 -5,101 -10,106 -20,-15 -36,-15 -66,-5 -62,5 -61,21 -87,30 -97,-20 -56,-81 -67,-55 -46,-56 -102,-40 -52,-40 -46,-91 -127,-10 -21,-30 10,-61 72,-66 -1984,8 0,-30 -511,11 -5,227 -164,0 0,-85 -163,0 0,-41 -36,1 -5,-41 -128,5 0,-161 -164,0 10,-222 -174,0 4,-656 -46,-5 0,-35 -21,-5 -255,-5 0,-40 -200,0 -5,-287 40,4 5,-176 -5,-25 -41,-5 -6,-409 348,9 66,0 -5,-80 41,5 5,-41 36,0 5,-40 41,0 0,-86 199,5 0,-81 118,5 5,-41 82,0 -1,-207 36,5 5,-45 41,5 0,-41 82,-5 0,-45 81,5 0,-41 5,-40 36,0 0,-40 36,0 5,-81 82,5 0,-76 486,4 -1,-318 159,5 -1,-35 82,0 0,-46 241,10 4,-247 159,10 0,-81 36,0 5,-41 41,0 -1,-201 317,14 5,-161 164,5 0,-121 36,0 5,-41 36,0 -1,-81 164,5 5,-166 455,-1 189,0 0,-81 82,-5 5,-81 77,5 0,-161 82,-5 -1,-36 41,-5 0,-35 41,0 0,-81 82,-5 0,-76 164,5 -1,-81 241,5 z" />
<path id="Sumter" d="M -14371,-986 l 0,111 26,66 -10,70 25,36 31,20 36,20 26,40 -31,41 -51,35 -46,10 -61,-35 -26,-35 -41,0 -36,20 -10,41 21,45 31,35 71,51 36,60 -10,41 -40,40 -36,15 -72,-20 -87,-35 -30,56 -36,45 -20,41 20,50 31,30 51,15 62,31 25,40 21,101 5,71 -4,90 15,91 31,41 51,25 36,25 31,65 21,16 40,-6 26,15 10,51 -15,61 -15,35 -56,61 -25,40 -41,5 -31,-20 -41,-5 -36,15 -5,41 36,40 67,10 82,0 15,5 36,40 66,5 26,-15 35,-46 31,-35 36,-20 25,10 67,65 26,45 20,96 21,36 82,65 26,56 20,55 31,35 36,-10 107,-81 97,-36 51,20 26,41 20,60 11,61 -10,40 -41,51 -46,61 -41,35 -35,-5 -52,-55 -46,-25 -31,-10 -61,20 -41,35 -20,31 5,50 26,71 0,101 21,96 16,55 71,61 93,65 36,46 5,45 -31,61 -56,60 -86,46 -46,15 -67,-4 -41,25 -5,40 16,36 72,50 76,50 82,30 118,-10 71,-20 51,-36 72,-71 35,-20 41,10 57,45 20,35 -5,26 -41,40 -76,56 -36,35 -15,31 0,35 36,81 0,55 -15,91 -15,51 -41,40 -66,6 -82,5 -25,10 -21,41 1,121 25,65 113,106 16,30 36,106 41,41 51,0 51,-36 112,-56 56,0 62,25 71,-15 179,-56 173,-61 118,-81 127,-87 46,-10 46,0 87,-56 30,-10 77,30 92,86 57,80 30,16 97,-16 118,-61 92,5 92,10 30,20 26,61 61,40 42,55 0,31 -67,25 -51,36 -35,55 -46,-5 -26,-45 15,-76 5,-45 -26,-31 -76,-5 -62,-4 -35,20 -41,40 -41,11 -30,15 -21,50 0,41 26,35 62,55 107,132 26,60 16,91 -5,45 -21,81 11,61 66,86 72,40 56,0 62,25 35,50 16,31 0,20 -41,40 -41,16 -97,-10 -71,-5 -26,0 -87,-35 -87,-15 -122,-15 -41,5 -41,31 -81,86 -56,65 -102,92 -72,55 -40,56 -46,111 -46,71 -86,91 -72,51 -97,21 -71,10 -77,41 -81,60 -56,36 -97,36 -61,40 -56,56 -66,126 -15,203 -15,166 -15,81 16,25 15,26 41,20 46,10 92,-11 36,10 25,16 67,95 51,46 51,30 62,75 10,11 21,20 25,10 51,10 87,-26 15,10 31,31 21,75 10,20 56,15 56,21 36,40 62,116 15,20 57,10 46,20 10,30 -475,1 -2334,-3 -1836,-44 131,-1108 194,-1633 28,-236 169,-1399 185,-1613 105,-863 86,-708 340,-6 56,-1 z" />
<path id="Talladega" d="M 7776,-7130 l -5,161 -506,485 -496,0 0,490 -164,0 -5,651 -158,0 0,161 -327,1 -30,974 -144,-5 -1140,-14 -15,696 -4,434 -486,-10 -5,566 -5,282 1,162 -1867,27 -1109,-4 31,-90 35,-26 72,-25 97,-51 20,-45 0,-56 -30,-55 -21,-30 -46,-31 -36,-25 -36,-35 -15,-35 0,-86 -5,-30 -11,-51 -10,-30 -123,-71 -36,-25 -5,-55 72,-177 51,-51 61,-5 77,51 92,10 46,-61 -5,-86 -41,-76 -16,-126 61,-151 26,-20 71,-21 92,25 46,-10 26,-20 26,-60 30,-71 -10,-71 -77,-146 0,-51 41,-10 153,86 72,20 77,-20 173,-122 154,-85 30,-31 5,-20 0,-35 -25,-66 -21,-45 -36,-76 21,-106 -21,-151 15,-51 46,-30 113,-5 46,-31 10,-70 -56,-106 -77,-106 -179,-101 -21,-40 31,-66 71,-96 67,-35 61,-25 82,-51 61,-91 82,-111 20,-60 61,-81 52,-51 86,-70 26,-66 25,-126 31,-81 72,-66 20,-45 0,-86 5,-76 30,-45 72,-45 51,-6 46,36 16,45 -10,76 5,65 41,46 61,0 77,-31 82,-30 46,-56 5,-80 15,-121 56,-81 153,-101 87,-51 26,-35 0,-51 -16,-50 -25,-25 -97,-61 -31,-35 -10,-30 -1,-76 -10,-35 -51,-101 -5,-35 5,-31 25,-30 41,-10 46,0 103,15 71,0 26,-25 5,-36 -15,-20 -57,-25 -56,-45 5,-66 20,-30 62,-5 112,0 57,-31 30,-60 10,-126 -20,-177 -82,-151 -41,-41 -138,-75 -72,-45 -10,-31 0,-60 46,-66 81,-50 67,-5 36,15 31,15 40,60 26,86 16,55 46,51 46,10 66,-10 46,-26 21,-50 0,-15 389,25 107,10 420,25 5,25 10,45 21,61 40,65 72,46 41,30 31,35 -5,51 0,116 20,65 21,45 20,91 -15,71 0,30 5,25 251,15 0,147 276,4 1576,-6 -5,116 -5,141 z" />
<path id="Tallapoosa" d="M 9706,-2166 l 16,1126 0,61 26,2822 5,66 0,126 -159,10 0,157 -654,20 6,162 -16,0 -143,5 -5,217 16,687 5,51 0,171 -159,6 0,151 -807,16 0,81 5,171 6,122 5,378 5,208 -833,20 -15,-20 -20,-35 0,-71 5,-96 -11,-71 10,-197 16,-96 0,-75 -26,-101 -10,-96 0,-96 -36,-177 -10,-111 10,-86 20,-121 36,-177 5,-56 5,-45 -20,-36 -72,-55 -72,-86 -20,-50 -10,-26 -26,-40 -15,-51 48,-235 71,-44 72,-120 -24,-127 99,-107 9,-74 5,-116 -684,4 -10,0 -6,-162 -161,-1 6,160 -325,0 -5,-333 0,-192 -1,-121 -15,0 -20,-36 -21,-30 21,-51 35,6 0,-51 -11,-974 -27,-1939 328,0 -6,-172 1621,4 1381,-36 z" />
<path id="Tuscaloosa" d="M -7337,-7634 l 491,9 0,167 486,-7 -3,818 476,14 56,71 -5,65 -30,35 -31,6 -26,-5 -56,-51 -77,-5 -36,41 31,111 11,45 -26,56 -87,-10 -51,-101 -46,-10 -72,15 -66,-35 -62,0 -30,30 -46,101 -31,61 -25,45 66,0 -4,157 199,10 0,156 11,-5 266,20 0,166 164,10 -5,75 122,0 6,81 46,0 -10,166 159,5 0,323 159,5 5,81 159,4 0,167 159,0 5,247 164,-1 0,162 322,4 1,172 148,5 225,-1 -5,121 118,0 5,41 82,-1 -5,288 0,36 -102,0 -255,278 -164,0 -5,-156 -256,-5 -102,101 0,61 -362,359 -4,646 -767,-29 -280,429 -65,728 -10,242 -966,17 -629,-4 -327,1 -1774,-47 -10,-15 10,-45 15,-10 21,-26 5,-30 -394,6 -751,-8 18,-848 -72,0 4,-273 10,-202 10,-191 14,-399 -12,-717 25,-1892 -8,-1110 901,68 583,-11 133,-1 3,-650 323,-6 9,-323 660,44 z" />
<path id="Walker" d="M -9262,-12088 l 574,24 686,54 655,8 1781,27 31,5 87,5 56,0 87,45 31,50 41,5 31,-100 46,-71 15,-25 46,-16 107,-15 108,60 97,81 47,35 71,136 -4,96 20,25 21,15 76,0 82,25 72,66 -25,75 56,61 -5,50 15,51 52,60 77,81 36,90 10,111 -51,31 -41,15 -36,25 6,30 56,40 5,21 788,23 -3,249 46,-34 26,-6 19,5 13,19 32,87 216,3 56,15 0,151 77,-5 11,333 -5,156 -15,0 -143,-5 -5,167 -323,-10 1,162 -159,0 1,323 -82,5 0,156 -82,0 6,484 -159,-4 -9,322 -323,-9 1,328 -276,-10 -210,1 0,161 -322,-4 0,161 -163,0 -5,81 0,25 -72,126 11,66 61,111 82,45 16,25 -16,26 -25,30 -92,25 -107,122 -62,20 -107,-35 -51,-5 -26,25 -20,131 -56,91 -46,36 -36,-5 -25,-26 -52,-141 -66,-10 -41,76 0,45 77,71 -476,-14 3,-818 -486,7 0,-167 -491,-9 13,-964 -972,-43 -15,-1947 -732,-33 -236,-25 10,-474 z" />
<path id="Washington" d="M -17345,13365 l 3532,40 5,20 10,81 6,36 51,85 21,56 5,35 15,71 -20,31 -46,20 -41,10 -20,20 0,31 26,71 16,131 25,61 36,50 26,46 10,40 0,41 -25,55 -15,36 10,55 77,81 87,66 82,40 239,14 41,15 57,91 -15,36 -46,10 -102,-50 -26,-5 -36,15 41,66 57,91 56,35 92,50 56,25 102,66 72,20 77,20 35,40 31,36 36,20 107,15 128,14 56,31 61,60 41,66 21,86 46,40 117,66 31,25 0,66 -25,66 -35,70 -56,77 0,30 26,71 5,50 0,41 -10,30 -31,36 -40,10 -77,10 -25,10 -10,21 15,35 51,25 56,20 31,41 51,35 20,20 1,20 -16,26 -91,76 -41,41 -15,30 0,35 20,21 26,-11 36,-20 35,-10 46,10 26,15 15,30 5,26 0,35 -61,20 -137,-9 -46,5 -16,40 1,51 -51,66 -71,41 0,35 40,0 113,-51 35,5 41,50 31,5 10,-15 -41,-111 25,-30 87,-16 76,15 36,76 51,-61 0,-76 15,-30 31,10 15,35 -5,56 -55,187 25,56 6,30 -5,26 -36,65 -25,41 -10,61 -15,40 -31,41 -25,35 -10,31 -5,50 -10,26 -16,25 -20,5 -36,-5 -20,-25 0,-20 20,-31 30,-50 0,-21 -20,-25 -21,-15 -20,-5 -25,5 -21,26 0,80 -20,82 -10,76 -10,40 -30,30 -41,-4 -46,-26 -36,-25 -30,-10 -82,-10 -46,0 -30,11 -16,30 -5,25 11,41 30,40 57,30 46,26 10,30 0,51 -10,30 -31,20 -30,21 -20,20 -5,25 15,41 10,40 0,31 -10,20 -20,5 -26,-15 -51,-25 -35,-5 -31,5 -36,20 -50,56 -36,20 -20,21 0,30 20,15 36,0 66,-25 20,-6 26,5 41,71 36,41 61,20 51,10 46,25 31,45 36,66 25,40 26,26 0,35 -66,46 -5,61 -5,35 -20,20 -51,31 -21,25 -5,41 6,30 15,61 16,61 5,50 -5,31 -15,60 10,41 36,61 15,30 -25,20 -36,0 -56,-10 -46,16 -91,-20 -41,0 -159,-111 -320,320 -2268,-24 -663,-13 -9,325 -962,-12 -12,-390 -53,-1610 -60,-1564 -3,-96 -42,-1643 z" />
<path id="Wilcox" d="M -7900,7196 l 148,-26 61,-55 56,10 46,25 36,45 0,56 113,111 31,35 46,20 56,61 26,20 66,-15 36,-16 35,15 31,26 10,25 1,71 25,30 72,25 20,5 16,25 -10,51 46,116 41,10 10,15 -5,61 25,5 56,-56 57,10 71,-5 61,25 52,30 51,-20 25,25 10,25 -25,36 5,30 26,41 51,20 82,116 20,15 31,55 56,-10 46,35 36,101 5,66 52,40 76,-15 87,25 87,35 -10,76 -92,137 51,5 56,-20 72,45 51,40 11,96 20,36 21,60 66,36 51,4 46,5 31,21 56,0 31,10 30,50 31,15 51,-5 36,10 0,30 -36,61 0,41 11,35 20,15 77,20 36,35 10,71 -56,132 2593,-5 286,0 92,-1 92,-5 -20,147 11,814 -485,6 1,333 5,21 7,1097 -1985,14 -25,0 -898,1 -133,-35 -1098,-3 -71,1 -424,11 -990,-8 -551,21 -576,-3 -7,-481 -138,-65 -291,0 2,-1279 0,-121 428,-37 -2,-758 0,-20 5,-137 -1,-263 0,-227 959,8 0,-172 -3,-1188 92,-121 61,-31 30,0 108,20 133,10 z" />
<path id="Winston" d="M -9219,-15466 l 82,0 727,33 159,0 348,9 154,5 56,5 277,10 46,0 236,14 245,10 67,5 72,0 855,18 353,4 123,0 1034,3 -4,333 -5,212 -4,282 0,161 -4,419 -14,806 0,222 5,61 -5,106 -4,307 0,197 -5,106 6,96 0,100 -312,-9 -52,0 -97,-81 -108,-60 -107,15 -46,16 -15,25 -46,71 -31,100 -41,-5 -31,-50 -87,-45 -56,0 -87,-5 -31,-5 -1781,-27 -655,-8 -686,-54 -574,-24 5,-343 -2,-499 0,-192 4,-282 0,-66 10,-171 14,-504 5,-197 5,-156 -1,-51 0,-146 -1,-247 0,-252 z" />
</g>
<use xlink:href="#Autauga" stroke="none" fill="red" />
</svg>
