<svg xmlns="http://www.w3.org/2000/svg" preserveAspectRatio="xMidYMax" viewBox="19.788779 387.211125 78.102203 19.307631" width="780" height="190">
 <!-- <path d="M 53.530133,388.09438 L 53.665403,388.08981 L 53.89663,388.29971 L 54.011287,388.24912 L 54.021999,388.17328 L 54.081634,388.18328 L 54.078334,388.2205 L 54.126591,388.20043 L 54.399529,388.08681 L 54.705918,388.09377 L 54.705918,388.09377 L 54.706669,388.09371 L 54.706669,388.09371 L 54.717595,388.09268 L 54.717595,388.09268 L 54.750599,388.09164 L 54.750599,388.09164 L 55.262417,388.10249 L 55.352852,388.10438 L 55.586516,388.10921 L 55.597281,388.10556 L 55.728794,388.1078 L 55.897263,388.11523 L 55.961472,388.11806 L 55.972241,388.11913 L 56.316558,388.15348 L 56.57541,388.17166 L 56.953468,388.19809 L 56.953468,388.19809 L 56.980918,388.19861 L 56.980918,388.19861 L 57.004816,388.20095 L 57.004816,388.20095 L 57.006852,388.20169 L 57.006852,388.20169 L 57.108156,388.20958 L 57.108156,388.20958 L 57.173325,388.21323 L 57.173325,388.21323 L 57.791635,388.24441 L 57.917863,388.25073 L 58.096896,388.25965 L 58.207604,388.26514 L 58.207604,388.26514 L 58.21902,388.26401 L 58.21902,388.26401 L 58.597548,388.2951 L 58.597548,388.2951 L 58.644326,388.29896 L 58.644326,388.29896 L 58.64763,388.29944 L 58.64763,388.29944 L 58.886815,388.30615 L 59.052129,388.31075 L 59.148922,388.31343 L 59.192318,388.31463 L 59.298698,388.31755 L 59.65053,388.33636 L 59.797949,388.3442 L 60.069334,388.35855 L 60.442288,388.37181 L 60.716595,388.3643 L 60.831535,388.36921 L 61.152195,388.37503 L 61.339501,388.37837 L 61.621308,388.38928 L 61.67822,388.39148 L 61.823385,388.39705 L 61.930247,388.39808 L 62.624422,388.40441 L 62.63588,388.40451 L 62.948519,388.40718 L 62.948519,388.40718 L 62.953304,388.40772 L 62.953304,388.40772 L 63.394695,388.4073 L 63.518006,388.40715 L 64.038051,388.35488 L 64.043534,388.35451 L 64.895786,388.29606 L 64.980162,388.27684 L 65.197052,388.27428 L 65.235491,388.25821 L 65.284066,388.2504 L 65.412266,388.24743 L 65.985399,388.24585 L 66.020032,388.24574 L 66.13605,388.24537 L 66.361471,388.2496 L 67.024195,388.26168 L 67.024195,388.26168 L 67.111183,388.26628 L 67.111183,388.26628 L 67.440553,388.27656 L 67.664335,388.28348 L 68.006407,388.30619 L 68.108609,388.31624 L 68.387489,388.34361 L 69.14219,388.39454 L 69.14219,388.39454 L 69.142018,388.39529 L 69.142018,388.39529 L 69.291439,388.40639 L 69.643628,388.40798 L 69.80848,388.4141 L 71.088885,388.42121 L 71.124239,388.42138 L 71.24443,388.42194 L 71.808468,388.436 L 71.977187,388.44013 L 72.176199,388.43272 L 72.176496,388.43271 L 72.363576,388.42571 L 72.805036,388.41985 L 72.806153,388.41983 L 72.808102,388.4198 L 72.874631,388.4189 L 72.895522,388.41898 L 72.907158,388.41902 L 72.934644,388.41912 L 72.943848,388.41915 L 73.094418,388.41968 L 74.411844,388.4232 L 74.499887,388.4196 L 74.804062,388.40865 L 74.810489,388.40853 L 75.070017,388.40347 L 75.127647,388.40234 L 75.49654,388.39499 L 75.697593,388.39092 L 75.709164,388.39076 L 75.741096,388.39032 L 75.901161,388.38808 L 76.646779,388.37729 L 76.947971,388.37275 L 77.482628,388.37794 L 77.785107,388.38073 L 78.729387,388.37856 L 79.608481,388.36314 L 79.608487,388.36314 L 79.609705,388.36312 L 79.626021,388.34254 L 79.636584,388.31107 L 79.674942,388.25419 L 79.705535,388.23202 L 79.726052,388.20353 L 79.72985,388.19673 L 79.731866,388.19312 L 79.732424,388.19212 L 79.738707,388.18087 L 79.739647,388.15604 L 79.739647,388.15604 L 79.743197,388.15593 L 79.786829,388.15459 L 79.786829,388.15459 L 79.786958,388.15495 L 79.786958,388.15495 L 79.874098,388.15528 L 79.969901,388.15563 L 80.006864,388.15576 L 80.037036,388.15786 L 80.039711,388.15805 L 80.080303,388.16087 L 80.213097,388.1701 L 80.218093,388.16999 L 80.460845,388.16451 L 80.546558,388.16256 L 80.802326,388.15669 L 80.890125,388.15366 L 80.913116,388.15287 L 81.560375,388.13027 L 82.430248,388.09672 L 83.312375,388.05404 L 83.450279,388.09648 L 83.546877,388.09218 L 83.546877,388.09218 L 83.550518,388.09245 L 83.550518,388.09245 L 83.559194,388.0929 L 83.559194,388.0929 L 83.76879,388.0846 L 84.224181,388.0664 L 84.877301,388.03988 L 85.533458,388.01273 L 85.533458,388.01273 L 85.543388,388.01283 L 85.543388,388.01283 L 85.924168,387.99829 L 86.789908,387.9646 L 87.305194,387.93903 L 87.759784,387.91941 L 88.290502,387.89621 L 88.478384,387.88792 L 88.510617,387.88649 L 88.510617,387.88649 L 88.577758,387.88348 L 88.652965,387.88009 L 88.652965,387.88009 L 88.884987,387.86798 L 88.915049,387.8664 L 89.283288,387.84703 L 89.285712,387.8469 L 89.424961,387.83799 L 89.474107,387.83484 L 89.614899,387.8258 L 89.617549,387.82563 L 89.625992,387.82509 L 89.71598,387.8193 L 89.71598,387.8193 L 89.718666,387.81917 L 89.727618,387.81876 L 89.727618,387.81876 L 89.776638,387.81564 L 89.776638,387.81564 L 89.822447,387.81272 L 89.855535,387.8106 L 90.109582,387.7943 L 90.376466,387.7771 L 90.377713,387.77709 L 90.380615,387.77705 L 90.384114,387.777 L 90.453312,387.77609 L 90.555126,387.78284 L 90.561817,387.78329 L 90.564206,387.78315 L 90.564317,387.78314 L 90.575795,387.7825 L 90.586044,387.78192 L 91.009633,387.75799 L 91.23842,387.74497 L 91.27641,387.7428 L 92.079756,387.69658 L 92.299278,387.68563 L 92.380266,387.68158 L 92.559743,387.67257 L 92.635268,387.66877 L 92.709534,387.66502 L 92.709534,387.66502 L 92.717923,387.66459 L 92.717923,387.66459 L 92.738269,387.66383 L 92.738269,387.66383 L 92.753725,387.66203 L 92.753725,387.66203 L 92.849574,387.65674 L 92.849574,387.65674 L 92.854171,387.65749 L 92.854171,387.65749 L 92.870232,387.65722 L 92.967268,387.65561 L 93.025816,387.65464 L 93.039365,387.65441 L 93.051535,387.65421 L 93.051535,387.65421 L 93.121075,387.65351 L 93.121075,387.65351 L 93.130907,387.65357 L 93.15244,387.65371 L 93.15244,387.65371 L 93.181765,387.65403 L 93.181765,387.65403 L 93.38995,387.64279 L 93.38995,387.64279 L 93.409248,387.64131 L 93.409248,387.64131 L 93.824615,387.62141 L 93.87818,387.61883 L 93.992501,387.61331 L 94.565769,387.58539 L 95.32958,387.54761 L 95.419617,387.29784 L 96.279378,387.2741 L 96.782808,387.25956 L 96.887914,387.25648 L 97.084505,387.2507 L 97.890982,387.21114 L 97.631364,387.49077 L 97.631364,387.49077 L 97.609661,387.52093 L 97.623592,387.59369 L 97.642498,387.64291 L 97.646563,387.68377 L 97.621877,387.70853 L 97.564076,387.71954 L 97.52954,387.71254 L 97.515604,387.73822 L 97.511026,387.74665 L 97.515941,387.78039 L 97.534984,387.81153 L 97.536049,387.81328 L 97.54746,387.85421 L 97.54157,387.8964 L 97.509281,387.9324 L 97.479069,387.9867 L 97.460205,388.03949 L 97.460205,388.03949 L 97.461975,388.07153 L 97.390646,388.08237 L 97.390646,388.08237 L 97.390474,388.12801 L 97.399943,388.19183 L 97.400331,388.19444 L 97.410889,388.20785 L 97.434194,388.23744 L 97.443669,388.24947 L 97.448964,388.25619 L 97.452522,388.26568 L 97.469946,388.31215 L 97.469946,388.31215 L 97.474703,388.32338 L 97.474703,388.32338 L 97.479895,388.3373 L 97.479895,388.3373 L 97.48213,388.35254 L 97.48213,388.35254 L 97.499264,388.38564 L 97.499264,388.38564 L 97.499056,388.39572 L 97.499056,388.39572 L 97.505518,388.42496 L 97.505518,388.42496 L 97.499926,388.43445 L 97.499926,388.43445 L 97.484375,388.47094 L 97.484375,388.47094 L 97.48179,388.47542 L 97.48179,388.47542 L 97.486075,388.50256 L 97.486075,388.50256 L 97.501476,388.51059 L 97.501476,388.51059 L 97.511141,388.52209 L 97.511141,388.52209 L 97.516646,388.5524 L 97.516646,388.5524 L 97.52608,388.57207 L 97.52608,388.57207 L 97.517899,388.64874 L 97.517899,388.64874 L 97.532584,388.75086 L 97.546244,388.76165 L 97.549622,388.7746 L 97.545936,388.83464 L 97.523981,388.87118 L 97.513264,388.88048 L 97.496486,388.87859 L 97.433375,388.90429 L 97.376829,388.96307 L 97.377462,389.00597 L 97.377462,389.00597 L 97.386141,389.03209 L 97.386141,389.03209 L 97.389126,389.07573 L 97.388341,389.07895 L 97.381653,389.10637 L 97.380876,389.12877 L 97.380472,389.14044 L 97.385171,389.1704 L 97.386163,389.18846 L 97.386413,389.193 L 97.373263,389.23151 L 97.366834,389.28063 L 97.350551,389.33456 L 97.345542,389.35114 L 97.267383,389.43468 L 97.229258,389.45994 L 97.195105,389.49061 L 97.185396,389.53648 L 97.188484,389.59298 L 97.206385,389.64111 L 97.244567,389.66821 L 97.267333,389.69445 L 97.277499,389.71278 L 97.280757,389.72404 L 97.285033,389.73881 L 97.279827,389.7958 L 97.268659,389.83038 L 97.266031,389.85515 L 97.264627,389.86838 L 97.281261,389.89465 L 97.330173,389.94955 L 97.330986,389.95149 L 97.330994,389.9515 L 97.351246,389.99964 L 97.353309,390.03731 L 97.357799,390.06351 L 97.369208,390.10444 L 97.382426,390.12261 L 97.411499,390.15124 L 97.451729,390.16037 L 97.508474,390.19472 L 97.516952,390.21003 L 97.532607,390.23831 L 97.533344,390.23964 L 97.533253,390.24051 L 97.529398,390.27724 L 97.518198,390.3149 L 97.467118,390.32954 L 97.429996,390.30862 L 97.394084,390.283 L 97.348805,390.26633 L 97.348805,390.26633 L 97.303037,390.25966 L 97.303037,390.25966 L 97.267959,390.26487 L 97.227333,390.27973 L 97.183937,390.30414 L 97.153812,390.31048 L 97.094894,390.31716 L 97.06279,390.31383 L 97.038002,390.30762 L 97.022356,390.30092 L 96.98904,390.3065 L 96.961684,390.27987 L 96.87769,390.22566 L 96.846824,390.21242 L 96.822028,390.21356 L 96.790948,390.20391 L 96.76474,390.17133 L 96.761563,390.16517 L 96.757987,390.15824 L 96.747675,390.13825 L 96.715377,390.106 L 96.699479,390.10606 L 96.671958,390.10617 L 96.665448,390.1062 L 96.600953,390.15369 L 96.56431,390.18688 L 96.561011,390.18987 L 96.476211,390.21945 L 96.382087,390.24078 L 96.380884,390.24105 L 96.310807,390.28955 L 96.278756,390.31945 L 96.277487,390.32063 L 96.273303,390.32454 L 96.227818,390.35882 L 96.19995,390.37527 L 96.171527,390.39204 L 96.123207,390.44434 L 96.122305,390.44532 L 96.121986,390.44566 L 96.05676,390.53426 L 96.027954,390.57338 L 96.013201,390.60886 L 95.985802,390.63601 L 95.917841,390.69056 L 95.853175,390.71636 L 95.824869,390.71493 L 95.73425,390.78022 L 95.532451,391.20433 L 95.484491,391.30499 L 95.309956,391.62519 L 95.179537,391.89421 L 95.069107,392.12183 L 94.990068,392.28464 L 94.767147,392.74342 L 94.770419,392.75438 L 94.75342,392.80451 L 94.75159,392.8099 L 94.746479,392.8161 L 94.71416,392.85524 L 94.67643,392.85044 L 94.670517,392.84969 L 94.66792,392.84762 L 94.614021,392.80471 L 94.521329,392.79386 L 94.505855,392.82694 L 94.507667,392.86247 L 94.464217,392.9493 L 94.41258,392.96418 L 94.302141,393.03102 L 94.298987,393.04009 L 94.246555,393.03941 L 94.133178,393.0485 L 94.104964,393.04435 L 94.069659,393.02499 L 94.036815,393.03667 L 93.983305,393.06831 L 93.977273,393.06874 L 93.876178,393.07594 L 93.843525,393.05531 L 93.77017,392.91251 L 93.780729,392.86588 L 93.777879,392.80925 L 93.735026,392.72904 L 93.733045,392.72398 L 93.718647,392.68718 L 93.700851,392.6417 L 93.663672,392.58456 L 93.659252,392.58575 L 93.655933,392.58664 L 93.648361,392.58868 L 93.592405,392.60372 L 93.548828,392.62335 L 93.473451,392.62637 L 93.447445,392.62989 L 93.432744,392.64287 L 93.417683,392.65969 L 93.388718,392.66752 L 93.355275,392.66453 L 93.344973,392.65725 L 93.334515,392.64664 L 93.305231,392.62058 L 93.2678,392.61212 L 93.23652,392.60031 L 93.199905,392.57208 L 93.175609,392.54824 L 93.146898,392.52624 L 93.088388,392.50748 L 93.064914,392.50753 L 93.024207,392.52379 L 92.992284,392.53561 L 92.98283,392.55989 L 92.970848,392.61347 L 92.941759,392.65262 L 92.885728,392.70994 L 92.885728,392.70994 L 92.880206,392.72103 L 92.880206,392.72103 L 92.872225,392.73057 L 92.872225,392.73057 L 92.860721,392.73934 L 92.860721,392.73934 L 92.827485,392.7641 L 92.812798,392.79599 L 92.803652,392.8135 L 92.783418,392.83074 L 92.77713,392.83609 L 92.737382,392.82307 L 92.723956,392.80703 L 92.696225,392.806 L 92.660007,392.81016 L 92.63493,392.85145 L 92.615239,392.8802 L 92.593089,392.88647 L 92.587986,392.88792 L 92.567828,392.88255 L 92.53893,392.86393 L 92.497983,392.87594 L 92.482508,392.87335 L 92.405978,392.80362 L 92.396809,392.80073 L 92.32414,392.82874 L 92.278488,392.85544 L 92.240362,392.88845 L 92.228826,392.91126 L 92.146247,392.97758 L 92.11732,392.9941 L 92.0839,392.9978 L 92.0839,392.9978 L 92.04883,393.02104 L 92.04883,393.02104 L 92.021058,393.02785 L 91.981899,393.05228 L 91.890741,393.05332 L 91.876259,393.046 L 91.876259,393.046 L 91.861802,393.03356 L 91.815756,393.05246 L 91.771035,393.09911 L 91.7665,393.1104 L 91.7665,393.1104 L 91.717197,393.14574 L 91.717197,393.14574 L 91.674467,393.16183 L 91.674467,393.16183 L 91.651397,393.1683 L 91.637264,393.17227 L 91.613469,393.20051 L 91.609913,393.20473 L 91.596446,393.24432 L 91.531446,393.268 L 91.512113,393.27504 L 91.386348,393.38449 L 91.343495,393.43325 L 91.284272,393.55416 L 91.282322,393.55814 L 91.228568,393.66785 L 90.921289,394.29429 L 90.886782,394.31037 L 90.8032,394.38547 L 90.731286,394.41424 L 90.721199,394.43183 L 90.720929,394.45875 L 90.712323,394.47046 L 90.688291,394.48509 L 90.688291,394.48509 L 90.68797,394.48597 L 90.68797,394.48597 L 90.657089,394.51538 L 90.64274,394.52905 L 90.577507,394.59117 L 90.533287,394.64752 L 90.518196,394.6505 L 90.518196,394.6505 L 90.46922,394.6729 L 90.46922,394.6729 L 90.434363,394.67124 L 90.428716,394.67373 L 90.420233,394.67746 L 90.396994,394.6877 L 90.379178,394.70184 L 90.302295,394.71926 L 90.272143,394.74624 L 90.231834,394.75667 L 90.227789,394.75865 L 90.226317,394.75937 L 90.224041,394.76048 L 90.203615,394.77044 L 90.140351,394.81471 L 90.110522,394.85665 L 90.07167,394.93325 L 89.98392,394.91888 L 89.913287,394.89059 L 89.899237,394.88154 L 89.88735,394.82711 L 89.857025,394.81335 L 89.757568,394.80865 L 89.732071,394.82135 L 89.682705,394.8316 L 89.615301,394.8191 L 89.586377,394.80499 L 89.577937,394.76077 L 89.582893,394.72691 L 89.615285,394.61416 L 89.63641,394.58125 L 89.609573,394.5285 L 89.557849,394.51617 L 89.553768,394.51066 L 89.532263,394.44148 L 89.536976,394.40567 L 89.540885,394.39214 L 89.558175,394.37468 L 89.620129,394.2386 L 89.656552,394.19706 L 89.695582,394.14814 L 89.699337,394.11122 L 89.699658,394.10806 L 89.686751,394.08326 L 89.662086,394.05899 L 89.64431,394.02635 L 89.64281,394.0236 L 89.62234,393.9977 L 89.592123,393.98602 L 89.55861,393.94415 L 89.522697,393.92909 L 89.480916,393.92431 L 89.479715,393.87764 L 89.485425,393.84401 L 89.473055,393.82531 L 89.471853,393.82349 L 89.470204,393.82234 L 89.381406,393.76082 L 89.344455,393.72243 L 89.343631,393.72245 L 89.30024,393.72331 L 89.244048,393.7592 L 89.211919,393.79199 L 89.187043,393.81737 L 89.145912,393.83679 L 89.123767,393.83321 L 89.075754,393.8535 L 89.025411,393.8791 L 88.985179,393.9087 L 88.891741,393.9607 L 88.881465,393.97339 L 88.875731,394.00701 L 88.847653,394.04608 L 88.739716,394.09758 L 88.721763,394.12061 L 88.686209,394.14635 L 88.684117,394.14786 L 88.682908,394.14821 L 88.670378,394.1518 L 88.664958,394.15336 L 88.615419,394.16757 L 88.612644,394.18661 L 88.615744,394.21596 L 88.611042,394.23228 L 88.531223,394.28696 L 88.505825,394.28474 L 88.47019,394.29631 L 88.31168,394.43227 L 88.272816,394.45287 L 88.230471,394.45584 L 88.175128,394.4716 L 88.080588,394.50796 L 88.069646,394.52281 L 88.058737,394.54341 L 88.05361,394.59357 L 88.027504,394.62093 L 88.002859,394.64675 L 88.00304,394.6558 L 88.005104,394.75934 L 88.040485,394.79376 L 88.054025,394.79537 L 88.069105,394.78996 L 88.089311,394.79916 L 88.104027,394.81975 L 88.080784,394.8771 L 88.033577,394.90061 L 88.021001,394.91313 L 88.014261,394.92871 L 88.017335,394.96527 L 88.000205,395.04462 L 87.887009,395.13856 L 87.841055,395.20968 L 87.838631,395.22124 L 87.84303,395.23876 L 87.87261,395.29517 L 87.872033,395.30761 L 87.85391,395.32891 L 87.817391,395.32967 L 87.799281,395.33534 L 87.754911,395.36855 L 87.704187,395.3946 L 87.697456,395.38719 L 87.662663,395.30873 L 87.635064,395.2742 L 87.624401,395.27421 L 87.59495,395.25299 L 87.531779,395.19816 L 87.519623,395.18139 L 87.439222,395.11753 L 87.414184,395.10395 L 87.341224,395.1255 L 87.262206,395.09399 L 87.249342,395.07869 L 87.217483,395.07217 L 87.130912,395.11482 L 87.054029,395.16265 L 87.015586,395.17048 L 87.0013,395.16577 L 86.975793,395.249 L 86.979946,395.31852 L 86.973496,395.33651 L 86.964523,395.35166 L 86.938763,395.36751 L 86.918678,395.3699 L 86.900516,395.37207 L 86.893816,395.38416 L 86.890998,395.43154 L 86.892327,395.44967 L 86.892564,395.4529 L 86.893851,395.47046 L 86.895408,395.4917 L 86.896611,395.5081 L 86.904338,395.52134 L 86.942944,395.58749 L 86.969223,395.70188 L 86.9926,395.74124 L 86.995515,395.74615 L 86.996331,395.76558 L 86.996754,395.77564 L 86.989112,395.79047 L 86.985298,395.79787 L 86.981197,395.80583 L 86.979788,395.82952 L 87.007667,395.86379 L 87.015325,395.87899 L 87.02078,395.88982 L 87.026694,395.91616 L 87.023258,395.94879 L 87.013089,395.96621 L 87.009889,395.97169 L 86.977521,395.9905 L 86.937752,396.01361 L 86.87602,396.04948 L 86.860207,396.07377 L 86.852208,396.11251 L 86.842133,396.21801 L 86.861878,396.28637 L 86.853753,396.32215 L 86.826052,396.34989 L 86.788314,396.3591 L 86.750577,396.38552 L 86.739849,396.42418 L 86.704326,396.48787 L 86.704227,396.48791 L 86.647309,396.50894 L 86.645362,396.51045 L 86.637753,396.51635 L 86.632526,396.5204 L 86.630758,396.52351 L 86.577566,396.61696 L 86.546819,396.68918 L 86.545543,396.70012 L 86.544305,396.71072 L 86.525636,396.7518 L 86.524506,396.75429 L 86.520868,396.7623 L 86.497083,396.79477 L 86.489432,396.85473 L 86.49627,396.88081 L 86.480521,396.91232 L 86.430383,396.91791 L 86.38815,396.95159 L 86.354324,396.99946 L 86.306169,397.05258 L 86.234905,397.10067 L 86.201357,397.11116 L 86.149786,397.10633 L 86.106123,397.05639 L 86.04841,397.04303 L 86.001562,397.02689 L 85.932249,397.00301 L 85.882507,396.98586 L 85.831085,396.96814 L 85.829446,396.96757 L 85.829044,396.96768 L 85.799874,396.97575 L 85.771947,396.99211 L 85.758933,396.99331 L 85.738818,396.98849 L 85.717883,396.96874 L 85.679553,396.94981 L 85.628925,396.96638 L 85.600939,396.98382 L 85.578678,396.98617 L 85.50336,396.97066 L 85.48624,396.95239 L 85.483084,396.95296 L 85.443961,396.96013 L 85.387057,397.0033 L 85.380341,397.02766 L 85.282947,397.11559 L 85.27921,397.11775 L 85.276257,397.11946 L 85.263778,397.12669 L 85.256098,397.13114 L 85.256098,397.13114 L 85.255141,397.13074 L 85.255141,397.13074 L 85.256035,397.13136 L 85.256035,397.13136 L 85.237014,397.12849 L 85.216908,397.13864 L 85.21524,397.14705 L 85.164942,397.17759 L 85.136568,397.18652 L 85.079333,397.233 L 85.010455,397.21506 L 84.837507,397.25489 L 84.827828,397.26449 L 84.773558,397.26679 L 84.726904,397.26182 L 84.706501,397.27961 L 84.677475,397.31852 L 84.673339,397.33275 L 84.681058,397.37782 L 84.635871,397.4742 L 84.6206,397.47623 L 84.570536,397.50114 L 84.542519,397.55815 L 84.532575,397.59622 L 84.502528,397.65966 L 84.478269,397.66163 L 84.390556,397.71288 L 84.373802,397.71534 L 84.34046,397.70305 L 84.244089,397.73033 L 84.221161,397.71657 L 84.193566,397.7082 L 84.169817,397.71426 L 84.084628,397.71798 L 84.006271,397.71364 L 83.99436,397.74879 L 83.98244,397.76153 L 83.913446,397.79326 L 83.877865,397.83559 L 83.877149,397.84958 L 83.88738,397.87822 L 83.890873,397.91014 L 83.883938,397.93688 L 83.88265,397.94272 L 83.876186,397.97202 L 83.88615,397.99907 L 83.884075,398.05952 L 83.876066,398.07741 L 83.863123,398.10631 L 83.861446,398.10827 L 83.837728,398.13589 L 83.835909,398.13801 L 83.799132,398.15753 L 83.764837,398.18253 L 83.747471,398.22684 L 83.711176,398.25059 L 83.660278,398.27098 L 83.589334,398.31027 L 83.576382,398.33155 L 83.575133,398.3928 L 83.553762,398.45154 L 83.524007,398.499 L 83.491273,398.51365 L 83.478291,398.51946 L 83.40459,398.54015 L 83.383907,398.53696 L 83.335525,398.49203 L 83.304997,398.45094 L 83.17833,398.42616 L 83.154707,398.45368 L 83.069025,398.48577 L 83.050817,398.48223 L 83.030352,398.49406 L 83.011262,398.52122 L 82.996485,398.55339 L 82.99897,398.5788 L 82.992361,398.60481 L 82.97531,398.63592 L 82.975216,398.63604 L 82.972477,398.63958 L 82.964256,398.65022 L 82.899721,398.73373 L 82.888875,398.73997 L 82.86888,398.74069 L 82.852073,398.72902 L 82.838294,398.7337 L 82.811394,398.76021 L 82.801408,398.78439 L 82.780784,398.78283 L 82.704494,398.79809 L 82.706084,398.81172 L 82.672348,398.89361 L 82.637306,398.92129 L 82.574965,398.93921 L 82.552842,398.95255 L 82.513092,398.9822 L 82.50169,398.99071 L 82.425897,399.03184 L 82.42127,399.0528 L 82.41589,399.05755 L 82.319223,399.0749 L 82.237852,399.05787 L 82.196094,399.05867 L 82.185255,399.09395 L 82.139579,399.15945 L 82.111701,399.2146 L 82.050827,399.2773 L 81.973026,399.30561 L 81.961657,399.31912 L 81.962536,399.34768 L 81.938921,399.36827 L 81.905823,399.38567 L 81.903912,399.39187 L 81.912525,399.43114 L 81.912525,399.43114 L 81.894561,399.46033 L 81.894561,399.46033 L 81.853388,399.55546 L 81.798426,399.57228 L 81.739319,399.61756 L 81.564999,399.62497 L 81.537585,399.5956 L 81.413728,399.61035 L 81.352963,399.601 L 81.250658,399.61965 L 81.186132,399.61691 L 81.123775,399.60579 L 81.066527,399.61307 L 81.031553,399.63094 L 80.980792,399.64754 L 80.94814,399.64581 L 80.933671,399.63436 L 80.926308,399.60189 L 80.865604,399.53789 L 80.794808,399.48128 L 80.76762,399.46986 L 80.730563,399.46991 L 80.674406,399.53212 L 80.545988,399.60471 L 80.521739,399.59216 L 80.490592,399.60349 L 80.478759,399.61582 L 80.449081,399.62817 L 80.403995,399.63249 L 80.333441,399.6073 L 80.289817,399.59876 L 80.263068,399.61082 L 80.244294,399.60111 L 80.214144,399.59935 L 80.152457,399.60605 L 80.123178,399.59243 L 80.05222,399.61083 L 79.928438,399.6205 L 79.902998,399.62948 L 79.889973,399.62977 L 79.873821,399.62096 L 79.8434,399.62134 L 79.722122,399.683 L 79.69844,399.70016 L 79.611941,399.68887 L 79.586411,399.6641 L 79.459017,399.71618 L 79.394439,399.69101 L 79.369839,399.70417 L 79.325477,399.71623 L 79.260618,399.71191 L 79.250016,399.76395 L 79.188777,399.84458 L 79.129418,399.88192 L 78.98968,399.94881 L 78.934595,400.00806 L 78.925511,400.03173 L 78.786025,400.15266 L 78.769058,400.14405 L 78.728497,400.1441 L 78.654276,400.1821 L 78.579809,400.21004 L 78.530221,400.19163 L 78.515244,400.18942 L 78.492099,400.186 L 78.48129,400.1844 L 78.416745,400.19691 L 78.360265,400.19609 L 78.293581,400.22486 L 78.271551,400.24292 L 78.257691,400.29254 L 78.190201,400.40202 L 78.18181,400.41157 L 78.158009,400.4166 L 78.108035,400.4772 L 78.10828,400.49135 L 78.119576,400.50307 L 78.118706,400.51527 L 78.108638,400.53857 L 78.072253,400.56155 L 78.051841,400.61398 L 78.042353,400.66629 L 78.020871,400.7079 L 77.976073,400.73614 L 77.951079,400.73964 L 77.936221,400.73835 L 77.902513,400.73541 L 77.870253,400.74095 L 77.858701,400.74293 L 77.793323,400.76516 L 77.747979,400.81385 L 77.741327,400.83816 L 77.684558,400.88345 L 77.65303,400.8903 L 77.65303,400.8903 L 77.62906,400.85971 L 77.60697,400.85201 L 77.577655,400.85367 L 77.577655,400.85367 L 77.577766,400.85816 L 77.578092,400.86815 L 77.578092,400.86815 L 77.576093,400.90532 L 77.576093,400.90532 L 77.542731,400.95185 L 77.529932,400.95733 L 77.50081,400.95265 L 77.48644,400.9564 L 77.471588,400.98532 L 77.473869,401.02591 L 77.426768,401.03958 L 77.383707,401.10165 L 77.300395,401.15178 L 77.265063,401.20065 L 77.252127,401.23409 L 77.243813,401.28594 L 77.2381,401.29654 L 77.2381,401.29654 L 77.217705,401.32662 L 77.217705,401.32662 L 77.19051,401.34594 L 77.13423,401.40872 L 77.108112,401.44727 L 77.082039,401.45694 L 77.055002,401.47264 L 77.045379,401.49986 L 77.048955,401.53568 L 77.074955,401.58376 L 77.081549,401.59133 L 77.108096,401.5972 L 77.118324,401.60466 L 77.17441,401.68514 L 77.174645,401.69291 L 77.154013,401.73241 L 77.150984,401.74499 L 77.149662,401.75048 L 77.149166,401.75254 L 77.153398,401.75843 L 77.162457,401.77102 L 77.165242,401.77882 L 77.177363,401.81277 L 77.18634,401.8927 L 77.120138,401.97014 L 77.084901,402.03005 L 77.076548,402.05325 L 77.047941,402.0906 L 77.036231,402.09452 L 77.036231,402.09452 L 76.941016,402.13139 L 76.941016,402.13139 L 76.92179,402.14288 L 76.92179,402.14288 L 76.916948,402.15954 L 76.916948,402.15954 L 76.97215,402.2858 L 76.982813,402.29 L 77.001121,402.32544 L 76.992642,402.35583 L 76.976907,402.3774 L 76.975399,402.40025 L 76.975399,402.40025 L 76.975538,402.4137 L 76.975538,402.4137 L 76.950481,402.49813 L 76.950289,402.55255 L 76.956954,402.56235 L 77.014782,402.57838 L 77.035157,402.58999 L 77.084176,402.67625 L 77.066942,402.73895 L 77.027917,402.77344 L 76.955586,402.82114 L 76.898046,402.93724 L 76.810736,403.03313 L 76.783122,403.05394 L 76.71082,403.07274 L 76.648984,403.10677 L 76.611862,403.11453 L 76.554252,403.13884 L 76.539557,403.16441 L 76.539235,403.18441 L 76.464947,403.25775 L 76.45691,403.26568 L 76.446088,403.27259 L 76.414961,403.29248 L 76.409563,403.29593 L 76.408695,403.29579 L 76.365984,403.28906 L 76.357895,403.2819 L 76.309029,403.26613 L 76.265188,403.28238 L 76.255144,403.28157 L 76.249153,403.27414 L 76.249153,403.27414 L 76.246834,403.26674 L 76.246834,403.26674 L 76.193334,403.26601 L 76.193334,403.26601 L 76.15933,403.27603 L 76.15933,403.27603 L 76.153104,403.2812 L 76.143114,403.31369 L 76.139224,403.33675 L 76.125128,403.34532 L 76.109942,403.34926 L 76.084999,403.34648 L 76.056284,403.33509 L 76.025801,403.32042 L 75.995053,403.31367 L 75.99455,403.31356 L 75.931224,403.31791 L 75.883712,403.32118 L 75.851137,403.32877 L 75.841525,403.34545 L 75.83812,403.35135 L 75.830056,403.35602 L 75.762884,403.3324 L 75.746502,403.33288 L 75.687505,403.37232 L 75.674389,403.39157 L 75.584489,403.40189 L 75.548928,403.36848 L 75.485938,403.3636 L 75.476523,403.35276 L 75.46099,403.31878 L 75.447916,403.23041 L 75.447914,403.23039 L 75.44789,403.23037 L 75.424943,403.20321 L 75.422686,403.18773 L 75.367206,403.12285 L 75.363351,403.11835 L 75.321813,403.09842 L 75.25414,403.0881 L 75.217207,403.10246 L 75.181772,403.13787 L 75.108293,403.2465 L 75.083429,403.2694 L 74.995381,403.31294 L 74.951799,403.35078 L 74.929453,403.39914 L 74.794171,403.4817 L 74.731639,403.56002 L 74.725662,403.57461 L 74.682951,403.5992 L 74.667966,403.59729 L 74.66206,403.58751 L 74.648833,403.79765 L 74.629593,404.06724 L 74.608897,404.23405 L 74.560681,404.74347 L 74.536169,405.06086 L 74.536169,405.06086 L 74.535025,405.06547 L 74.535025,405.06547 L 74.525998,405.21978 L 74.479498,405.79747 L 74.475129,405.85169 L 74.473653,405.87 L 74.444907,406.22641 L 74.444907,406.22641 L 74.247912,406.2328 L 74.211875,406.23397 L 73.890694,406.24429 L 73.804535,406.24704 L 73.787057,406.24759 L 73.787057,406.24759 L 73.778231,406.24824 L 73.778231,406.24824 L 72.736094,406.2748 L 72.736094,406.2748 L 72.728487,406.27525 L 72.728487,406.27525 L 72.19526,406.28654 L 71.709595,406.29655 L 71.709595,406.29655 L 71.678192,406.30119 L 71.149252,406.31335 L 70.742441,406.3225 L 70.742441,406.3225 L 70.709669,406.32249 L 70.709669,406.32249 L 70.300263,406.3349 L 70.298478,406.33495 L 70.005908,406.34371 L 70.005908,406.34371 L 69.996264,406.34418 L 69.996264,406.34418 L 69.98203,406.34398 L 69.98203,406.34398 L 69.922321,406.34375 L 69.922321,406.34375 L 69.89308,406.34262 L 69.89308,406.34262 L 69.860887,406.3456 L 69.860887,406.3456 L 69.789711,406.34386 L 69.789711,406.34386 L 69.550298,406.35189 L 69.550298,406.35189 L 69.520327,406.35203 L 69.520327,406.35203 L 69.278892,406.3567 L 68.808338,406.36561 L 68.808338,406.36561 L 68.766424,406.36699 L 68.761666,406.36715 L 68.761666,406.36715 L 68.659407,406.36962 L 68.659407,406.36962 L 68.464548,406.37538 L 68.438201,406.37616 L 68.438201,406.37616 L 67.910435,406.39443 L 67.843271,406.39674 L 67.843271,406.39674 L 67.84207,406.39649 L 67.84207,406.39649 L 67.675535,406.40095 L 67.661357,406.40132 L 67.378508,406.40881 L 67.316047,406.41045 L 67.093354,406.41627 L 66.975425,406.41933 L 66.906834,406.4211 L 66.900134,406.42128 L 66.654969,406.42757 L 66.606531,406.4288 L 66.606531,406.4288 L 66.557693,406.43058 L 66.557693,406.43058 L 66.415073,406.43497 L 66.277984,406.43917 L 66.277984,406.43917 L 66.266117,406.43938 L 66.266117,406.43938 L 66.24149,406.44093 L 66.24149,406.44093 L 66.229643,406.44225 L 66.229643,406.44225 L 66.174873,406.44322 L 66.152053,406.44362 L 66.152053,406.44362 L 66.104576,406.44446 L 66.104576,406.44446 L 66.045259,406.44662 L 65.927546,406.4509 L 65.927546,406.4509 L 65.83537,406.45362 L 65.83537,406.45362 L 65.764189,406.45565 L 65.736795,406.45643 L 65.736795,406.45643 L 65.721277,406.4567 L 65.721277,406.4567 L 65.687516,406.45807 L 65.673559,406.45863 L 65.635931,406.46015 L 65.566669,406.46295 L 65.566669,406.46295 L 65.502914,406.46599 L 65.502914,406.46599 L 65.466684,406.4666 L 65.466684,406.4666 L 65.441144,406.46814 L 65.441144,406.46814 L 65.266042,406.47492 L 65.137283,406.47988 L 65.111779,406.48086 L 65.100774,406.48128 L 64.93323,406.4877 L 64.93323,406.4877 L 64.925542,406.488 L 64.741168,406.49513 L 64.671053,406.49627 L 64.651307,406.4966 L 64.532847,406.49852 L 64.517962,406.49876 L 64.37075,406.50112 L 64.136024,406.50484 L 63.994973,406.50705 L 63.965461,406.50706 L 63.927612,406.50707 L 63.708431,406.50711 L 63.210881,406.50701 L 62.730907,406.50665 L 62.730907,406.50665 L 62.674632,406.50635 L 61.913442,406.502 L 61.862029,406.50169 L 61.846001,406.50159 L 61.662813,406.50043 L 61.621623,406.50017 L 61.569483,406.49983 L 61.230031,406.49756 L 60.979809,406.4958 L 60.879277,406.49508 L 60.873203,406.49503 L 60.729251,406.49397 L 60.729251,406.49397 L 60.689883,406.49418 L 60.689883,406.49418 L 60.368476,406.49552 L 58.514411,406.50102 L 57.735775,406.50221 L 56.285472,406.50265 L 56.285472,406.50265 L 56.217145,406.50257 L 55.501215,406.50149 L 55.501215,406.50149 L 55.216458,406.50858 L 55.166099,406.50982 L 55.166099,406.50982 L 54.857005,406.51588 L 54.857005,406.51588 L 54.349607,406.51859 L 54.303157,406.51883 L 54.303157,406.51883 L 54.059202,406.51676 L 54.053274,406.51671 L 54.053274,406.51671 L 53.913156,406.51688 L 53.913156,406.51688 L 53.751203,406.5155 L 53.751203,406.5155 L 53.650109,406.51543 L 53.650109,406.51543 L 53.274336,406.51131 L 53.274336,406.51131 L 53.106432,406.51133 L 53.106432,406.51133 L 53.003819,406.50936 L 53.003819,406.50936 L 52.971814,406.50946 L 52.971814,406.50946 L 52.950219,406.50876 L 52.950219,406.50876 L 52.942096,406.50879 L 52.942096,406.50879 L 52.538725,406.51067 L 52.474959,406.51095 L 51.974443,406.513 L 51.974443,406.513 L 51.674813,406.51519 L 51.636699,406.51546 L 51.636699,406.51546 L 51.493301,406.5157 L 51.493301,406.5157 L 51.401162,406.51479 L 51.401162,406.51479 L 51.37079,406.51412 L 51.37079,406.51412 L 51.258055,406.51393 L 51.258055,406.51393 L 51.102718,406.50974 L 50.914913,406.50463 L 50.570017,406.49515 L 50.300056,406.48765 L 50.300056,406.48765 L 50.271619,406.48604 L 50.271619,406.48604 L 50.249927,406.48533 L 50.249927,406.48533 L 50.23351,406.48641 L 50.23351,406.48641 L 49.999936,406.4797 L 49.999936,406.4797 L 49.898029,406.47924 L 49.898029,406.47924 L 49.178148,406.46195 L 49.137085,406.46094 L 48.90078,406.45513 L 48.853461,406.45396 L 48.076765,406.43439 L 48.076765,406.43439 L 48.041305,406.43341 L 48.02271,406.4329 L 48.02271,406.4329 L 47.994591,406.43201 L 47.963184,406.43101 L 47.896233,406.42889 L 47.896233,406.42889 L 47.536086,406.41794 L 47.536086,406.41794 L 47.269913,406.41136 L 47.269913,406.41136 L 46.813084,406.40159 L 46.813084,406.40159 L 46.721567,406.39948 L 46.721567,406.39948 L 46.522745,406.39547 L 46.522745,406.39547 L 46.429289,406.39227 L 46.429289,406.39227 L 46.191268,406.38804 L 46.191268,406.38804 L 46.153464,406.38777 L 46.153464,406.38777 L 46.088956,406.38621 L 46.088956,406.38621 L 45.79627,406.38321 L 45.502692,406.3801 L 45.478939,406.37985 L 45.231938,406.37716 L 44.468024,406.36841 L 44.350208,406.36701 L 44.296763,406.36636 L 43.939981,406.36638 L 43.939981,406.36638 L 43.873534,406.36578 L 43.873534,406.36578 L 43.641518,406.3607 L 43.641518,406.3607 L 43.607684,406.35895 L 43.607684,406.35895 L 43.591457,406.35931 L 43.591457,406.35931 L 43.526042,406.35725 L 43.526042,406.35725 L 43.07533,406.34704 L 43.07533,406.34704 L 42.99584,406.34564 L 42.99584,406.34564 L 42.941251,406.34341 L 42.941251,406.34341 L 42.506743,406.33515 L 42.226835,406.32972 L 42.226835,406.32972 L 42.212912,406.33049 L 42.212912,406.33049 L 42.211842,406.33087 L 42.211842,406.33087 L 42.037577,406.32903 L 42.037577,406.32903 L 41.990888,406.32927 L 41.990888,406.32927 L 41.988813,406.32974 L 41.988813,406.32974 L 41.543407,406.32363 L 41.012969,406.31606 L 40.875042,406.31405 L 39.023594,406.27045 L 39.032116,406.29947 L 39.041745,406.38441 L 39.048359,406.40823 L 39.048359,406.40823 L 38.576162,406.4033 L 38.557705,406.4031 L 38.557705,406.4031 L 38.518577,406.40361 L 38.518577,406.40361 L 37.716941,406.39199 L 37.401543,406.38722 L 36.650432,406.37201 L 36.586671,406.37069 L 36.586671,406.37069 L 36.585974,406.37089 L 36.585974,406.37089 L 36.26878,406.36712 L 36.183547,406.36609 L 35.72434,406.36039 L 35.534623,406.35796 L 33.996373,406.33686 L 33.695016,406.33243 L 33.106957,406.32357 L 33.080914,406.3224 L 33.040076,406.32055 L 32.779065,406.30874 L 32.760219,406.309 L 32.715911,406.30961 L 32.429614,406.31346 L 31.803008,406.30031 L 31.670107,406.29746 L 31.53124,406.29447 L 31.505022,406.2939 L 31.468098,406.2934 L 30.795957,406.28403 L 30.478387,406.27944 L 30.478387,406.27944 L 30.477113,406.27966 L 30.477113,406.27966 L 30.315538,406.28042 L 30.29988,406.27982 L 29.937214,406.26597 L 29.762516,406.25939 L 28.684681,406.24069 L 27.892795,406.22614 L 27.776645,406.22395 L 27.721478,406.22232 L 27.601047,406.21874 L 27.535397,406.21679 L 27.323769,406.21045 L 27.323514,406.21044 L 27.302531,406.20981 L 27.240179,406.20397 L 27.240179,406.20397 L 27.08132,406.19561 L 27.08132,406.19561 L 26.590228,406.18072 L 26.312944,406.17219 L 26.108154,406.16583 L 25.866152,406.15827 L 25.297386,406.14373 L 24.976001,406.13535 L 24.811593,406.1342 L 24.488194,406.13183 L 24.488194,406.13183 L 24.165819,406.12348 L 24.001545,406.11918 L 24.001545,406.11918 L 23.883166,406.11552 L 23.728875,406.11071 L 23.683148,406.10929 L 23.683148,406.10929 L 23.591543,406.10558 L 23.591543,406.10558 L 23.197667,406.09254 L 23.021163,406.08664 L 22.805697,406.07939 L 22.711595,406.07621 L 22.59333,406.07219 L 22.543723,406.0705 L 22.543675,406.0705 L 22.542354,406.07046 L 22.522214,406.06977 L 22.390724,406.06528 L 22.330621,406.06322 L 22.225939,406.05963 L 22.105006,406.05546 L 22.065421,406.05409 L 21.737535,406.0427 L 21.461161,406.033 L 21.361486,406.02948 L 20.249646,405.98949 L 20.249646,405.98949 L 20.249646,405.98949 L 20.249646,405.98949 L 20.249646,405.98949 L 19.844352,405.97458 L 19.794744,405.97274 L 19.794744,405.97274 L 19.78877,405.877 L 19.794622,405.8166 L 19.824934,405.72381 L 19.885422,405.60807 L 19.919803,405.50813 L 19.936125,405.48423 L 19.969601,405.46645 L 20.21271,405.49111 L 20.226145,405.49933 L 20.229032,405.52275 L 20.237759,405.53525 L 20.290924,405.55809 L 20.52601,405.60099 L 20.578639,405.61778 L 20.655118,405.66371 L 20.67215,405.66708 L 20.679788,405.66593 L 20.717917,405.66021 L 20.804785,405.59339 L 20.843187,405.54368 L 20.869595,405.49068 L 20.872549,405.39193 L 20.866494,405.33692 L 20.872213,405.27531 L 20.931176,405.12049 L 20.996543,404.9488 L 21.045309,404.72058 L 21.076968,404.65512 L 21.154935,404.57813 L 21.204246,404.5397 L 21.242052,404.51689 L 21.346483,404.47585 L 21.363811,404.47521 L 21.39779,404.48846 L 21.662635,404.66453 L 21.7421,404.69144 L 21.833662,404.67656 L 21.86973,404.66111 L 21.900373,404.64106 L 21.970706,404.57578 L 21.979223,404.56787 L 22.015243,404.53443 L 22.058686,404.48692 L 22.070196,404.46838 L 22.078307,404.43609 L 22.07672,404.42237 L 22.076707,404.42226 L 22.06484,404.31959 L 22.060765,404.31097 L 22.056224,404.30662 L 22.052089,404.30266 L 22.039112,404.29023 L 21.864393,404.25177 L 21.826966,404.23871 L 21.776316,404.20829 L 21.73791,404.17554 L 21.700783,404.13491 L 21.68722,404.10754 L 21.682998,404.04457 L 21.68527,404.00374 L 21.667899,404.00111 L 21.64051,403.96636 L 21.61371,403.89667 L 21.613286,403.86689 L 21.628434,403.77931 L 21.693363,403.77461 L 21.798138,403.82576 L 21.806736,403.82543 L 21.838624,403.73275 L 21.878097,403.647 L 21.884456,403.63318 L 21.900593,403.61817 L 21.923277,403.61364 L 21.944645,403.61692 L 21.959944,403.60824 L 21.974169,403.59952 L 21.980139,403.58009 L 21.98099,403.55264 L 21.971483,403.51311 L 21.960157,403.46305 L 21.942681,403.419 L 21.913227,403.37482 L 21.873862,403.30174 L 21.812343,403.21326 L 21.798788,403.19717 L 21.748797,403.16346 L 21.703579,403.14907 L 21.645565,403.14356 L 21.580667,403.15039 L 21.502463,403.16802 L 21.426807,403.17552 L 21.321622,403.13109 L 21.262326,403.05603 L 21.196245,402.92051 L 21.177823,402.86994 L 21.178155,402.83764 L 21.215577,402.71454 L 21.229186,402.68246 L 21.253724,402.65174 L 21.275351,402.63371 L 21.326243,402.61366 L 21.359236,402.60693 L 21.451265,402.65939 L 21.516532,402.64302 L 21.596956,402.60067 L 21.613721,402.60114 L 21.655569,402.61524 L 21.73004,402.59978 L 21.757512,402.38261 L 21.787156,402.29705 L 21.783185,402.28858 L 21.732302,402.18003 L 21.745652,402.18266 L 21.759528,402.17692 L 21.826278,402.08488 L 21.859757,402.02376 L 21.891188,401.98843 L 21.918595,401.98484 L 21.942953,401.95912 L 21.98194,401.89894 L 22.067507,401.73108 L 22.040558,401.72637 L 22.023024,401.71726 L 21.95396,401.65328 L 21.90171,401.62394 L 21.874568,401.60172 L 21.802312,401.53026 L 21.785397,401.50916 L 21.753002,401.44976 L 21.735733,401.43191 L 21.696321,401.41358 L 21.57375,401.3869 L 21.531242,401.39408 L 21.50569,401.40956 L 21.470323,401.44117 L 21.453412,401.46165 L 21.437512,401.49351 L 21.425949,401.54078 L 21.427315,401.58957 L 21.446436,401.67323 L 21.514961,401.79685 L 21.428692,401.81671 L 21.234958,401.80928 L 21.180185,401.77492 L 21.12766,401.72423 L 21.12037,401.68954 L 21.207054,401.41608 L 21.210923,401.32415 L 21.226676,401.28577 L 21.592991,401.07445 L 21.656545,400.8774 L 21.681516,400.81279 L 21.70282,400.77959 L 21.740217,400.73994 L 21.802493,400.69228 L 21.856608,400.69449 L 21.884795,400.67643 L 22.009311,400.67767 L 22.052921,400.70115 L 22.102236,400.75017 L 22.123189,400.771 L 22.161166,400.82247 L 22.166677,400.83809 L 22.164723,400.88108 L 22.123645,400.99774 L 22.095098,401.11599 L 22.092981,401.17843 L 22.121375,401.29806 L 22.196065,401.39047 L 22.192735,401.43479 L 22.207987,401.46993 L 22.229077,401.48319 L 22.253038,401.48708 L 22.279053,401.47716 L 22.288721,401.47348 L 22.312761,401.44691 L 22.335369,401.41936 L 22.347949,401.39233 L 22.359148,401.35052 L 22.374148,401.3287 L 22.393525,401.31055 L 22.476751,401.2605 L 22.499984,401.177 L 22.5185,401.14819 L 22.52639,401.12385 L 22.525152,401.07088 L 22.528823,401.03858 L 22.552424,400.96742 L 22.573301,400.93347 L 22.605077,400.8518 L 22.604675,400.81862 L 22.59291,400.791 L 22.464046,400.67101 L 22.390501,400.53999 L 22.371191,400.49236 L 22.349249,400.40478 L 22.337048,400.28315 L 22.350214,400.20601 L 22.378701,400.12543 L 22.392824,400.10293 L 22.420084,400.03923 L 22.443821,399.92254 L 22.463911,399.89775 L 22.507384,399.86454 L 22.547155,399.84567 L 22.590295,399.83492 L 22.649941,399.84053 L 22.705852,399.80771 L 22.733097,399.79788 L 22.817759,399.78831 L 22.872218,399.79425 L 22.90472,399.80336 L 23.020996,399.87541 L 23.178444,400.0153 L 23.193918,400.04169 L 23.201961,400.0958 L 23.200266,400.11023 L 23.181469,400.14397 L 23.18071,400.17652 L 23.192586,400.19463 L 23.229181,400.22938 L 23.237597,400.23738 L 23.266378,400.25796 L 23.293213,400.26656 L 23.393162,400.27868 L 23.394312,400.27882 L 23.396451,400.27908 L 23.402543,400.28223 L 23.489919,400.3275 L 23.524479,400.33472 L 23.56055,400.32192 L 23.59277,400.29743 L 23.620186,400.26339 L 23.633325,400.23717 L 23.634839,400.23224 L 23.635476,400.23016 L 23.671267,400.11357 L 23.66714,400.0965 L 23.656699,400.08428 L 23.627694,400.06946 L 23.623933,400.06771 L 23.610131,400.06132 L 23.610013,400.03517 L 23.616511,400.01331 L 23.619712,400.00253 L 23.613,399.96371 L 23.583,399.93841 L 23.553753,399.93094 L 23.492894,399.92633 L 23.44828,399.91407 L 23.338485,399.85516 L 23.309257,399.81261 L 23.290787,399.77572 L 23.228894,399.63538 L 23.20808,399.57505 L 23.198253,399.52952 L 23.199095,399.50998 L 23.210575,399.47423 L 23.235425,399.4333 L 23.26367,399.39831 L 23.317074,399.35416 L 23.436085,399.28826 L 23.55424,399.24324 L 23.623298,399.19177 L 23.63691,399.18683 L 23.678654,399.20351 L 23.734834,399.21721 L 23.741153,399.21789 L 23.760053,399.21994 L 23.784303,399.2134 L 23.789159,399.20991 L 23.874343,399.14862 L 23.942646,399.09947 L 23.949164,399.09478 L 24.065302,399.05225 L 24.132208,399.0136 L 24.158157,398.97197 L 24.177566,398.90986 L 24.178159,398.90796 L 24.178793,398.90593 L 24.18942,398.84021 L 24.188984,398.77133 L 24.188912,398.75998 L 24.187199,398.75441 L 24.175296,398.71576 L 24.169584,398.69721 L 24.164743,398.6902 L 24.124915,398.63255 L 24.122409,398.62892 L 24.116369,398.62552 L 24.109352,398.62156 L 24.10153,398.61716 L 24.0699,398.61267 L 24.028316,398.6246 L 24.003228,398.6318 L 23.97304,398.64777 L 23.960276,398.65453 L 23.956469,398.65654 L 23.943582,398.67078 L 23.901717,398.75125 L 23.89104,398.76546 L 23.886933,398.77093 L 23.882486,398.77685 L 23.86347,398.79261 L 23.842125,398.80098 L 23.831092,398.80531 L 23.754476,398.81975 L 23.689071,398.81514 L 23.618907,398.79779 L 23.60557,398.79449 L 23.540092,398.76466 L 23.466621,398.7097 L 23.46039,398.70247 L 23.411029,398.64511 L 23.366016,398.53926 L 23.300907,398.4561 L 23.273794,398.41103 L 23.253021,398.36373 L 23.247081,398.30952 L 23.249383,398.12977 L 23.235816,397.99435 L 23.238877,397.95144 L 23.26279,397.88908 L 23.284263,397.85892 L 23.31856,397.83405 L 23.638673,397.66123 L 23.660795,397.6354 L 23.689847,397.61301 L 23.730055,397.6179 L 23.884251,397.72225 L 23.924448,397.77999 L 23.980066,397.82177 L 24.019944,397.82372 L 24.103134,397.75627 L 24.159718,397.73033 L 24.264325,397.67058 L 24.385684,397.68328 L 24.458042,397.67637 L 24.491888,397.66623 L 24.554053,397.63221 L 24.568592,397.61916 L 24.602274,397.58431 L 24.696491,397.46419 L 24.71622,397.41281 L 24.718631,397.38477 L 24.699894,397.31922 L 24.728442,397.27225 L 24.863669,397.13977 L 25.012707,397.09482 L 25.013376,397.07595 L 25.081522,397.08674 L 25.214291,397.14153 L 25.295573,397.13984 L 25.392529,397.10692 L 25.424931,397.08367 L 25.551975,397.01277 L 25.572565,396.9909 L 25.59298,396.94753 L 25.600573,396.90344 L 25.598147,396.87275 L 25.585782,396.83724 L 25.573002,396.81942 L 25.529621,396.78285 L 25.349324,396.681 L 25.171159,396.6169 L 25.03808,396.55365 L 24.993307,396.51635 L 24.966838,396.47629 L 24.960102,396.45025 L 24.959009,396.40279 L 24.966844,396.35252 L 24.978134,396.3142 L 25.007253,396.23798 L 25.036284,396.18732 L 25.125163,396.12856 L 25.330068,396.0468 L 25.49913,396.03433 L 25.738138,396.14421 L 25.793082,396.22296 L 25.835192,396.27153 L 25.901798,396.30043 L 25.936846,396.30117 L 26.008925,396.27594 L 26.030213,396.26362 L 26.074492,396.22076 L 26.106494,396.17677 L 26.131283,396.07273 L 26.115476,396.0317 L 26.085669,395.92222 L 26.069274,395.88106 L 26.03568,395.83187 L 25.90362,395.7174 L 25.8554,395.6634 L 25.764634,395.58122 L 25.649778,395.50757 L 25.558133,395.44104 L 25.519993,395.40435 L 25.483453,395.34505 L 25.476311,395.31536 L 25.474826,395.27444 L 25.488587,395.1594 L 25.485575,395.14865 L 25.404305,395.06207 L 25.380305,395.02464 L 25.364542,394.98279 L 25.364542,394.98279 L 25.600539,394.98523 L 25.603345,394.9753 L 25.613098,394.94076 L 25.633015,394.90775 L 25.737213,394.77221 L 25.77468,394.6763 L 25.788077,394.62326 L 25.818855,394.42789 L 25.847625,394.19976 L 25.867999,394.08753 L 25.879533,394.06406 L 25.938991,393.98574 L 25.993015,393.9432 L 26.074068,393.90849 L 26.20769,393.86226 L 26.341152,393.82998 L 26.37059,393.81659 L 26.461871,393.75593 L 26.481912,393.74602 L 26.582314,393.69638 L 26.609916,393.6715 L 26.656042,393.61264 L 26.665156,393.58502 L 26.675628,393.51937 L 26.676421,393.50872 L 26.682606,393.42564 L 26.678983,393.35866 L 26.66267,393.30491 L 26.66085,393.29891 L 26.648512,393.27614 L 26.611859,393.20848 L 26.605304,393.19638 L 26.599958,393.18885 L 26.552101,393.12143 L 26.45376,393.02122 L 26.404552,392.98478 L 26.354428,392.9584 L 26.288576,392.91698 L 26.219108,392.8579 L 26.130657,392.773 L 26.048834,392.71534 L 25.913199,392.60733 L 25.798367,392.50367 L 25.736826,392.43687 L 25.695278,392.38411 L 25.688509,392.3717 L 25.686343,392.35423 L 25.68884,392.33474 L 25.70626,392.2962 L 25.741,392.24196 L 25.741,392.24196 L 25.752908,392.21779 L 25.783534,392.19449 L 25.818614,392.20309 L 25.818614,392.20309 L 25.863467,392.2329 L 25.936634,392.2485 L 26.166796,392.2281 L 26.238949,392.24052 L 26.259321,392.24402 L 26.307355,392.26095 L 26.417128,392.31694 L 26.535199,392.36493 L 26.547376,392.36834 L 26.558445,392.37144 L 26.576579,392.37651 L 26.613688,392.37998 L 26.737098,392.36936 L 26.749354,392.36831 L 26.838097,392.33983 L 26.849341,392.33414 L 26.871063,392.32315 L 26.953161,392.25623 L 26.978491,392.24755 L 27.016408,392.24713 L 27.055998,392.2559 L 27.089908,392.27655 L 27.096811,392.28075 L 27.111002,392.28412 L 27.13062,392.28878 L 27.13443,392.28969 L 27.162606,392.28591 L 27.184374,392.27615 L 27.186178,392.27439 L 27.213463,392.24762 L 27.225762,392.23555 L 27.225836,392.23399 L 27.230581,392.13324 L 27.223938,392.03604 L 27.209517,391.99328 L 27.208383,391.98992 L 27.206035,391.98296 L 27.190364,391.95936 L 27.146428,391.926 L 27.143562,391.92382 L 27.127566,391.92361 L 27.103338,391.94173 L 27.057499,391.95161 L 26.843189,391.82861 L 26.792174,391.77147 L 26.743958,391.73161 L 26.550048,391.59011 L 26.486886,391.45918 L 26.478476,391.43364 L 26.484529,391.36118 L 26.522036,391.28959 L 26.569593,391.2425 L 26.615201,391.22383 L 26.66142,391.21674 L 26.830958,391.22826 L 27.019875,391.28448 L 27.156362,391.29836 L 27.15814,391.29854 L 27.220524,391.29255 L 27.277201,391.27461 L 27.320932,391.24874 L 27.360736,391.21525 L 27.395005,391.17383 L 27.42088,391.11605 L 27.450522,391.04985 L 27.469641,390.96702 L 27.469734,390.96662 L 27.485495,390.89833 L 27.486958,390.88597 L 27.487382,390.8824 L 27.480956,390.84569 L 27.45076,390.77235 L 27.353568,390.5971 L 27.206439,390.37499 L 27.190592,390.33481 L 27.182315,390.29689 L 27.181152,390.25666 L 27.186349,390.20999 L 27.202316,390.16761 L 27.225885,390.13727 L 27.350659,390.02967 L 27.37005,390.00302 L 27.386603,389.9748 L 27.409724,389.91587 L 27.422855,389.85994 L 27.427261,389.7666 L 27.41798,389.73029 L 27.400538,389.70055 L 27.297317,389.5854 L 27.258301,389.50921 L 27.258301,389.50921 L 27.626073,389.52232 L 27.626073,389.52232 L 27.675303,389.52484 L 27.675303,389.52484 L 27.741848,389.52748 L 27.741848,389.52748 L 27.726694,389.55749 L 27.66124,389.73626 L 27.653709,389.76636 L 27.654479,389.79688 L 27.661438,389.83149 L 27.682774,389.88307 L 27.721581,389.92746 L 27.807288,389.97157 L 27.850195,389.98205 L 27.918053,389.9817 L 27.951637,389.972 L 28.018447,389.93879 L 28.060675,389.90506 L 28.168385,389.79663 L 28.237244,389.71573 L 28.296406,389.63389 L 28.326083,389.58451 L 28.349705,389.52807 L 28.349705,389.52807 L 28.469592,389.52987 L 28.469592,389.52987 L 28.584855,389.53343 L 28.668003,389.52458 L 28.668003,389.52458 L 28.683392,389.52103 L 28.683392,389.52103 L 28.89431,389.50647 L 28.89431,389.50647 L 28.988996,389.49751 L 29.400008,389.46373 L 29.561009,389.47161 L 29.561009,389.47161 L 29.589663,389.4753 L 29.589663,389.4753 L 29.984149,389.49091 L 30.155764,389.49765 L 30.163825,389.49797 L 30.195652,389.49921 L 30.195652,389.49921 L 30.625125,389.52123 L 30.625125,389.52123 L 30.62696,389.52131 L 30.62696,389.52131 L 30.653518,389.52257 L 31.015643,389.53967 L 31.015643,389.53967 L 31.035947,389.54061 L 31.035947,389.54061 L 31.281234,389.54831 L 31.281234,389.54831 L 31.442675,389.55338 L 31.442675,389.55338 L 31.561305,389.55695 L 31.561305,389.55695 L 31.778212,389.5637 L 31.778212,389.5637 L 31.994998,389.57108 L 31.994998,389.57108 L 32.027362,389.57204 L 32.027362,389.57204 L 32.087916,389.57387 L 32.087916,389.57387 L 32.406607,389.58534 L 32.406607,389.58534 L 32.802842,389.59312 L 32.821693,389.59349 L 32.988454,389.59671 L 33.122272,389.60505 L 33.197986,389.59946 L 33.210495,389.59853 L 33.210495,389.59853 L 33.236998,389.59866 L 33.248929,389.59872 L 33.385495,389.59939 L 33.569746,389.60026 L 33.569746,389.60026 L 33.637928,389.60227 L 33.637928,389.60227 L 33.883478,389.60792 L 33.883478,389.60792 L 34.349866,389.61566 L 34.349866,389.61566 L 34.638838,389.62276 L 34.638838,389.62276 L 35.123494,389.63591 L 35.123494,389.63591 L 35.460332,389.64316 L 35.874426,389.6519 L 35.874426,389.6519 L 36.16182,389.65796 L 36.16182,389.65796 L 36.41938,389.66631 L 36.456624,389.66605 L 36.456624,389.66605 L 36.459751,389.66665 L 36.459751,389.66665 L 36.663081,389.67413 L 36.663081,389.67413 L 36.81216,389.67687 L 36.81216,389.67687 L 36.991447,389.68132 L 36.991447,389.68132 L 37.01282,389.6791 L 37.01282,389.6791 L 37.315493,389.68744 L 37.315493,389.68744 L 38.08176,389.70086 L 38.08176,389.70086 L 38.125673,389.702 L 38.125673,389.702 L 38.171351,389.70319 L 38.171351,389.70319 L 38.721318,389.71723 L 39.464458,389.73563 L 39.808807,389.74394 L 39.817241,389.74414 L 39.903355,389.7462 L 40.56749,389.76937 L 40.592375,389.7372 L 40.63909,389.69302 L 40.691996,389.6234 L 40.707263,389.58538 L 40.712154,389.54128 L 40.708049,389.5059 L 40.713393,389.47525 L 40.726325,389.45177 L 40.742363,389.39416 L 40.758208,389.28847 L 40.747774,389.16553 L 40.732653,389.05439 L 40.698183,388.93146 L 40.685488,388.80552 L 40.652591,388.59641 L 40.561042,388.28991 L 40.562879,388.23185 L 40.550613,388.17813 L 40.537203,388.14719 L 40.486094,388.06298 L 40.453163,387.96395 L 40.434666,387.75993 L 40.664826,387.76396 L 40.959404,387.77775 L 41.849086,387.88113 L 42.20675,387.92242 L 42.407646,387.93962 L 42.37214,388.27716 L 42.874417,388.26479 L 43.341852,388.25301 L 43.761543,388.24669 L 44.268338,388.23879 L 44.949814,388.23112 L 44.949814,388.23112 L 44.966584,388.23122 L 44.966584,388.23122 L 45.745756,388.22295 L 46.097908,388.21898 L 46.097908,388.21898 L 46.188896,388.21645 L 46.200725,388.21612 L 46.200725,388.21612 L 46.296376,388.21653 L 46.296376,388.21653 L 46.809749,388.21483 L 46.890973,388.21453 L 46.890973,388.21453 L 46.923738,388.21388 L 46.923738,388.21388 L 46.966231,388.21382 L 47.214145,388.21342 L 47.214145,388.21342 L 47.447081,388.21299 L 47.483566,388.21292 L 47.483566,388.21292 L 47.511348,388.21347 L 47.511348,388.21347 L 47.786169,388.21286 L 47.786169,388.21286 L 47.934722,388.21271 L 47.934722,388.21271 L 47.939254,388.21264 L 47.939254,388.21264 L 48.180167,388.21185 L 48.972218,388.20875 L 49.629085,388.19719 L 49.897006,388.19233 L 49.997401,388.1896 L 50.112641,388.18645 L 50.715786,388.16971 L 50.835022,388.16635 L 50.835022,388.16635 L 50.840028,388.16582 L 50.840028,388.16582 L 51.302638,388.15879 L 51.302638,388.15879 L 51.397956,388.15681 L 51.491352,388.15486 L 51.491352,388.15486 L 51.623187,388.14987 L 51.623187,388.14987 L 51.64302,388.14891 L 51.64302,388.14891 L 51.671169,388.14969 L 51.671169,388.14969 L 51.899124,388.14204 L 52.154856,388.1334 L 52.154856,388.1334 L 52.558269,388.12871 L 52.689184,388.12412 L 52.869056,388.11779 L 53.51805,388.09463 L 53.51805,388.09463 L 53.530133,388.09438 z " style="fill:#f6f6f6;stroke:#000;stroke-width:0.1;stroke-linecap:round"/> -->
 <path style="fill:#cde0ff;stroke:#000;stroke-width:0.1" d="M 24.031098 405.10464 A 1.0877744 1.0877744 0 1 1  21.855549,405.10464 A 1.0877744 1.0877744 0 1 1  24.031098 405.10464 z" transform="matrix(0.7744,0,0,0.7744,48.03433,91.9355)"/>
 <path transform="matrix(0.32,0,0,0.32,58.45978,276.0151)" style="fill:#000;stroke:#000;stroke-width:0.1" d="M 23.813543 405.10464 A 0.87021953 0.87021953 0 1 1  22.073104,405.10464 A 0.87021953 0.87021953 0 1 1  23.813543 405.10464 z"/>
 <path style="fill:#ffe9b8;stroke:#000;stroke-width:0.1" d="M 24.031098 405.10464 A 1.0877744 1.0877744 0 1 1  21.855549,405.10464 A 1.0877744 1.0877744 0 1 1  24.031098 405.10464 z" transform="matrix(0.824,0,0,0.824,58.53552,61.67163)"/>
 <path transform="matrix(0.32,0,0,0.32,70.09896,265.8444)" style="fill:#000;stroke:#000;stroke-width:0.1" d="M 23.813543 405.10464 A 0.87021953 0.87021953 0 1 1  22.073104,405.10464 A 0.87021953 0.87021953 0 1 1  23.813543 405.10464 z"/>
 <path style="fill:#ffcdcd;stroke:#000;stroke-width:0.1" d="M 24.031098 405.10464 A 1.0877744 1.0877744 0 1 1  21.855549,405.10464 A 1.0877744 1.0877744 0 1 1  24.031098 405.10464 z" transform="matrix(1.296,0,0,1.296,-6.791223,-119.911)"/>
 <g transform="translate(29.36991,-11.53041)">
  <path style="fill:#000;stroke:#000;stroke-width:0.1" d="M 23.813543 405.10464 A 0.87021953 0.87021953 0 1 1  22.073104,405.10464 A 0.87021953 0.87021953 0 1 1  23.813543 405.10464 z" transform="matrix(0.4,0,0,0.4,13.76599,243.0628)"/>
  <path style="fill:none;stroke:#000;stroke-width:0.1" d="M 24.031098 405.10464 A 1.0877744 1.0877744 0 1 1  21.855549,405.10464 A 1.0877744 1.0877744 0 1 1  24.031098 405.10464 z" transform="matrix(0.8,0,0,0.8,4.588665,81.02093)"/>
 </g>
 <path style="fill:#cfffcd;stroke:#000;stroke-width:0.1" d="M 24.031098 405.10464 A 1.0877744 1.0877744 0 1 1  21.855549,405.10464 A 1.0877744 1.0877744 0 1 1  24.031098 405.10464 z" transform="matrix(1.016,0,0,1.016,29.00282,-18.01208)"/>
 <path style="fill:#000;stroke:#000;stroke-width:0.1" d="M 23.813543 405.10464 A 0.87021953 0.87021953 0 1 1  22.073104,405.10464 A 0.87021953 0.87021953 0 1 1  23.813543 405.10464 z" transform="matrix(0.32,0,0,0.32,44.97137,263.9408)"/>
 <path style="fill:#000;stroke:#000;stroke-width:0.1" d="M 23.813543 405.10464 A 0.87021953 0.87021953 0 1 1  22.073104,405.10464 A 0.87021953 0.87021953 0 1 1  23.813543 405.10464 z" transform="matrix(0.32,0,0,0.32,15.60146,275.4712)"/>
 <g style="fill:#000;font-family:Liberation Sans">
  <switch>
   <text systemLanguage="uk">
    <tspan x="24.827991" y="403.43658" style="font-size:2px;font-weight:bold">Мемфіс</tspan>
    <tspan x="24.827991" y="405.27913" style="font-size:1.7px">42% виборців</tspan>
   </text>
   <text>
    <tspan x="24.827991" y="403.43658" style="font-size:2px;font-weight:bold">Memphis</tspan>
    <tspan x="24.827991" y="405.27913" style="font-size:1.7px">42% of voters</tspan>
   </text>
  </switch>
  <switch>
   <text systemLanguage="uk">
    <tspan x="41.882084" y="394.41922" style="font-size:2px;font-weight:bold">Нашвілл</tspan>
    <tspan x="41.882084" y="396.26177" style="font-size:1.7px">26% виборців</tspan>
   </text>
   <text>
    <tspan x="41.882084" y="394.41922" style="font-size:2px;font-weight:bold">Nashville</tspan>
    <tspan x="41.882084" y="396.26177" style="font-size:1.7px">26% of voters</tspan>
   </text>
  </switch>
  <switch>
   <text systemLanguage="uk">
    <tspan x="53.435127" y="403.69711" style="font-size:2px;font-weight:bold">Чаттануґа</tspan>
    <tspan x="53.435127" y="405.53966" style="font-size:1.7px">15% виборців</tspan>
   </text>
   <text>
    <tspan x="53.435127" y="403.69711" style="font-size:2px;font-weight:bold">Chattanooga</tspan>
    <tspan x="53.435127" y="405.53966" style="font-size:1.7px">15% of voters</tspan>
   </text>
  </switch>
  <switch>
   <text systemLanguage="uk">
    <tspan x="66.909538" y="396.23483" style="font-size:2px;font-weight:bold">Ноксвілл</tspan>
   </text>
   <text>
    <tspan x="66.909538" y="396.23483" style="font-size:2px;font-weight:bold">Knoxville</tspan>
   </text>
  </switch>
  <switch>
   <text systemLanguage="uk" style="font-size:1.7px;fill:#000" x="66.855621" y="398.17987">
    <tspan x="66.855621" y="398.17987">17% виборців</tspan>
   </text>
   <text style="font-size:1.7px;fill:#000" x="66.855621" y="398.17987">
    <tspan x="66.855621" y="398.17987">17% of voters</tspan>
   </text>
  </switch>
 </g>
</svg>