<?xml version="1.0" encoding="UTF-8" standalone="no"?>
<!-- Created with Inkscape (http://www.inkscape.org/) -->

<svg
   xmlns:dc="http://purl.org/dc/elements/1.1/"
   xmlns:cc="http://creativecommons.org/ns#"
   xmlns:rdf="http://www.w3.org/1999/02/22-rdf-syntax-ns#"
   xmlns:svg="http://www.w3.org/2000/svg"
   xmlns="http://www.w3.org/2000/svg"
   xmlns:sodipodi="http://sodipodi.sourceforge.net/DTD/sodipodi-0.dtd"
   xmlns:inkscape="http://www.inkscape.org/namespaces/inkscape"
   width="462.73376"
   height="266.92944"
   id="svg5598"
   sodipodi:version="0.32"
   inkscape:version="0.48.2 r9819"
   version="1.0"
   sodipodi:docname="Alaska Republican Presidential Caucuses Election Results by County, 2012.svg"
   inkscape:output_extension="org.inkscape.output.svg.inkscape">
  <defs
     id="defs5600">
    <inkscape:perspective
       sodipodi:type="inkscape:persp3d"
       inkscape:vp_x="0 : 526.18109 : 1"
       inkscape:vp_y="0 : 1000 : 0"
       inkscape:vp_z="744.09448 : 526.18109 : 1"
       inkscape:persp3d-origin="372.04724 : 350.78739 : 1"
       id="perspective5606" />
  </defs>
  <sodipodi:namedview
     id="base"
     pagecolor="#ffffff"
     bordercolor="#666666"
     borderopacity="1.0"
     gridtolerance="10000"
     guidetolerance="10"
     objecttolerance="10"
     inkscape:pageopacity="0.0"
     inkscape:pageshadow="2"
     inkscape:zoom="1.8212801"
     inkscape:cx="230.98107"
     inkscape:cy="135.68843"
     inkscape:document-units="px"
     inkscape:current-layer="layer1"
     showgrid="false"
     inkscape:window-width="1024"
     inkscape:window-height="721"
     inkscape:window-x="-4"
     inkscape:window-y="-4"
     inkscape:window-maximized="0" />
  <metadata
     id="metadata5603">
    <rdf:RDF>
      <cc:Work
         rdf:about="">
        <dc:format>image/svg+xml</dc:format>
        <dc:type
           rdf:resource="http://purl.org/dc/dcmitype/StillImage" />
      </cc:Work>
    </rdf:RDF>
  </metadata>
  <g
     inkscape:label="Layer 1"
     inkscape:groupmode="layer"
     id="layer1"
     transform="translate(-127.87483,-385.4239)">
    <path
       style="font-size:12px;fill:#cccccc;fill-opacity:1;fill-rule:nonzero;stroke:#ffffff;stroke-width:0.97313905000000001"
       d="M 365.11911,397.46497 L 368.25586,395.30515 L 370.48197,394.34771 L 370.89692,395.79073 L 369.45636,396.20922 L 370.77539,396.45173 L 377.76216,395.6862 L 385.05992,389.49546 L 389.86682,393.11889 L 389.62265,394.44693 L 387.27257,396.06182 L 386.90631,398.0539 L 389.01444,397.75502 L 390.9477,394.69054 L 392.51391,393.60557 L 394.13534,395.95377 L 394.30859,398.72837 L 396.17254,399.75754 L 397.07418,398.55349 L 400.5049,398.49467 L 405.80203,399.46858 L 406.33741,400.25658 L 404.65078,401.99657 L 404.52926,402.65757 L 408.38227,404.05245 L 407.35067,405.91286 L 410.00074,406.40009 L 413.67341,405.02524 L 421.07567,405.69973 L 425.46518,407.8766 L 427.46025,408.2434 L 429.31576,409.26791 L 429.86426,410.05212 L 432.51131,410.53879 L 435.94095,410.48599 L 439.91603,411.21683 L 444.30499,413.3967 L 445.74966,412.97274 L 448.76434,411.47691 L 449.54443,410.93389 L 451.11196,409.85847 L 455.62711,411.36886 L 465.60718,416.62367 L 466.96744,427.82614 L 467.73652,434.81047 L 439.38185,436.44022 L 439.36893,443.96101 L 433.83117,444.31268 L 419.44049,444.41273 L 418.77044,444.28955 L 387.06199,441.87658 L 379.77881,440.53752 L 380.02243,439.21247 L 374.7313,438.23967 L 374.97491,436.91463 L 369.67778,435.94072 L 364.26211,435.62838 L 360.287,434.89753 L 360.52895,433.5815 L 358.54591,433.2169 L 358.42548,433.87191 L 352.47033,432.77703 L 351.26572,431.87841 L 350.6017,431.75632 L 350.48127,432.41132 L 347.83722,431.9252 L 347.41326,430.48054 L 344.10516,429.87232 L 343.8621,431.19436 L 342.53406,430.95018 L 333.38525,428.59098 L 332.90023,431.22903 L 328.26709,430.37721 L 324.66261,427.66441 L 323.16378,424.6492 L 325.215,420.92617 L 326.73195,416.40912 L 331.24243,417.92798 L 337.32623,418.35695 L 339.42724,418.06299 L 344.25174,414.15715 L 347.33868,408.56824 L 352.40267,403.34284 L 355.54053,401.177 L 357.40038,402.2116 L 360.29464,401.37081 L 365.11911,397.46497"
       id="AK_North_Slope"
       inkscape:label="North Slope, AK" />
    <path
       style="font-size:12px;fill:#cccccc;fill-opacity:1;fill-rule:nonzero;stroke:#ffffff;stroke-width:0.97313905000000001"
       d="M 389.4793,462.16329 L 388.16028,461.92078 L 385.27014,462.75614 L 385.69056,464.20326 L 381.72145,463.4735 L 380.9917,467.44261 L 378.21955,467.6194 L 378.46262,466.29736 L 377.3831,464.73527 L 374.73602,464.2486 L 374.25046,466.88966 L 371.60039,466.40242 L 372.08597,463.76136 L 366.79484,462.78856 L 365.69994,468.74372 L 359.08077,467.52674 L 358.59464,470.17081 L 354.62553,469.44106 L 353.40857,476.06023 L 352.08354,475.81662 L 351.83936,477.14465 L 350.51432,476.90105 L 327.46781,471.97734 L 327.95505,469.32726 L 327.28801,469.20462 L 326.75154,468.42263 L 327.11613,466.43959 L 325.91319,465.53194 L 326.88654,460.23782 L 327.43704,453.493 L 330.0871,453.98023 L 331.29062,454.88488 L 329.11374,459.27437 L 329.29299,462.05009 L 340.96434,465.55644 L 344.88308,462.86013 L 346.87214,463.22583 L 346.44872,461.77814 L 344.70874,460.09152 L 342.96821,458.40789 L 340.919,454.60192 L 339.72395,453.70195 L 339.42807,451.59436 L 340.21118,451.05186 L 341.52721,451.29383 L 342.66745,456.29319 L 344.83084,459.4275 L 346.2763,459.0161 L 345.07335,458.10848 L 343.57808,455.09081 L 345.62985,451.36476 L 346.16934,452.14731 L 346.29087,451.48631 L 344.55089,449.79968 L 341.11882,449.84893 L 338.46574,449.36114 L 334.1942,446.52571 L 333.55267,438.88148 L 328.26709,430.37721 L 332.90023,431.22903 L 333.38525,428.59098 L 342.53406,430.95018 L 343.8621,431.19436 L 344.10516,429.87232 L 347.41326,430.48054 L 347.83722,431.9252 L 350.48127,432.41132 L 350.6017,431.75632 L 351.26572,431.87841 L 352.47033,432.77703 L 358.42548,433.87191 L 358.54591,433.2169 L 360.52895,433.5815 L 360.287,434.89753 L 364.26211,435.62838 L 369.67778,435.94072 L 374.97491,436.91463 L 374.7313,438.23967 L 380.02243,439.21247 L 379.77881,440.53752 L 385.07594,441.51143 L 384.46774,444.8195 L 385.78977,445.06258 L 385.54616,446.3876 L 387.70299,449.52381 L 386.97381,453.4899 L 389.62086,453.97658 L 390.69627,455.54413 L 390.633,459.63886 L 389.4793,462.16329"
       id="AK_Northwest_Arctic"
       inkscape:label="Northwest Arctic, AK" />
    <path
       style="font-size:12px;fill:#cccccc;fill-opacity:1;fill-rule:nonzero;stroke:#ffffff;stroke-width:0.97313905000000001"
       d="M 567.07097,616.62038 L 570.32269,613.80142 L 574.77162,619.40601 L 575.36386,623.61816 L 574.33415,625.48515 L 571.56554,625.65948 L 567.17604,623.48261 L 567.41966,622.15758 L 568.32673,620.95762 L 567.07097,616.62038 M 567.84006,623.60469 L 569.57949,625.29433 L 569.75628,628.06648 L 568.13292,625.71173 L 567.84006,623.60469"
       id="AK_Ketchikan_Gateway"
       inkscape:label="Ketchikan Gateway, AK" />
    <path
       style="font-size:12px;fill:#cccccc;fill-opacity:1;fill-rule:nonzero;stroke:#ffffff;stroke-width:0.97313905000000001"
       d="M 563.02961,619.98371 L 564.89358,621.0129 L 565.38081,618.36281 L 564.84133,617.58026 L 565.32855,614.93019 L 566.23264,613.7297 L 568.46175,612.77281 L 570.93257,610.48434 L 571.8391,609.28739 L 570.09611,607.60021 L 572.86527,607.42286 L 576.47526,610.13978 L 578.45828,610.50437 L 579.35637,609.30276 L 581.10838,610.9916 L 580.37809,614.96371 L 583.90729,621.76902 L 582.93339,627.06616 L 580.75951,631.45621 L 578.65195,631.7521 L 577.45746,630.8491 L 574.99816,625.60723 L 576.14586,623.08169 L 574.35117,617.95889 L 570.32269,613.80142 L 567.07097,616.62038 L 565.62441,617.03779 L 566.82736,617.94542 L 565.97498,622.58154 L 563.98895,622.21639 L 562.36561,619.86163 L 563.02961,619.98371 M 549.19955,613.33461 L 552.74524,612.61669 L 561.04358,619.61858 L 564.16383,624.98198 L 566.56783,626.7907 L 568.78348,633.35761 L 568.41777,635.34667 L 566.30773,635.63898 L 562.94686,631.60116 L 557.35334,628.52267 L 559.80959,633.76401 L 561.38121,632.68312 L 562.58117,633.59022 L 563.29798,637.14191 L 561.31193,636.77677 L 554.34166,630.01904 L 553.9237,628.57547 L 557.05801,626.41208 L 555.43654,624.06388 L 553.45348,623.69929 L 550.38603,621.7655 L 551.16256,621.22491 L 552.4876,621.46852 L 553.27671,620.92713 L 551.77133,617.91382 L 550.75063,619.78244 L 549.30462,620.19685 L 548.76459,619.41731 L 549.7913,617.54977 L 549.07802,613.99564 L 549.19955,613.33461 M 548.64361,620.07531 L 548.39999,621.40035 L 547.86049,620.61781 L 548.64361,620.07531 M 570.41731,628.18803 L 570.24352,625.41641 L 572.76905,626.5641 L 573.06741,628.67526 L 570.83526,629.63157 L 570.41731,628.18803 M 551.09385,625.31554 L 553.99054,624.47829 L 555.19294,625.38893 L 553.25969,628.45339 L 550.72815,627.3046 L 551.09385,625.31554 M 574.3894,628.91831 L 574.92943,629.69785 L 574.68583,631.0229 L 572.70281,630.65831 L 574.3894,628.91831"
       id="AK_Prince_of_Wales-Outer_Ketchikan"
       inkscape:label="Prince of Wales-Outer Ketchikan, AK" />
    <path
       style="font-size:12px;fill:#cccccc;fill-opacity:1;fill-rule:nonzero;stroke:#ffffff;stroke-width:0.97313905000000001"
       d="M 564.84133,617.58026 L 565.38081,618.36281 L 564.89358,621.0129 L 563.02961,619.98371 L 564.05877,618.11974 L 563.70357,612.58445 L 562.55995,615.10454 L 562.97437,616.55056 L 562.07272,617.75459 L 558.88318,616.48482 L 557.14075,614.79464 L 557.38436,613.4696 L 559.1955,611.06916 L 558.72286,606.18943 L 554.98783,604.136 L 553.24595,602.4428 L 552.834,601.00036 L 549.39782,601.05505 L 547.41778,600.69102 L 548.31642,599.4864 L 550.30247,599.85155 L 551.45371,597.32356 L 553.14635,595.58468 L 555.90893,595.40924 L 557.53584,597.76155 L 557.17069,599.7476 L 559.93985,599.57025 L 560.11419,602.33886 L 561.97817,603.36802 L 563.59905,605.71922 L 565.04263,605.30126 L 570.09611,607.60021 L 571.8391,609.28739 L 570.93257,610.48434 L 568.46175,612.77281 L 566.23264,613.7297 L 565.32855,614.93019 L 564.84133,617.58026 M 545.24091,605.08053 L 543.49548,603.38978 L 544.39955,602.18929 L 549.03267,603.0411 L 551.2689,602.07932 L 557.81823,607.39293 L 555.34495,609.67786 L 553.3529,609.31161 L 553.59707,607.98356 L 550.65959,605.39341 L 550.41708,606.71243 L 552.82052,608.52414 L 553.23137,609.97261 L 552.33329,611.17423 L 550.34725,610.80908 L 550.22517,611.4731 L 548.77615,611.88693 L 547.52339,607.55023 L 546.9779,606.76659 L 545.78094,605.86005 L 545.24091,605.08053 M 544.68551,611.81821 L 541.74202,609.22696 L 540.7816,607.0003 L 541.80586,605.12921 L 543.25186,604.71482 L 544.99786,606.40255 L 546.9779,606.76659 L 547.81515,609.66328 L 546.36914,610.07768 L 546.12608,611.3997 L 546.42795,613.50841 L 547.74697,613.75091 L 547.01614,617.72602 L 545.94128,616.15546 L 545.99052,619.58752 L 544.78646,618.6859 L 544.07564,615.13531 L 544.4419,613.14326 L 545.76092,613.38576 L 544.68551,611.81821 M 554.43432,610.88024 L 556.667,609.92092 L 557.50535,612.8116 L 556.05933,613.22599 L 554.07029,612.8603 L 554.43432,610.88024 M 540.94,617.28914 L 540.52506,615.84613 L 541.18305,615.9671 L 540.81737,617.95615 L 540.94,617.28914 M 545.08889,620.79159 L 546.40794,621.03409 L 545.50329,622.23759 L 544.30034,621.32997 L 545.08889,620.79159"
       id="AK_Wrangell-Petersburg"
       inkscape:label="Wrangell-Petersburg, AK" />
    <path
       style="font-size:12px;fill:#cccccc;fill-opacity:1;fill-rule:nonzero;stroke:#ffffff;stroke-width:0.97313905000000001"
       d="M 528.28509,593.06388 L 531.349,595.00012 L 534.24326,594.15931 L 535.61752,597.83501 L 535.49544,598.49902 L 533.39143,598.79244 L 529.11988,595.95701 L 528.33436,596.49595 L 529.83616,599.51172 L 528.80697,601.37568 L 527.48198,601.13207 L 522.50074,594.74004 L 525.26878,594.5687 L 525.75601,591.91863 L 528.28509,593.06388 M 540.94,617.28914 L 540.81737,617.95615 L 539.61497,617.04553 L 536.91205,613.12866 L 537.27721,611.14262 L 535.71159,612.22459 L 535.29115,610.77747 L 533.42719,609.7483 L 532.83434,605.53914 L 531.75047,603.96694 L 531.99352,602.64491 L 530.55053,603.05985 L 528.80697,601.37568 L 530.86232,597.6472 L 533.2688,599.45945 L 536.03851,599.27912 L 536.45531,600.72869 L 535.0082,601.14909 L 536.33323,601.3927 L 539.63389,609.52583 L 541.18305,615.9671 L 540.52506,615.84613 L 540.94,617.28914 M 528.02443,601.91516 L 528.80697,601.37568 L 530.96793,604.50641 L 530.60168,606.49847 L 529.15867,606.91344 L 528.02443,601.91516"
       id="AK_Sitka"
       inkscape:label="Sitka, AK" />
    <path
       style="font-size:12px;fill:#cccccc;fill-opacity:1;fill-rule:nonzero;stroke:#ffffff;stroke-width:0.97313905000000001"
       d="M 529.45975,575.49073 L 528.67719,576.03023 L 527.29935,572.35699 L 525.55988,570.66736 L 525.4378,571.33137 L 527.77552,577.23428 L 529.6893,581.69251 L 532.02703,587.59541 L 529.37997,587.10873 L 527.75554,584.75998 L 527.21605,583.97743 L 528.78468,582.89601 L 527.70327,581.32736 L 524.51725,580.05512 L 525.7865,576.86857 L 523.50458,574.39584 L 517.54644,573.3004 L 518.52035,568.00326 L 521.77562,565.18187 L 526.34189,570.13089 L 528.4476,569.82845 L 528.99196,570.61811 L 531.63601,571.10424 L 532.71502,572.66933 L 533.50108,572.12739 L 534.46099,574.35707 L 535.122,574.4786 L 529.45975,575.49073"
       id="AK_Haines"
       sodipodi:nodetypes="cccccccccccccccccccccccccccc"
       inkscape:label="Haines, AK" />
    <path
       style="font-size:12px;fill:#cccccc;fill-opacity:1;fill-rule:nonzero;stroke:#ffffff;stroke-width:0.97313905000000001"
       d="M 544.60439,589.90782 L 544.36078,591.23285 L 543.04174,590.99035 L 539.13233,586.16832 L 535.58232,586.87612 L 530.88928,582.59959 L 528.67719,576.03023 L 529.45975,575.49073 L 535.122,574.4786 L 536.20096,576.04369 L 538.06793,577.07339 L 544.19991,580.94044 L 543.95684,582.2625 L 546.90278,584.85731 L 544.72649,589.24381 L 544.60439,589.90782 M 535.87704,588.98971 L 534.54901,588.74553 L 534.25426,586.63195 L 534.79317,587.41752 L 535.58232,586.87612 L 539.0108,586.82932 L 536.78223,587.78321 L 535.99914,588.32569 L 535.87704,588.98971"
       id="AK_Juneau"
       inkscape:label="Juneau, AK" />
    <path
       style="font-size:12px;fill:#cccccc;fill-opacity:1;fill-rule:nonzero;stroke:#ffffff;stroke-width:0.97313905000000001"
       d="M 526.34189,570.13089 L 521.77562,565.18187 L 523.46825,563.44298 L 525.99135,564.58712 L 527.73378,566.2773 L 528.4476,569.82845 L 526.34189,570.13089 M 527.21605,583.97743 L 527.75554,584.75998 L 524.08285,586.13481 L 523.49054,581.92265 L 521.86721,579.56789 L 521.62304,580.89594 L 520.96202,580.77441 L 515.25104,578.35147 L 515.12896,579.0155 L 517.77601,579.50219 L 521.50151,581.55694 L 523.42182,586.01328 L 518.72243,589.25563 L 516.31543,587.44638 L 514.9904,587.20278 L 513.12588,586.17661 L 506.9975,582.30712 L 510.1307,580.14973 L 515.19524,574.9213 L 517.30282,574.62545 L 517.54644,573.3004 L 523.50458,574.39584 L 525.7865,576.86857 L 524.51725,580.05512 L 527.70327,581.32736 L 528.78468,582.89601 L 527.21605,583.97743 M 550.30247,599.85155 L 548.31642,599.4864 L 547.41778,600.69102 L 547.36253,597.25784 L 544.66266,593.34155 L 544.90571,592.01951 L 544.60439,589.90782 L 544.72649,589.24381 L 546.90278,584.85731 L 555.90893,595.40924 L 553.14635,595.58468 L 551.45371,597.32356 L 550.30247,599.85155 M 536.78223,587.78321 L 539.0108,586.82932 L 538.89038,587.48433 L 543.21609,593.75894 L 541.88805,593.51478 L 540.38867,590.50255 L 539.60558,591.04505 L 543.38743,596.52701 L 543.81028,597.97767 L 542.12065,599.71711 L 541.7555,601.70316 L 539.15574,604.64197 L 537.65831,601.63633 L 538.38916,597.66121 L 535.56526,594.40237 L 533.888,588.62401 L 531.84914,584.82926 L 531.97122,584.16524 L 532.63525,584.28732 L 534.25426,586.63195 L 534.54901,588.74553 L 535.87704,588.98971 L 535.99914,588.32569 L 536.78223,587.78321 M 528.28509,593.06388 L 525.75601,591.91863 L 525.26878,594.5687 L 522.50074,594.74004 L 520.63568,593.71689 L 520.34089,591.60329 L 521.60959,588.41974 L 524.37818,588.24541 L 525.94979,587.16452 L 532.98337,589.82753 L 533.40132,591.27109 L 533.69718,593.37867 L 532.91519,593.91514 L 531.47108,594.33612 L 528.28509,593.06388"
       id="AK_Skagway-Hoonah-Angoon"
       sodipodi:nodetypes="cccccccccccccccccccccccccccccccccccccccccccccccccccccccccccccccccccccccccccccccccccccc"
       inkscape:label="Skagway-Hoonah-Angoon, AK" />
    <path
       style="font-size:12px;fill:#cccccc;fill-opacity:1;fill-rule:nonzero;stroke:#ffffff;stroke-width:0.97313905000000001"
       d="M 480.6687,561.73361 L 483.97379,562.34125 L 484.885,561.13586 L 488.73558,562.52716 L 490.5462,560.12973 L 494.75946,559.53142 L 494.69372,563.6226 L 495.89312,564.53269 L 499.08323,565.79947 L 500.04013,568.0286 L 508.99702,575.14845 L 510.1307,580.14973 L 506.9975,582.30712 L 507.24002,580.98808 L 505.49457,579.29735 L 491.54597,573.30981 L 491.00347,572.5267 L 491.24655,571.20466 L 492.56857,571.44772 L 492.81219,570.1227 L 491.4379,566.44701 L 490.40874,568.31098 L 487.27444,570.47437 L 481.18929,570.03584 L 477.58776,567.3236 L 468.86401,566.40305 L 458.98956,568.00747 L 463.88525,560.01458 L 472.97168,558.94551 L 474.2937,559.18858 L 474.04953,560.51662 L 478.92682,560.04041 L 480.25189,560.28404 L 480.6687,561.73361"
       id="AK_Yakutat"
       inkscape:label="Yakutat, AK" />
    <path
       style="font-size:12px;fill:#cccccc;fill-opacity:1;fill-rule:nonzero;stroke:#ffffff;stroke-width:0;stroke-miterlimit:4;stroke-dasharray:none"
       d="M 245.20665,580.71215 L 243.64101,581.79411 L 243.09962,581.00502 L 243.22059,580.347 L 245.20665,580.71215 M 246.57048,591.91219 L 247.23148,592.03371 L 246.44893,592.57319 L 245.36753,591.00456 L 246.57048,591.91219 M 261.27752,638.41021 L 263.44091,641.54452 L 262.53328,642.74747 L 256.50941,645.74321 L 254.40126,646.04207 L 252.41821,645.67747 L 246.75594,646.68962 L 245.01349,644.99944 L 252.78392,643.68843 L 254.41528,638.51527 L 255.20083,637.97633 L 259.29147,638.04506 L 259.0484,639.3671 L 259.59033,640.15321 L 260.37645,639.61126 L 261.27752,638.41021 M 236.17067,644.74346 L 240.63299,642.82424 L 241.52861,641.61909 L 242.97518,641.20167 L 245.08222,640.90882 L 246.9473,641.93197 L 245.13503,644.33842 L 242.36643,644.51276 L 238.45314,647.2132 L 234.11534,648.47195 L 232.01075,648.76836 L 235.9276,646.0655 L 236.17067,644.74346 M 140.84318,627.21694 L 141.39168,628.00116 L 140.60012,628.53898 L 140.06064,627.75644 L 140.84318,627.21694 M 147.34684,629.09605 L 148.66885,629.3391 L 149.50667,632.2328 L 147.28055,633.19022 L 146.07705,632.2856 L 146.02179,628.85243 L 147.34684,629.09605 M 227.44691,643.82292 L 227.20384,645.14493 L 226.66136,644.36185 L 227.44691,643.82292 M 223.89275,644.53618 L 224.54776,644.6566 L 223.77067,645.2002 L 223.22272,644.413 L 223.89275,644.53618 M 182.48099,638.97868 L 181.94151,638.19613 L 184.83574,637.35532 L 185.78908,639.58689 L 183.31936,641.86937 L 179.34724,641.13907 L 172.31122,638.47252 L 178.80775,640.35653 L 182.35946,639.63969 L 183.14502,639.10076 L 182.48099,638.97868 M 165.51415,634.48939 L 166.83619,634.73246 L 166.59259,636.05751 L 165.81304,636.59753 L 164.60952,635.6929 L 164.85315,634.36787 L 165.51415,634.48939 M 155.58389,632.66366 L 156.78686,633.5713 L 154.31413,635.85322 L 152.99209,635.61017 L 151.24967,633.91997 L 154.67926,633.86717 L 155.58389,632.66366 M 226.41774,645.68688 L 226.95968,646.47299 L 226.17413,647.01192 L 223.64859,645.86423 L 224.42568,645.32062 L 226.41774,645.68688 M 161.05894,636.40371 L 162.91935,637.43535 L 162.01527,638.63584 L 155.27513,638.07688 L 159.43693,634.05854 L 161.42298,634.42369 L 161.30145,635.0847 L 160.63742,634.9626 L 159.7309,636.15955 L 161.05894,636.40371 M 222.19601,646.28051 L 222.85702,646.40204 L 222.73549,647.06307 L 222.07448,646.94152 L 222.19601,646.28051 z M 217.56289,645.42868 L 218.1084,646.21234 L 217.19774,647.41475 L 215.21771,647.0507 L 215.46133,645.72566 L 217.56289,645.42868 M 168.33612,637.74166 L 168.87751,638.53079 L 168.21349,638.40871 L 168.33612,637.74166 M 163.58337,637.55743 L 165.56942,637.92258 L 166.10591,638.70456 L 164.00132,639.00098 L 162.79782,638.09636 L 163.58337,637.55743 M 136.44567,632.568 L 136.32413,633.22902 L 135.53257,633.76684 L 136.44567,632.568 M 211.2396,646.3193 L 211.78208,647.1024 L 210.99653,647.64134 L 210.45705,646.85878 L 211.2396,646.3193 M 199.9873,644.2505 L 200.5298,645.0336 L 200.40826,645.69462 L 197.75819,645.20739 L 198.54374,644.66846 L 199.9873,644.2505 M 187.82793,643.38165 L 189.03499,644.28382 L 193.42395,646.46369 L 188.1268,645.48979 L 185.60482,644.33964 L 183.98336,641.99145 L 185.84788,643.0176 L 187.82793,643.38165 M 134.99609,632.98485 L 134.75359,634.30387 L 134.08957,634.18178 L 134.99609,632.98485"
       id="AK_Aleutians_West"
       inkscape:label="Aleutians West, AK" />
    <path
       style="font-size:12px;fill:#cccccc;fill-opacity:1;fill-rule:nonzero;stroke:#ffffff;stroke-width:0.97313905000000001"
       d="M 326.43969,626.4451 L 326.19717,627.76413 L 325.78166,626.32412 L 326.02584,624.99609 L 324.82288,624.08844 L 323.91524,625.2914 L 322.59321,625.04834 L 321.68257,626.25074 L 317.88726,628.2926 L 311.57052,629.18131 L 309.03296,628.03142 L 310.97277,624.96503 L 308.98973,624.60045 L 304.2126,631.93177 L 301.32491,632.77069 L 299.45439,631.74343 L 300.0626,628.43532 L 298.86866,627.52936 L 297.95856,628.72876 L 298.38198,630.17643 L 298.55277,632.94747 L 295.78115,633.12128 L 295.06488,629.56655 L 292.95729,629.86241 L 293.79811,632.75667 L 293.06835,636.72577 L 291.20384,635.69961 L 288.43223,635.87339 L 283.79912,635.02156 L 282.35146,635.44497 L 280.00381,637.06342 L 276.69272,636.45465 L 276.3963,634.35008 L 276.64045,633.02204 L 278.7486,632.72315 L 280.43524,630.98318 L 288.32418,629.0106 L 290.31022,629.37573 L 290.3655,632.80893 L 291.69051,633.05253 L 292.42082,629.08042 L 296.63354,628.48514 L 303.81713,622.96606 L 308.39498,620.38473 L 312.6077,619.78943 L 314.47523,620.81614 L 316.33918,621.84532 L 315.67518,621.72323 L 315.43156,623.04826 L 315.8514,624.49839 L 317.29909,624.07499 L 318.20371,622.87148 L 318.56886,620.88542 L 321.40374,616.6169 L 325.98349,614.04211 L 334.89916,610.20201 L 335.44055,610.99111 L 335.32011,611.64611 L 333.7539,612.73109 L 331.76786,612.36596 L 331.52426,613.69099 L 328.87419,613.20376 L 328.63056,614.5288 L 325.98349,614.04211 L 325.49791,616.68318 L 326.16194,616.80526 L 325.18803,622.10239 L 324.28038,623.30536 L 326.92747,623.79204 L 326.43969,626.4451 M 319.75589,629.3133 L 321.07492,629.55581 L 320.83076,630.88386 L 319.51172,630.64135 L 318.96923,629.85825 L 319.75589,629.3133 M 317.40113,630.93666 L 318.72618,631.18027 L 318.48311,632.50231 L 316.79293,634.24475 L 314.27039,633.0976 L 314.09304,630.32844 L 314.87859,629.78952 L 316.20363,630.03314 L 317.40113,630.93666 M 322.57619,632.57458 L 322.7541,635.34072 L 318.7127,638.70408 L 319.443,634.73197 L 320.22254,634.19193 L 321.42905,635.09712 L 322.57619,632.57458 M 325.7663,633.84137 L 325.15753,637.15245 L 323.8355,636.90939 L 325.7663,633.84137 M 306.86567,632.41956 L 307.40762,633.20567 L 306.08257,632.96206 L 304.99814,631.39284 L 305.78069,630.85337 L 306.86567,632.41956 M 326.59808,636.73395 L 327.0215,638.18162 L 325.57493,638.59902 L 325.94008,636.61297 L 326.59808,636.73395 M 301.20283,633.4347 L 300.95976,634.75674 L 300.18022,635.29678 L 299.08924,633.72948 L 301.20283,633.4347 M 326.89998,638.84264 L 327.43946,639.62518 L 326.65692,640.16466 L 326.89998,638.84264 M 294.56418,639.74042 L 296.43527,640.76469 L 296.31263,641.43172 L 294.32057,641.06547 L 293.7852,640.27746 L 294.56418,639.74042 M 269.82993,636.56272 L 270.49094,636.68426 L 270.24788,638.00628 L 268.68225,639.08826 L 268.38336,636.98011 L 269.16892,636.4412 L 269.82993,636.56272 M 267.48173,638.18418 L 266.57466,639.38412 L 264.58859,639.01898 L 264.17066,637.57542 L 265.73931,636.494 L 267.48173,638.18418 M 273.97637,640.06162 L 274.64039,640.1837 L 274.51886,640.84471 L 271.8718,640.35803 L 273.97637,640.06162 M 271.20778,640.23595 L 271.75027,641.01906 L 269.88273,639.99233 L 271.20778,640.23595"
       id="AK_Aleutians_East"
       inkscape:label="Aleutians East, AK" />
    <path
       style="font-size:12px;fill:#cccccc;fill-opacity:1;fill-rule:nonzero;stroke:#ffffff;stroke-width:0.97313905000000001"
       d="M 356.33935,605.2447 L 358.02243,603.50719 L 360.25564,602.54483 L 361.03463,602.00779 L 361.57766,602.78789 L 362.35968,602.25142 L 364.04384,600.50786 L 367.05961,599.00605 L 367.37141,593.59338 L 370.26509,592.75557 L 373.81924,592.0423 L 376.0459,591.08186 L 376.65412,587.77378 L 378.64317,588.13949 L 380.74585,587.83651 L 380.32788,586.39293 L 383.63599,587.00114 L 383.34012,584.89356 L 384.67116,585.13828 L 383.63599,587.00114 L 382.07088,588.08012 L 380.62322,588.50352 L 378.93658,590.24351 L 377.42674,594.75567 L 375.73356,596.49754 L 373.50443,597.45441 L 372.30094,596.5498 L 370.19335,596.84565 L 368.62716,597.93063 L 366.69391,600.9951 L 365.37488,600.75259 L 362.89971,603.03096 L 361.45503,603.45492 L 360.91366,602.66581 L 360.66948,603.99386 L 356.21672,605.91173 L 356.09574,606.56974 L 357.53574,606.15424 L 357.0485,608.80431 L 353.74944,608.19776 L 353.99361,606.86971 L 355.43471,606.44822 L 356.33935,605.2447 M 386.98586,598.56633 L 386.20332,599.10581 L 383.13829,597.17557 L 386.51319,593.68661 L 390.02111,589.54182 L 392.11912,589.2473 L 390.98044,591.7745 L 390.73737,593.09651 L 393.50596,592.92218 L 394.70648,593.82626 L 394.99578,595.93575 L 394.09772,597.13734 L 388.43843,598.15004 L 386.68999,596.45876 L 385.90387,597.00068 L 386.98586,598.56633 M 377.58106,605.04996 L 377.87992,607.15809 L 379.08041,608.06218 L 378.00147,606.49707 L 378.31191,601.07484 L 379.87944,599.99945 L 383.97364,600.06571 L 385.41776,599.64475 L 387.41282,600.01155 L 386.3771,601.87743 L 386.92614,602.65862 L 390.05087,600.49658 L 391.50045,600.07973 L 390.3552,602.60882 L 391.31508,604.8385 L 392.63713,605.08155 L 390.8284,607.48556 L 386.89955,610.18623 L 382.86117,613.55013 L 382.07863,614.08961 L 381.66123,612.64303 L 382.5664,611.43653 L 381.9054,611.315 L 379.07297,615.58707 L 376.71521,617.20988 L 374.60817,617.50274 L 373.65374,615.27719 L 372.2729,611.60341 L 371.97514,609.48927 L 370.89972,607.92171 L 372.16594,604.73461 L 374.51658,603.11671 L 377.94621,603.06391 L 377.58106,605.04996 M 374.24246,619.49181 L 376.76801,620.63949 L 375.98601,621.17597 L 373.33895,620.68929 L 372.80191,619.91031 L 374.24246,619.49181 M 371.5954,619.00514 L 372.80191,619.91031 L 369.00059,621.95106 L 369.2442,620.62601 L 371.5954,619.00514 M 360.92194,628.67229 L 362.12544,629.57691 L 361.63821,632.22698 L 359.11267,631.07929 L 359.35629,629.75426 L 360.92194,628.67229"
       id="AK_Kodiak_Island"
       inkscape:label="Kodiak Island, AK" />
    <path
       style="font-size:12px;fill:#cccccc;fill-opacity:1;fill-rule:nonzero;stroke:#ffffff;stroke-width:0.97313905000000001"
       d="M 355.96537,581.22727 L 361.2625,582.20119 L 360.53164,586.1763 L 353.12693,585.49826 L 354.81655,583.75882 L 355.96537,581.22727"
       id="AK_Bristol_Bay"
       inkscape:label="Bristol Bay, AK" />
    <path
       style="font-size:12px;fill:#cccccc;fill-opacity:1;fill-rule:nonzero;stroke:#ffffff;stroke-width:0.97313905000000001"
       d="M 354.64332,580.98422 L 354.52124,581.64823 L 345.84975,584.16031 L 344.64625,583.25568 L 342.73001,578.79388 L 341.94391,579.33581 L 340.79622,581.86136 L 341.51304,585.41307 L 339.28037,586.3724 L 337.96135,586.12987 L 335.32476,578.11884 L 334.1218,577.21122 L 333.09863,579.0763 L 332.43461,578.9542 L 329.6121,575.70493 L 330.39576,575.15943 L 329.85628,574.37688 L 323.95037,576.71407 L 324.4376,574.06398 L 325.75964,574.30706 L 327.81742,570.58214 L 329.38252,569.50316 L 330.77437,565.64959 L 332.58608,563.24613 L 334.57213,563.61128 L 335.05936,560.96121 L 337.77215,557.3567 L 339.58387,554.95326 L 340.9089,555.19687 L 345.68059,547.86142 L 353.6218,549.32146 L 353.37818,550.64649 L 354.7032,550.89011 L 356.26586,549.80759 L 356.63101,547.82153 L 359.28107,548.30876 L 359.03802,549.63078 L 367.63722,551.2118 L 367.39305,552.53986 L 367.2088,557.2926 L 365.55386,569.99391 L 364.22882,569.75029 L 363.86422,571.73335 L 361.22316,571.24777 L 359.65506,572.32619 L 358.50326,574.85717 L 356.5202,574.49257 L 354.2911,575.44947 L 354.64332,580.98422 M 321.06269,577.55297 L 321.3063,576.22794 L 323.28936,576.59254 L 321.06269,577.55297"
       id="AK_Dillingham"
       inkscape:label="Dillingham, AK" />
    <path
       style="font-size:12px;fill:#cccccc;fill-opacity:1;fill-rule:nonzero;stroke:#ffffff;stroke-width:0.97313905000000001"
       d="M 356.33935,605.2447 L 355.43471,606.44822 L 353.99361,606.86971 L 353.74944,608.19776 L 357.0485,608.80431 L 348.80151,612.75804 L 347.59747,611.85642 L 346.44977,614.38195 L 342.23816,614.97123 L 342.11553,615.63825 L 342.77654,615.75978 L 343.19393,617.20636 L 339.22184,616.47606 L 337.53466,618.21904 L 339.69259,621.34924 L 336.44032,624.17119 L 327.46995,624.57513 L 327.1037,626.56719 L 326.19717,627.76413 L 326.92747,623.79204 L 324.28038,623.30536 L 325.18803,622.10239 L 326.16194,616.80526 L 325.49791,616.68318 L 325.98349,614.04211 L 328.63056,614.5288 L 328.87419,613.20376 L 331.52426,613.69099 L 331.76786,612.36596 L 333.7539,612.73109 L 335.32011,611.64611 L 335.44055,610.99111 L 337.42661,611.35626 L 337.25281,608.58466 L 339.06152,606.18065 L 346.89466,600.7779 L 350.53567,588.44174 L 353.12693,585.49826 L 360.53164,586.1763 L 361.2625,582.20119 L 355.96537,581.22727 L 355.42477,580.45075 L 354.52124,581.64823 L 354.64332,580.98422 L 354.2911,575.44947 L 356.5202,574.49257 L 358.50326,574.85717 L 359.65506,572.32619 L 361.22316,571.24777 L 363.86422,571.73335 L 364.22882,569.75029 L 365.55386,569.99391 L 367.2088,557.2926 L 367.39305,552.53986 L 367.63722,551.2118 L 378.34702,552.4975 L 382.44066,552.56679 L 386.41275,553.29708 L 386.52139,560.15688 L 385.19634,559.91325 L 384.88346,565.33193 L 383.56141,565.08886 L 383.97936,566.53243 L 383.24852,570.50753 L 382.5875,570.38599 L 382.34389,571.71103 L 381.02188,571.46796 L 380.77825,572.79301 L 379.87116,573.99296 L 379.08861,574.53245 L 377.52051,575.61086 L 376.37471,578.14295 L 374.38565,577.77724 L 373.90008,580.4183 L 374.43902,581.20386 L 374.19541,582.5289 L 374.00404,587.28655 L 376.65412,587.77378 L 376.0459,591.08186 L 373.81924,592.0423 L 370.26509,592.75557 L 367.37141,593.59338 L 367.05961,599.00605 L 364.04384,600.50786 L 362.35968,602.25142 L 361.57766,602.78789 L 361.03463,602.00779 L 360.25564,602.54483 L 358.02243,603.50719 L 356.33935,605.2447 M 349.39272,616.97621 L 350.59375,617.87729 L 347.94969,617.39117 L 348.73169,616.85466 L 349.39272,616.97621"
       id="AK_Lake_and_Peninsula"
       inkscape:label="Lake and Peninsula, AK" />
    <path
       style="font-size:12px;fill:#cccccc;fill-opacity:1;fill-rule:nonzero;stroke:#ffffff;stroke-width:0.97313905000000001"
       d="M 376.37471,578.14295 L 377.52051,575.61086 L 379.08861,574.53245 L 379.87116,573.99296 L 380.77825,572.79301 L 381.02188,571.46796 L 382.34389,571.71103 L 382.5875,570.38599 L 383.24852,570.50753 L 383.97936,566.53243 L 383.56141,565.08886 L 384.88346,565.33193 L 385.19634,559.91325 L 386.52139,560.15688 L 386.41275,553.29708 L 386.53483,552.63306 L 386.96873,546.55637 L 387.21233,545.23135 L 387.87334,545.35288 L 390.64139,545.18155 L 393.28846,545.66823 L 394.73613,545.24481 L 402.8109,546.04605 L 402.32367,548.69612 L 404.30671,549.06071 L 405.51322,549.96589 L 403.94156,551.04676 L 400.14079,553.08451 L 396.6359,557.22986 L 392.65277,564.02693 L 392.04456,567.33499 L 387.76366,572.01791 L 384.08632,573.40121 L 381.61469,575.67712 L 379.38504,576.63702 L 377.99372,580.48759 L 378.41113,581.93416 L 379.19724,581.39221 L 381.96283,581.21733 L 384.79268,584.47728 L 384.67116,585.13828 L 383.34012,584.89356 L 383.63599,587.00114 L 380.32788,586.39293 L 380.74585,587.83651 L 378.64317,588.13949 L 374.00404,587.28655 L 374.19541,582.5289 L 374.43902,581.20386 L 373.90008,580.4183 L 374.38565,577.77724 L 376.37471,578.14295 M 396.30506,577.6978 L 401.53739,575.23987 L 403.35868,572.83507 L 402.02462,572.5898 L 399.68297,574.20936 L 398.47893,573.30773 L 397.40051,571.73962 L 398.79484,567.88961 L 400.71605,564.82292 L 401.87387,562.29304 L 402.35943,559.65198 L 401.52164,556.75831 L 404.41834,555.92106 L 409.11471,552.67814 L 410.19913,554.24734 L 412.1822,554.61194 L 414.40885,553.65149 L 416.27282,554.68064 L 418.92289,555.16788 L 419.46238,555.95045 L 421.20783,557.64118 L 422.52684,557.88368 L 422.40476,558.54769 L 422.58265,561.31384 L 422.46057,561.97788 L 422.9995,562.76343 L 422.56864,568.84065 L 422.44656,569.50469 L 417.02787,569.19179 L 414.14076,570.02768 L 413.40992,574.0028 L 408.04404,577.11953 L 407.50454,576.33696 L 405.93891,577.41894 L 404.0032,580.47985 L 397.67335,581.37236 L 395.94047,579.68082 L 396.30506,577.6978"
       id="AK_Kenai_Peninsula"
       inkscape:label="Kenai Peninsula, AK" />
    <path
       style="font-size:12px;fill:#cccccc;fill-opacity:1;fill-rule:nonzero;stroke:#ffffff;stroke-width:0.97313905000000001"
       d="M 414.40885,553.65149 L 411.58689,550.39922 L 412.37298,549.85728 L 412.49396,549.19927 L 413.155,549.32081 L 414.96726,546.91434 L 415.74625,546.37731 L 416.41328,546.49995 L 417.19392,545.9539 L 417.85494,546.07544 L 418.39933,546.8651 L 423.93763,546.51042 L 423.5725,548.49646 L 423.8659,550.6005 L 423.50019,552.58955 L 424.04269,553.37265 L 423.556,556.0197 L 421.57298,555.65513 L 421.32935,556.98016 L 421.86883,557.7627 L 421.20783,557.64118 L 419.46238,555.95045 L 418.92289,555.16788 L 416.27282,554.68064 L 414.40885,553.65149"
       id="AK_Anchorage"
       inkscape:label="Anchorage, AK" />
    <path
       style="font-size:12px;fill:#cccccc;fill-opacity:1;fill-rule:nonzero;stroke:#ffffff;stroke-width:0.97313905000000001"
       d="M 423.79906,554.69768 L 424.04269,553.37265 L 423.50019,552.58955 L 423.8659,550.6005 L 423.5725,548.49646 L 423.93763,546.51042 L 429.35085,546.81919 L 433.44693,546.89203 L 432.90554,546.10292 L 433.56956,546.22502 L 435.00958,545.80952 L 435.02905,538.28681 L 435.15113,537.62279 L 434.43487,534.06809 L 437.86748,534.01583 L 438.64647,533.47882 L 438.35416,531.36878 L 438.47568,530.70775 L 438.07175,521.73738 L 437.77288,519.62925 L 440.66658,518.79145 L 442.77171,518.49202 L 443.43272,518.61354 L 444.87574,518.1986 L 446.86479,518.5643 L 448.72985,519.58745 L 449.39088,519.70898 L 461.1323,519.13427 L 462.08918,521.3634 L 462.14199,524.793 L 461.77685,526.77907 L 463.76291,527.1442 L 464.79203,525.28023 L 467.43613,525.76636 L 470.38202,528.36117 L 470.85173,533.24036 L 472.05819,534.14554 L 471.93666,534.80657 L 472.11101,537.57518 L 477.77084,536.55947 L 480.25189,560.28404 L 478.92682,560.04041 L 474.04953,560.51662 L 474.2937,559.18858 L 472.97168,558.94551 L 463.88525,560.01458 L 458.98956,568.00747 L 450.86749,563.78074 L 451.23319,561.79169 L 448.34252,562.63004 L 449.42448,564.1957 L 444.49195,561.23873 L 437.56288,565.44097 L 436.60054,563.20776 L 437.63216,561.34735 L 438.95419,561.5904 L 441.84488,560.75205 L 443.41353,559.67063 L 443.65658,558.34861 L 440.10244,559.06187 L 437.45237,558.57464 L 436.91643,557.78965 L 439.92811,556.29327 L 440.71065,555.75378 L 437.81751,556.58861 L 437.40256,555.14558 L 436.617,555.68451 L 437.22577,552.37343 L 432.89153,553.62973 L 431.86535,555.49426 L 426.8671,556.62848 L 426.20007,556.50584 L 427.5974,552.65638 L 426.15026,553.07679 L 424.88105,556.26333 L 426.74557,557.2895 L 427.87979,562.28775 L 426.72853,564.81576 L 428.88949,567.9465 L 427.19875,569.69193 L 422.44656,569.50469 L 422.56864,568.84065 L 422.9995,562.76343 L 422.46057,561.97788 L 422.58265,561.31384 L 422.40476,558.54769 L 422.52684,557.88368 L 421.86883,557.7627 L 421.32935,556.98016 L 421.57298,555.65513 L 423.556,556.0197 L 423.79906,554.69768 M 433.97295,555.19838 L 433.8514,555.85941 L 432.52638,555.6158 L 433.97295,555.19838 M 431.37868,558.14133 L 432.57563,559.04786 L 431.13506,559.46635 L 431.37868,558.14133 M 427.40357,557.41048 L 428.60953,558.31866 L 427.82399,558.85759 L 427.28149,558.0745 L 427.40357,557.41048 M 430.34897,560.00829 L 429.13199,566.62746 L 427.39255,564.93784 L 428.65934,561.74773 L 430.34897,560.00829 M 434.00872,566.15426 L 432.31964,567.89069 L 430.93023,571.74781 L 428.0371,572.5826 L 428.52378,569.93554 L 432.80521,565.24963 L 433.04884,563.92459 L 433.83495,563.38264 L 435.69892,564.41182 L 434.00872,566.15426"
       id="AK_Valdez-Cordova"
       inkscape:label="Valdez-Cordova, AK" />
    <path
       style="font-size:12px;fill:#cccccc;fill-opacity:1;fill-rule:nonzero;stroke:#ffffff;stroke-width:0.97313905000000001"
       d="M 417.85494,546.07544 L 417.19392,545.9539 L 416.41328,546.49995 L 415.74625,546.37731 L 414.96726,546.91434 L 413.155,549.32081 L 412.49396,549.19927 L 412.37298,549.85728 L 407.07585,548.88337 L 405.51322,549.96589 L 404.30671,549.06071 L 402.32367,548.69612 L 402.8109,546.04605 L 394.73613,545.24481 L 393.28846,545.66823 L 390.64139,545.18155 L 390.88555,543.85351 L 390.34662,543.06796 L 391.44153,537.1128 L 390.90204,536.33025 L 391.75388,531.69713 L 392.30627,524.9589 L 399.7121,525.63092 L 399.95517,524.3089 L 417.79383,516.63934 L 427.30726,517.0155 L 427.42824,516.3575 L 427.00728,514.91338 L 434.53409,514.92741 L 437.9637,514.87459 L 437.77288,519.62925 L 438.07175,521.73738 L 438.47568,530.70775 L 438.35416,531.36878 L 438.64647,533.47882 L 437.86748,534.01583 L 434.43487,534.06809 L 435.15113,537.62279 L 435.02905,538.28681 L 435.00958,545.80952 L 433.56956,546.22502 L 432.90554,546.10292 L 433.44693,546.89203 L 429.35085,546.81919 L 423.93763,546.51042 L 418.39933,546.8651 L 417.85494,546.07544"
       id="AK_Matanuska-Susitna"
       inkscape:label="Matanuska-Susitna, AK" />
    <path
       style="font-size:12px;fill:#cccccc;fill-opacity:1;fill-rule:nonzero;stroke:#ffffff;stroke-width:0.97313905000000001"
       d="M 442.77171,518.49202 L 440.66658,518.79145 L 437.77288,519.62925 L 437.9637,514.87459 L 434.53409,514.92741 L 434.07489,502.52387 L 438.29117,501.92612 L 439.9767,500.19214 L 442.2099,499.22979 L 444.19596,499.59494 L 453.23204,495.09983 L 455.87912,495.5865 L 456.0012,494.92249 L 457.69139,493.18005 L 456.7315,490.95038 L 457.63558,489.74988 L 458.54322,488.54694 L 460.77043,487.5835 L 462.16419,483.73647 L 462.8252,483.85801 L 465.17585,482.24011 L 467.284,481.94123 L 469.75673,479.65931 L 470.12132,477.67627 L 471.81147,475.93383 L 477.77084,536.55947 L 472.11101,537.57518 L 471.93666,534.80657 L 472.05819,534.14554 L 470.85173,533.24036 L 470.38202,528.36117 L 467.43613,525.76636 L 464.79203,525.28023 L 463.76291,527.1442 L 461.77685,526.77907 L 462.14199,524.793 L 462.08918,521.3634 L 461.1323,519.13427 L 449.39088,519.70898 L 448.72985,519.58745 L 446.86479,518.5643 L 444.87574,518.1986 L 443.43272,518.61354 L 442.77171,518.49202"
       id="AK_Southeast_Fairbanks"
       inkscape:label="SE Fairbanks, AK" />
    <path
       style="font-size:12px;fill:#cccccc;fill-opacity:1;fill-rule:nonzero;stroke:#ffffff;stroke-width:0.97313905000000001"
       d="M 423.43026,497.14999 L 423.55179,496.48896 L 423.14842,487.5156 L 423.81242,487.63768 L 430.67522,487.5296 L 431.57984,486.32611 L 434.22993,486.81334 L 435.79201,485.73382 L 437.48219,483.99138 L 438.92988,483.56796 L 440.13228,484.4786 L 439.88811,485.80665 L 440.96707,487.37174 L 441.63109,487.49382 L 442.58854,489.71994 L 443.12802,490.50248 L 450.89733,489.19749 L 454.3275,489.14168 L 453.42341,490.34218 L 453.23204,495.09983 L 444.19596,499.59494 L 442.2099,499.22979 L 439.9767,500.19214 L 438.29117,501.92612 L 434.07489,502.52387 L 429.31915,502.33906 L 427.45572,501.3069 L 426.79772,501.18591 L 424.75228,497.39305 L 423.43026,497.14999"
       id="AK_Fairbanks_North_Star"
       inkscape:label="Fairbanks North Stark, AK" />
    <path
       style="font-size:12px;fill:#cccccc;fill-opacity:1;fill-rule:nonzero;stroke:#ffffff;stroke-width:0.97313905000000001"
       d="M 417.79383,516.63934 L 399.95517,524.3089 L 399.7121,525.63092 L 392.30627,524.9589 L 396.29296,518.15938 L 396.65809,516.17333 L 394.132,515.02863 L 394.20238,510.92899 L 398.30147,511.00237 L 400.10417,508.59727 L 399.93339,505.8262 L 402.28104,504.20776 L 403.60608,504.45138 L 405.47661,505.47864 L 409.09704,500.67119 L 419.2679,501.17132 L 427.45572,501.3069 L 429.31915,502.33906 L 434.07489,502.52387 L 434.53409,514.92741 L 427.00728,514.91338 L 427.42824,516.3575 L 427.30726,517.0155 L 417.79383,516.63934"
       id="AK_Denali"
       inkscape:label="Denali, AK" />
    <path
       style="font-size:12px;fill:#cccccc;fill-opacity:1;fill-rule:nonzero;stroke:#ffffff;stroke-width:0.97313905000000001"
       d="M 386.96873,546.55637 L 386.53483,552.63306 L 386.41275,553.29708 L 382.44066,552.56679 L 378.34702,552.4975 L 367.63722,551.2118 L 359.03802,549.63078 L 359.28107,548.30876 L 356.63101,547.82153 L 356.26586,549.80759 L 354.7032,550.89011 L 353.37818,550.64649 L 353.6218,549.32146 L 345.68059,547.86142 L 340.9089,555.19687 L 339.58387,554.95326 L 337.77215,557.3567 L 335.05936,560.96121 L 334.57213,563.61128 L 332.58608,563.24613 L 330.77437,565.64959 L 329.38252,569.50316 L 327.81742,570.58214 L 325.75964,574.30706 L 324.4376,574.06398 L 323.95037,576.71407 L 321.3063,576.22794 L 320.81962,578.87502 L 318.71204,579.17088 L 314.19145,577.65639 L 315.63856,577.23597 L 316.84452,578.14417 L 317.99522,575.61918 L 318.06204,571.52199 L 317.22015,568.63377 L 320.47352,565.80578 L 319.88667,561.59773 L 320.00875,560.93372 L 317.91466,553.70578 L 316.10839,556.11334 L 310.98068,557.90092 L 306.22191,557.71556 L 303.81847,555.90385 L 303.52205,553.79926 L 301.60582,549.33747 L 296.62214,542.94189 L 301.07981,541.03112 L 300.7845,538.92055 L 299.45946,538.67693 L 299.581,538.01591 L 300.36355,537.47643 L 304.33865,538.20727 L 307.76882,538.15148 L 312.05325,533.46611 L 318.9215,533.36214 L 319.7016,532.8191 L 321.80863,532.52625 L 325.54068,534.57912 L 331.73889,534.35198 L 334.09419,532.72562 L 337.76687,531.35078 L 337.34647,529.90366 L 345.94868,531.48522 L 346.1923,530.1602 L 351.49245,531.13466 L 351.7355,529.81262 L 362.44532,531.09832 L 362.2017,532.42337 L 372.12594,534.24799 L 375.55611,534.19218 L 381.51126,535.28706 L 384.28587,535.11384 L 385.60491,535.35634 L 385.84852,534.0313 L 388.62258,533.86107 L 388.7452,533.19407 L 389.5242,532.65703 L 390.84623,532.9001 L 391.75388,531.69713 L 390.90204,536.33025 L 391.44153,537.1128 L 390.34662,543.06796 L 390.88555,543.85351 L 390.64139,545.18155 L 387.87334,545.35288 L 387.21233,545.23135 L 386.96873,546.55637 M 242.7248,523.4562 L 243.02613,525.56788 L 243.43808,527.01035 L 245.84508,528.8196 L 246.39001,529.60627 L 243.73694,529.11848 L 243.31655,527.67137 L 241.82918,524.66136 L 242.7248,523.4562 M 288.97571,543.59545 L 291.08083,543.29604 L 293.90468,546.55487 L 292.51394,550.40243 L 291.60874,551.60893 L 288.05815,552.31976 L 282.04775,547.79169 L 280.42329,545.44294 L 280.66635,544.12092 L 281.45189,543.58199 L 285.42099,544.31173 L 288.43678,542.80992 L 288.97571,543.59545"
       id="AK_Bethel"
       inkscape:label="Bethel, AK" />
    <path
       style="font-size:12px;fill:#cccccc;fill-opacity:1;fill-rule:nonzero;stroke:#ffffff;stroke-width:0.97313905000000001"
       d="M 337.34647,529.90366 L 337.76687,531.35078 L 334.09419,532.72562 L 331.73889,534.35198 L 325.54068,534.57912 L 321.80863,532.52625 L 319.7016,532.8191 L 318.9215,533.36214 L 312.05325,533.46611 L 307.76882,538.15148 L 304.33865,538.20727 L 300.36355,537.47643 L 300.48563,536.81241 L 301.93164,536.39801 L 302.83927,535.19507 L 300.43283,533.38279 L 299.52818,534.5863 L 297.66421,533.55713 L 295.57312,526.32976 L 296.96441,522.47918 L 305.94771,514.55445 L 309.74358,512.50958 L 309.45015,510.40556 L 311.3804,507.34053 L 314.63568,504.51913 L 317.40784,504.34234 L 321.31067,509.16627 L 323.4248,508.8685 L 327.33509,506.16753 L 328.53803,507.07516 L 330.45237,511.53039 L 338.40558,512.99264 L 337.74457,512.87111 L 336.71184,514.73753 L 335.08047,519.91069 L 334.10656,525.20782 L 335.4316,525.45144 L 334.39997,527.31186 L 334.15636,528.63688 L 334.70241,529.41754 L 337.34647,529.90366"
       id="AK_Wade_Hampton"
       inkscape:label="Wade Hampton, AK" />
    <path
       style="font-size:12px;fill:#cccccc;fill-opacity:1;fill-rule:nonzero;stroke:#ffffff;stroke-width:0.97313905000000001"
       d="M 348.35978,499.77021 L 347.8742,502.41127 L 346.55216,502.16821 L 346.30799,503.49624 L 344.74235,504.57822 L 342.09229,504.09099 L 340.52363,505.17241 L 339.79333,509.14452 L 339.13532,509.02353 L 338.40558,512.99264 L 330.45237,511.53039 L 328.53803,507.07516 L 327.33509,506.16753 L 329.81437,503.88371 L 331.66933,504.91122 L 334.32842,505.40012 L 337.75859,505.34431 L 340.47437,501.74034 L 341.49809,499.87226 L 340.60692,493.55197 L 339.65004,491.32285 L 340.01519,489.3368 L 341.33723,489.57987 L 343.56633,488.62298 L 343.93093,486.63994 L 341.77464,483.50073 L 340.08447,485.24317 L 334.54672,485.59485 L 331.52904,487.09011 L 321.05874,484.48483 L 315.51855,484.83296 L 308.72504,480.84737 L 307.64362,479.27874 L 307.22677,477.82916 L 308.25128,475.97366 L 308.3211,471.87701 L 309.10421,471.33453 L 310.12927,469.47602 L 304.65834,465.73049 L 301.17649,462.35069 L 301.54052,460.37064 L 314.67191,455.93579 L 315.75333,457.50444 L 318.94232,458.77722 L 319.06441,458.11322 L 317.32198,456.42302 L 317.56504,455.101 L 327.43704,453.493 L 326.88654,460.23782 L 325.91319,465.53194 L 327.11613,466.43959 L 326.75154,468.42263 L 327.28801,469.20462 L 327.95505,469.32726 L 327.46781,471.97734 L 350.51432,476.90105 L 351.83936,477.14465 L 352.08354,475.81662 L 354.7306,476.3033 L 354.0003,480.27541 L 353.33629,480.15333 L 352.36294,485.44745 L 351.0379,485.20384 L 350.5501,487.85691 L 349.22806,487.61385 L 347.28135,498.20212 L 348.60338,498.44517 L 348.35978,499.77021 M 316.78004,455.63693 L 315.99694,456.17939 L 316.11902,455.51539 L 316.78004,455.63693 M 297.6083,470.59076 L 299.05186,470.1728 L 299.47282,471.61692 L 298.02815,472.04089 L 297.6083,470.59076 M 268.87802,481.73091 L 269.77609,480.5293 L 269.41095,482.51537 L 272.89581,485.89572 L 276.5726,484.51544 L 277.77255,485.42251 L 278.85397,486.99117 L 278.48937,488.97422 L 281.31023,492.2325 L 286.3643,494.52843 L 284.5526,496.93188 L 282.14914,495.12018 L 279.92248,496.08061 L 278.05494,495.0539 L 274.93769,489.69104 L 272.53122,487.87877 L 271.2092,487.63571 L 268.3155,488.47351 L 266.58208,486.78499 L 266.82514,485.46296 L 268.87802,481.73091 M 329.63349,501.11702 L 329.39042,502.43904 L 327.40737,502.07443 L 328.30844,500.87339 L 329.63349,501.11702"
       id="AK_Nome"
       inkscape:label="Nome, AK" />
    <path
       style="font-size:12px;fill:#cccccc;fill-opacity:1;fill-rule:nonzero;stroke:#ffffff;stroke-width:0.97313905000000001"
       d="M 390.18521,532.77855 L 389.5242,532.65703 L 388.7452,533.19407 L 388.62258,533.86107 L 385.84852,534.0313 L 385.60491,535.35634 L 384.28587,535.11384 L 381.51126,535.28706 L 375.55611,534.19218 L 372.12594,534.24799 L 362.2017,532.42337 L 362.44532,531.09832 L 351.7355,529.81262 L 351.49245,531.13466 L 346.1923,530.1602 L 345.94868,531.48522 L 334.70241,529.41754 L 334.15636,528.63688 L 334.39997,527.31186 L 335.4316,525.45144 L 334.10656,525.20782 L 335.08047,519.91069 L 336.71184,514.73753 L 337.74457,512.87111 L 338.40558,512.99264 L 339.13532,509.02353 L 339.79333,509.14452 L 340.52363,505.17241 L 342.09229,504.09099 L 344.74235,504.57822 L 346.30799,503.49624 L 346.55216,502.16821 L 347.8742,502.41127 L 348.60338,498.44517 L 347.28135,498.20212 L 349.22806,487.61385 L 350.5501,487.85691 L 351.0379,485.20384 L 352.36294,485.44745 L 353.33629,480.15333 L 354.0003,480.27541 L 354.7306,476.3033 L 353.40857,476.06023 L 354.62553,469.44106 L 358.59464,470.17081 L 359.08077,467.52674 L 365.69994,468.74372 L 366.79484,462.78856 L 372.08597,463.76136 L 371.60039,466.40242 L 374.25046,466.88966 L 374.73602,464.2486 L 377.3831,464.73527 L 378.46262,466.29736 L 378.21955,467.6194 L 380.9917,467.44261 L 381.72145,463.4735 L 385.69056,464.20326 L 385.27014,462.75614 L 388.16028,461.92078 L 389.4793,462.16329 L 390.633,459.63886 L 390.69627,455.54413 L 389.62086,453.97658 L 386.97381,453.4899 L 387.70299,449.52381 L 385.54616,446.3876 L 385.78977,445.06258 L 384.46774,444.8195 L 385.07594,441.51143 L 387.06199,441.87658 L 418.77044,444.28955 L 419.44049,444.41273 L 433.83117,444.31268 L 439.36893,443.96101 L 439.38185,436.44022 L 467.73652,434.81047 L 471.81147,475.93383 L 470.12132,477.67627 L 469.75673,479.65931 L 467.284,481.94123 L 465.17585,482.24011 L 462.8252,483.85801 L 462.16419,483.73647 L 460.77043,487.5835 L 458.54322,488.54694 L 457.63558,489.74988 L 456.7315,490.95038 L 457.69139,493.18005 L 456.0012,494.92249 L 455.87912,495.5865 L 453.23204,495.09983 L 453.42341,490.34218 L 454.3275,489.14168 L 450.89733,489.19749 L 443.12802,490.50248 L 442.58854,489.71994 L 441.63109,487.49382 L 440.96707,487.37174 L 439.88811,485.80665 L 440.13228,484.4786 L 438.92988,483.56796 L 437.48219,483.99138 L 435.79201,485.73382 L 434.22993,486.81334 L 431.57984,486.32611 L 430.67522,487.5296 L 423.81242,487.63768 L 423.14842,487.5156 L 423.55179,496.48896 L 423.43026,497.14999 L 424.75228,497.39305 L 426.79772,501.18591 L 427.45572,501.3069 L 419.2679,501.17132 L 409.09704,500.67119 L 405.47661,505.47864 L 403.60608,504.45138 L 402.28104,504.20776 L 399.93339,505.8262 L 400.10417,508.59727 L 398.30147,511.00237 L 394.20238,510.92899 L 394.132,515.02863 L 396.65809,516.17333 L 396.29296,518.15938 L 392.30627,524.9589 L 391.75388,531.69713 L 390.84623,532.9001 L 390.18521,532.77855"
       id="AK_Yukon-Koyukuk"
       inkscape:label="Yukon-Koyukuk, AL" />
  </g>
</svg>
